<svg width="339" height="427" viewBox="0 0 339 427" fill="none" xmlns="http://www.w3.org/2000/svg">
<path d="M111.881 274.225C110.829 274.225 109.821 274.088 108.856 273.812C107.892 273.524 107.115 273.154 106.526 272.703L107.56 270.411C108.123 270.812 108.787 271.144 109.551 271.407C110.328 271.657 111.111 271.783 111.9 271.783C112.502 271.783 112.984 271.726 113.347 271.614C113.723 271.488 113.999 271.319 114.174 271.106C114.349 270.893 114.437 270.649 114.437 270.373C114.437 270.023 114.299 269.747 114.024 269.547C113.748 269.334 113.385 269.165 112.934 269.039C112.483 268.901 111.982 268.776 111.431 268.663C110.892 268.538 110.347 268.388 109.796 268.212C109.257 268.037 108.762 267.812 108.311 267.536C107.86 267.26 107.491 266.897 107.203 266.446C106.927 265.995 106.789 265.419 106.789 264.717C106.789 263.966 106.99 263.283 107.391 262.669C107.804 262.043 108.418 261.548 109.232 261.185C110.059 260.809 111.092 260.621 112.332 260.621C113.159 260.621 113.974 260.721 114.775 260.922C115.577 261.11 116.285 261.398 116.899 261.786L115.959 264.097C115.345 263.747 114.731 263.49 114.118 263.327C113.504 263.152 112.902 263.064 112.314 263.064C111.725 263.064 111.243 263.133 110.867 263.271C110.491 263.408 110.222 263.59 110.059 263.815C109.896 264.028 109.815 264.279 109.815 264.567C109.815 264.905 109.952 265.181 110.228 265.394C110.503 265.594 110.867 265.757 111.318 265.882C111.769 266.008 112.264 266.133 112.802 266.258C113.353 266.384 113.898 266.528 114.437 266.69C114.988 266.853 115.489 267.073 115.94 267.348C116.391 267.624 116.755 267.987 117.03 268.438C117.318 268.889 117.462 269.459 117.462 270.148C117.462 270.887 117.256 271.563 116.842 272.177C116.429 272.791 115.809 273.286 114.982 273.662C114.168 274.038 113.134 274.225 111.881 274.225ZM122.083 274V263.327H117.874V260.847H129.337V263.327H125.128V274H122.083ZM130.975 274V260.847H136.668C137.846 260.847 138.86 261.041 139.712 261.429C140.564 261.805 141.222 262.35 141.685 263.064C142.149 263.778 142.38 264.63 142.38 265.619C142.38 266.596 142.149 267.442 141.685 268.156C141.222 268.858 140.564 269.396 139.712 269.772C138.86 270.148 137.846 270.336 136.668 270.336H132.666L134.019 269.002V274H130.975ZM139.336 274L136.048 269.227H139.299L142.625 274H139.336ZM134.019 269.34L132.666 267.912H136.499C137.439 267.912 138.14 267.711 138.604 267.311C139.067 266.897 139.299 266.333 139.299 265.619C139.299 264.893 139.067 264.329 138.604 263.928C138.14 263.527 137.439 263.327 136.499 263.327H132.666L134.019 261.88V269.34ZM150.636 274.225C148.77 274.225 147.31 273.706 146.258 272.666C145.206 271.626 144.68 270.142 144.68 268.212V260.847H147.724V268.1C147.724 269.352 147.98 270.254 148.494 270.806C149.008 271.357 149.728 271.632 150.655 271.632C151.582 271.632 152.302 271.357 152.816 270.806C153.33 270.254 153.586 269.352 153.586 268.1V260.847H156.593V268.212C156.593 270.142 156.067 271.626 155.014 272.666C153.962 273.706 152.503 274.225 150.636 274.225ZM165.896 274.225C164.881 274.225 163.935 274.063 163.058 273.737C162.194 273.399 161.442 272.923 160.804 272.309C160.165 271.695 159.664 270.975 159.3 270.148C158.95 269.321 158.774 268.413 158.774 267.423C158.774 266.434 158.95 265.525 159.3 264.699C159.664 263.872 160.165 263.152 160.804 262.538C161.455 261.924 162.213 261.454 163.077 261.128C163.942 260.79 164.887 260.621 165.915 260.621C167.055 260.621 168.082 260.821 168.996 261.222C169.923 261.611 170.7 262.187 171.326 262.951L169.372 264.755C168.921 264.241 168.42 263.859 167.869 263.609C167.318 263.346 166.716 263.214 166.065 263.214C165.451 263.214 164.887 263.314 164.374 263.515C163.86 263.715 163.415 264.003 163.04 264.379C162.664 264.755 162.369 265.2 162.156 265.713C161.956 266.227 161.856 266.797 161.856 267.423C161.856 268.05 161.956 268.62 162.156 269.133C162.369 269.647 162.664 270.092 163.04 270.467C163.415 270.843 163.86 271.131 164.374 271.332C164.887 271.532 165.451 271.632 166.065 271.632C166.716 271.632 167.318 271.507 167.869 271.257C168.42 270.993 168.921 270.599 169.372 270.073L171.326 271.877C170.7 272.641 169.923 273.223 168.996 273.624C168.082 274.025 167.048 274.225 165.896 274.225ZM176.107 270.993L175.938 267.48L182.232 260.847H185.615L179.94 266.953L178.249 268.757L176.107 270.993ZM173.382 274V260.847H176.407V274H173.382ZM182.383 274L177.704 268.269L179.696 266.108L185.934 274H182.383Z" fill="black"/>
<path d="M203.142 274V260.847H208.817C210.283 260.847 211.416 261.141 212.218 261.73C213.032 262.318 213.439 263.152 213.439 264.229C213.439 264.943 213.27 265.544 212.932 266.033C212.606 266.521 212.155 266.891 211.579 267.141C211.015 267.392 210.395 267.517 209.719 267.517L210.038 267.066C210.878 267.066 211.598 267.198 212.199 267.461C212.813 267.711 213.289 268.093 213.627 268.607C213.966 269.108 214.135 269.735 214.135 270.486C214.135 271.601 213.721 272.465 212.894 273.079C212.08 273.693 210.846 274 209.193 274H203.142ZM204.533 272.854H209.174C210.326 272.854 211.21 272.66 211.823 272.271C212.437 271.87 212.744 271.238 212.744 270.373C212.744 269.522 212.437 268.901 211.823 268.513C211.21 268.112 210.326 267.912 209.174 267.912H204.382V266.766H208.723C209.775 266.766 210.59 266.565 211.166 266.164C211.755 265.763 212.049 265.168 212.049 264.379C212.049 263.577 211.755 262.982 211.166 262.594C210.59 262.193 209.775 261.993 208.723 261.993H204.533V272.854ZM220.171 274V269.114L220.491 269.979L214.91 260.847H216.394L221.299 268.87H220.51L225.414 260.847H226.804L221.224 269.979L221.543 269.114V274H220.171Z" fill="black"/>
<path d="M92.2802 245V240.114L92.5996 240.979L87.0188 231.847H88.5033L93.4076 239.87H92.6184L97.5228 231.847H98.9133L93.3325 240.979L93.6519 240.114V245H92.2802ZM106.251 245.113C105.261 245.113 104.341 244.95 103.489 244.624C102.649 244.286 101.917 243.816 101.29 243.215C100.676 242.601 100.194 241.893 99.8433 241.092C99.505 240.277 99.3359 239.388 99.3359 238.423C99.3359 237.459 99.505 236.576 99.8433 235.774C100.194 234.96 100.676 234.252 101.29 233.65C101.917 233.037 102.649 232.567 103.489 232.241C104.328 231.903 105.249 231.734 106.251 231.734C107.241 231.734 108.155 231.903 108.994 232.241C109.834 232.567 110.56 233.03 111.174 233.632C111.8 234.233 112.283 234.941 112.621 235.755C112.972 236.569 113.147 237.459 113.147 238.423C113.147 239.388 112.972 240.277 112.621 241.092C112.283 241.906 111.8 242.614 111.174 243.215C110.56 243.816 109.834 244.286 108.994 244.624C108.155 244.95 107.241 245.113 106.251 245.113ZM106.251 243.873C107.04 243.873 107.767 243.741 108.431 243.478C109.107 243.202 109.69 242.82 110.178 242.332C110.679 241.831 111.068 241.254 111.343 240.603C111.619 239.939 111.757 239.212 111.757 238.423C111.757 237.634 111.619 236.914 111.343 236.262C111.068 235.598 110.679 235.022 110.178 234.534C109.69 234.033 109.107 233.65 108.431 233.387C107.767 233.112 107.04 232.974 106.251 232.974C105.462 232.974 104.729 233.112 104.052 233.387C103.376 233.65 102.787 234.033 102.286 234.534C101.798 235.022 101.409 235.598 101.121 236.262C100.845 236.914 100.708 237.634 100.708 238.423C100.708 239.2 100.845 239.92 101.121 240.584C101.409 241.248 101.798 241.831 102.286 242.332C102.787 242.82 103.376 243.202 104.052 243.478C104.729 243.741 105.462 243.873 106.251 243.873ZM121.563 245.113C119.884 245.113 118.563 244.63 117.598 243.666C116.633 242.701 116.151 241.273 116.151 239.382V231.847H117.542V239.325C117.542 240.879 117.892 242.025 118.594 242.764C119.295 243.503 120.285 243.873 121.563 243.873C122.853 243.873 123.849 243.503 124.551 242.764C125.252 242.025 125.603 240.879 125.603 239.325V231.847H126.956V239.382C126.956 241.273 126.473 242.701 125.509 243.666C124.557 244.63 123.241 245.113 121.563 245.113ZM145.685 231.847H147.056V245H145.685V231.847ZM137.454 245H136.064V231.847H137.454V245ZM145.816 238.931H137.304V237.709H145.816V238.931ZM149.245 245L155.258 231.847H156.63L162.643 245H161.177L155.653 232.655H156.216L150.692 245H149.245ZM151.613 241.486L152.026 240.359H159.674L160.087 241.486H151.613ZM167.879 245L162.054 231.847H163.557L169.006 244.23H168.18L173.667 231.847H175.076L169.251 245H167.879ZM178.225 237.728H185.178V238.912H178.225V237.728ZM178.375 243.797H186.286V245H176.985V231.847H186.004V233.049H178.375V243.797ZM194.473 245V231.847H200.147C201.613 231.847 202.747 232.141 203.549 232.73C204.363 233.318 204.77 234.152 204.77 235.229C204.77 235.943 204.601 236.544 204.263 237.033C203.937 237.521 203.486 237.891 202.91 238.141C202.346 238.392 201.726 238.517 201.049 238.517L201.369 238.066C202.208 238.066 202.928 238.198 203.53 238.461C204.144 238.711 204.62 239.093 204.958 239.607C205.296 240.108 205.465 240.735 205.465 241.486C205.465 242.601 205.052 243.465 204.225 244.079C203.411 244.693 202.177 245 200.523 245H194.473ZM195.863 243.854H200.504C201.657 243.854 202.54 243.66 203.154 243.271C203.768 242.87 204.075 242.238 204.075 241.373C204.075 240.522 203.768 239.901 203.154 239.513C202.54 239.112 201.657 238.912 200.504 238.912H195.713V237.766H200.053C201.106 237.766 201.92 237.565 202.496 237.164C203.085 236.763 203.379 236.168 203.379 235.379C203.379 234.577 203.085 233.982 202.496 233.594C201.92 233.193 201.106 232.993 200.053 232.993H195.863V243.854ZM209.879 237.728H216.832V238.912H209.879V237.728ZM210.03 243.797H217.94V245H208.639V231.847H217.659V233.049H210.03V243.797ZM222.449 237.728H229.402V238.912H222.449V237.728ZM222.599 243.797H230.51V245H221.209V231.847H230.228V233.049H222.599V243.797ZM233.779 245V231.847H234.925L244.001 243.271H243.4V231.847H244.771V245H243.625L234.568 233.575H235.169V245H233.779Z" fill="black"/>
<path d="M134.202 167.436H126.802L122.838 181.312H130.784L125.823 200.694L140.327 176.012H131.751L134.202 167.436Z" fill="#FBB040"/>
<path d="M86.696 184H79.0799L75 198.185H83.1786L78.0714 218L93 192.769H84.173L86.696 184Z" fill="#FBB040"/>
<path d="M254.364 179H246.963L243 192.875H250.946L245.984 212.258L260.488 187.578H251.912L254.364 179Z" fill="#FBB040"/>
<path d="M158.79 176.577H149.356L144.302 194.267H154.432L148.108 218.976L166.599 187.512H155.666L158.79 176.577Z" fill="#FBB040"/>
<path d="M186.669 167.436H179.268L175.305 181.312H183.251L178.29 200.694L192.795 176.012H184.217L186.669 167.436Z" fill="#FBB040"/>
<path d="M211.256 176.577H201.822L196.769 194.267H206.9L200.574 218.976L219.067 187.512H208.132L211.256 176.577Z" fill="#FBB040"/>
<path d="M303.67 104.231C301.06 98.8821 295.574 95.1975 289.222 95.1975C287.1 95.1975 285.076 95.6131 283.223 96.3598C280.278 92.6753 275.749 90.3116 270.665 90.3116C266.302 90.3116 262.355 92.06 259.46 94.8824C270.003 102.587 277.193 114.371 278.963 127.8H312.917C314.849 125.307 316 122.179 316 118.781C316 111.459 310.665 105.386 303.67 104.231Z" fill="#00BFA6"/>
<path d="M146.457 47.7469C160.501 47.7469 173.708 53.2732 183.504 63.0832C188.048 61.8216 192.732 61.1852 197.498 61.1852C207.781 61.1852 217.502 64.113 225.745 69.3773C225.79 68.8062 225.817 68.2311 225.817 67.648C225.817 56.9356 218.013 48.053 207.779 46.3628C203.964 38.539 195.934 33.1482 186.644 33.1482C183.54 33.1482 180.579 33.7555 177.866 34.8485C173.559 29.4577 166.933 26 159.496 26C147.748 26 138.014 34.6186 136.272 45.878C129.316 46.4401 123.229 50.0383 119.305 55.3347C127.444 50.4056 136.826 47.7469 146.457 47.7469Z" fill="#00BFA6"/>
<path d="M67.9384 101.767C75.4721 93.6431 85.2571 88.1761 95.9674 86.0141C97.5051 80.532 99.934 75.3449 103.133 70.6537C100.716 69.8477 98.1354 69.3981 95.4475 69.3981C92.2367 69.3981 89.1724 70.0264 86.3651 71.1575C81.9098 65.5801 75.0546 62.0029 67.3613 62.0029C55.2057 62.0029 45.1347 70.9207 43.331 82.5695C30.8311 83.5812 21 94.0386 21 106.799C21 111.142 22.1432 115.216 24.1385 118.745H57.3957C59.7624 112.523 63.3124 106.756 67.9384 101.767Z" fill="#00BFA6"/>
<path d="M262.669 159.102C267.982 152.242 271.15 143.639 271.15 134.294C271.15 114.154 256.475 97.4512 237.235 94.2725C230.062 79.5635 214.966 69.4273 197.497 69.4273C191.663 69.4273 186.095 70.5695 180.994 72.625C172.897 62.4908 160.44 55.9889 146.457 55.9889C124.37 55.9889 106.071 72.1934 102.792 93.3612C80.0756 95.1999 62.21 114.205 62.21 137.395C62.21 145.286 64.2896 152.688 67.9149 159.102L262.669 159.102Z" fill="white"/>
<path d="M139.648 116.734C139.648 121.015 136.177 124.486 131.895 124.486C127.614 124.486 124.143 121.015 124.143 116.734C124.143 112.452 127.614 108.981 131.895 108.981C136.177 108.981 139.648 112.452 139.648 116.734Z" fill="#414042"/>
<path d="M138.098 113.342C138.098 115.59 136.276 117.413 134.027 117.413C131.778 117.413 129.958 115.59 129.958 113.342C129.958 111.094 131.778 109.272 134.027 109.272C136.276 109.272 138.098 111.094 138.098 113.342Z" fill="white"/>
<path d="M121.558 104.459L143.525 118.672C143.525 118.672 147.014 102.649 146.497 102.649C145.98 102.649 138.614 96.1883 131.119 96.1883" fill="white"/>
<path d="M193.713 116.734C193.713 121.015 197.184 124.486 201.466 124.486C205.747 124.486 209.219 121.015 209.219 116.734C209.219 112.452 205.747 108.981 201.466 108.981C197.184 108.981 193.713 112.452 193.713 116.734Z" fill="#414042"/>
<path d="M195.263 113.342C195.263 115.59 197.085 117.413 199.333 117.413C201.582 117.413 203.403 115.59 203.403 113.342C203.403 111.094 201.582 109.272 199.333 109.272C197.085 109.272 195.263 111.094 195.263 113.342Z" fill="white"/>
<path d="M211.802 104.459L189.835 118.672C189.835 118.672 186.348 102.649 186.863 102.649C187.381 102.649 194.746 96.1883 202.241 96.1883" fill="white"/>
<path d="M176.943 141.719C176.327 141.719 175.825 141.218 175.825 140.598C175.825 135.556 171.723 131.455 166.68 131.455C161.638 131.455 157.537 135.556 157.537 140.598C157.537 141.218 157.035 141.719 156.416 141.719C155.799 141.719 155.297 141.218 155.297 140.598C155.297 134.321 160.404 129.216 166.68 129.216C172.957 129.216 178.063 134.321 178.063 140.598C178.063 141.218 177.564 141.719 176.943 141.719Z" fill="#414042"/>
<g opacity="0.100006">
<path d="M271.15 134.294C271.15 130.293 270.562 126.432 269.484 122.782C245.455 137.838 171.573 173.11 64.6061 123.014C63.0554 127.523 62.2103 132.359 62.2103 137.395C62.2103 145.286 64.289 152.688 67.9153 159.102H262.67C267.982 152.243 271.15 143.639 271.15 134.294Z" fill="#414042"/>
</g>
<path d="M275.087 27.6537C258.126 25.6865 242.903 36.8011 241.084 52.4807C240.474 57.7422 241.457 62.8465 243.667 67.3844L237.079 80.0947L250.536 76.4329C255.282 80.6884 261.488 83.6155 268.502 84.429C285.463 86.3961 300.685 75.2826 302.503 59.6041C304.322 43.9245 292.048 29.6208 275.087 27.6537Z" fill="#F0F0F0"/>
<path d="M255.29 59.4229C255.483 60.4244 255.807 61.1078 256.264 61.4734C256.72 61.8398 257.268 61.9608 257.908 61.8373C258.567 61.7111 259.035 61.3988 259.314 60.9011C259.592 60.4031 259.625 59.5995 259.411 58.4898C259.232 57.5563 258.913 56.9104 258.453 56.5519C257.994 56.1939 257.441 56.0767 256.797 56.2008C256.178 56.3196 255.724 56.6338 255.434 57.1432C255.144 57.6529 255.096 58.4125 255.29 59.4229ZM252.223 59.9982C251.912 58.3794 252.12 57.0323 252.849 55.9561C253.577 54.881 254.747 54.1886 256.357 53.8788C258.008 53.5613 259.365 53.7599 260.428 54.4743C261.492 55.1891 262.177 56.3442 262.484 57.941C262.707 59.1006 262.695 60.0886 262.447 60.9052C262.2 61.7224 261.747 62.4082 261.089 62.9625C260.431 63.5172 259.551 63.8998 258.451 64.1116C257.332 64.3268 256.372 64.3267 255.571 64.1117C254.769 63.8963 254.067 63.4468 253.463 62.7628C252.859 62.0791 252.446 61.1579 252.223 59.9982" fill="#1A2E35"/>
<path d="M266.654 58.6478C266.777 59.2879 266.998 59.7366 267.316 59.9939C267.634 60.2508 267.99 60.3413 268.382 60.266C268.779 60.1891 269.076 59.9755 269.273 59.6245C269.47 59.2731 269.504 58.764 269.375 58.0967C269.256 57.4742 269.038 57.0351 268.722 56.7801C268.407 56.5252 268.059 56.4342 267.68 56.507C267.279 56.5841 266.977 56.8026 266.775 57.1619C266.573 57.5207 266.532 58.0162 266.654 58.6478ZM263.895 59.1853C263.684 58.0893 263.88 57.1151 264.484 56.2623C265.086 55.4095 266.017 54.8621 267.276 54.6205C268.715 54.3437 269.882 54.5517 270.777 55.2451C271.497 55.8037 271.952 56.5744 272.141 57.5576C272.354 58.6631 272.161 59.6386 271.564 60.4854C270.967 61.3322 270.021 61.8801 268.726 62.1289C267.572 62.3509 266.582 62.2377 265.757 61.7881C264.742 61.2302 264.121 60.3626 263.895 59.1853" fill="#1A2E35"/>
<path d="M276.249 56.8096C276.358 57.378 276.559 57.7767 276.85 58.006C277.143 58.235 277.471 58.3143 277.836 58.2441C278.157 58.1825 278.4 57.9992 278.565 57.6936C278.731 57.3879 278.753 56.9196 278.632 56.2883C278.52 55.7063 278.325 55.3009 278.047 55.0713C277.769 54.8417 277.468 54.7581 277.143 54.8206C276.791 54.8881 276.524 55.0826 276.343 55.4023C276.161 55.7228 276.13 56.1915 276.249 56.8096ZM274.701 63.6459L272.793 53.7278L275.371 53.2317L275.576 54.2939C275.846 53.7791 276.115 53.4144 276.382 53.1991C276.743 52.9099 277.167 52.7184 277.654 52.6248C278.615 52.4398 279.428 52.6647 280.095 53.2986C280.762 53.9328 281.199 54.7913 281.408 55.8738C281.638 57.069 281.527 58.0363 281.075 58.7754C280.623 59.515 279.959 59.969 279.084 60.1373C278.661 60.2184 278.26 60.2206 277.882 60.1437C277.505 60.0663 277.152 59.9124 276.822 59.6814L277.481 63.1114L274.701 63.6459Z" fill="#1A2E35"/>
<path d="M282.532 57.236L285.216 56.4531C285.391 56.7563 285.594 56.9582 285.824 57.0594C286.053 57.1599 286.338 57.1779 286.676 57.1129C287.046 57.0416 287.317 56.9079 287.49 56.711C287.625 56.5636 287.676 56.4023 287.642 56.2266C287.604 56.0284 287.471 55.895 287.243 55.8271C287.079 55.7792 286.666 55.7606 286.004 55.7709C285.016 55.7885 284.322 55.7615 283.923 55.6915C283.523 55.6204 283.163 55.441 282.844 55.1523C282.524 54.8635 282.322 54.5021 282.239 54.0697C282.148 53.5965 282.207 53.1627 282.417 52.7672C282.626 52.372 282.956 52.043 283.406 51.7812C283.856 51.5195 284.487 51.3109 285.299 51.1547C286.156 50.9895 286.801 50.9338 287.234 50.9859C287.668 51.0385 288.047 51.1758 288.373 51.3982C288.699 51.621 288.997 51.9496 289.267 52.3842L286.705 53.1435C286.593 52.926 286.448 52.7787 286.27 52.7011C286.025 52.5979 285.75 52.5759 285.443 52.6354C285.132 52.6951 284.916 52.7937 284.795 52.9314C284.674 53.0691 284.629 53.217 284.659 53.3743C284.693 53.5501 284.809 53.6657 285.007 53.7206C285.204 53.7766 285.612 53.7819 286.23 53.7376C287.166 53.6656 287.875 53.6788 288.357 53.7776C288.839 53.8763 289.231 54.0743 289.534 54.3712C289.836 54.6682 290.027 55.0216 290.106 55.4315C290.186 55.8463 290.138 56.2735 289.963 56.7137C289.788 57.1534 289.454 57.5415 288.959 57.8774C288.465 58.2126 287.753 58.4699 286.824 58.6492C285.512 58.9013 284.541 58.8936 283.912 58.6266C283.283 58.3593 282.823 57.8957 282.532 57.236Z" fill="#1A2E35"/>
<path d="M291.634 56.1372L294.43 56.2154L294.361 58.6872L291.565 58.6094L291.634 56.1372ZM291.743 48.5107L294.739 48.5941L294.675 50.8947L293.968 55.4996L292.115 55.4476L291.679 50.8109L291.743 48.5107Z" fill="#1A2E35"/>
<path d="M92.2906 340.138V332.084L116.674 299.277H129.235L105.369 332.084L99.5318 330.385H140.245V340.138H92.2906ZM120.147 351V340.138L120.516 330.385V320.705H131.822V351H120.147ZM165.992 351.887C161.756 351.887 157.963 350.852 154.613 348.783C151.263 346.665 148.628 343.611 146.707 339.621C144.786 335.631 143.825 330.804 143.825 325.139C143.825 319.474 144.786 314.646 146.707 310.656C148.628 306.666 151.263 303.637 154.613 301.568C157.963 299.45 161.756 298.391 165.992 298.391C170.278 298.391 174.071 299.45 177.371 301.568C180.721 303.637 183.356 306.666 185.277 310.656C187.198 314.646 188.159 319.474 188.159 325.139C188.159 330.804 187.198 335.631 185.277 339.621C183.356 343.611 180.721 346.665 177.371 348.783C174.071 350.852 170.278 351.887 165.992 351.887ZM165.992 341.764C168.012 341.764 169.76 341.197 171.238 340.064C172.765 338.931 173.947 337.133 174.785 334.67C175.672 332.207 176.115 329.03 176.115 325.139C176.115 321.247 175.672 318.07 174.785 315.607C173.947 313.144 172.765 311.346 171.238 310.213C169.76 309.08 168.012 308.513 165.992 308.513C164.022 308.513 162.273 309.08 160.746 310.213C159.268 311.346 158.086 313.144 157.199 315.607C156.362 318.07 155.943 321.247 155.943 325.139C155.943 329.03 156.362 332.207 157.199 334.67C158.086 337.133 159.268 338.931 160.746 340.064C162.273 341.197 164.022 341.764 165.992 341.764ZM193.384 340.138V332.084L217.767 299.277H230.328L206.462 332.084L200.625 330.385H241.338V340.138H193.384ZM221.24 351V340.138L221.609 330.385V320.705H232.915V351H221.24Z" fill="black"/>
<path d="M235.849 415.529L96 405.612L98.7387 367L238.589 376.917L235.849 415.529Z" fill="white"/>
<path d="M125.021 387.289L134.269 387.945L134.067 390.788L124.819 390.133L125.021 387.289ZM124.721 395.28L135.218 396.025L135.013 398.922L121.061 397.932L122.38 379.33L135.96 380.293L135.755 383.189L125.63 382.471L124.721 395.28ZM138.864 399.195L140.184 380.592L147.837 381.135C149.485 381.252 150.874 381.617 152.006 382.232C153.155 382.848 154.014 383.674 154.581 384.711C155.149 385.749 155.384 386.95 155.287 388.314C155.19 389.678 154.788 390.833 154.08 391.78C153.373 392.71 152.407 393.398 151.182 393.845C149.977 394.276 148.55 394.433 146.902 394.316L141.162 393.909L142.815 392.45L142.319 399.44L138.864 399.195ZM151.036 400.058L146.811 392.974L150.504 393.236L154.756 400.322L151.036 400.058ZM142.788 392.823L141.364 391.066L146.945 391.461C148.468 391.569 149.634 391.323 150.442 390.721C151.268 390.121 151.723 389.236 151.806 388.067C151.89 386.88 151.565 385.94 150.831 385.247C150.114 384.555 148.994 384.155 147.47 384.047L141.89 383.651L143.552 382.06L142.788 392.823ZM158.302 400.573L159.622 381.971L167.275 382.513C168.923 382.63 170.313 382.996 171.444 383.61C172.594 384.226 173.452 385.053 174.019 386.09C174.587 387.127 174.822 388.328 174.725 389.692C174.629 391.056 174.226 392.212 173.518 393.159C172.811 394.088 171.845 394.776 170.621 395.224C169.415 395.655 167.988 395.812 166.341 395.695L160.6 395.288L162.253 393.829L161.757 400.818L158.302 400.573ZM170.474 401.436L166.249 394.353L169.943 394.615L174.194 401.7L170.474 401.436ZM162.226 394.201L160.802 392.444L166.383 392.84C167.906 392.948 169.072 392.701 169.881 392.1C170.707 391.499 171.161 390.615 171.244 389.445C171.328 388.258 171.003 387.318 170.269 386.625C169.552 385.933 168.432 385.533 166.909 385.425L161.328 385.03L162.99 383.438L162.226 394.201ZM186.438 402.836C184.986 402.733 183.665 402.399 182.476 401.834C181.288 401.269 180.272 400.529 179.429 399.614C178.587 398.682 177.959 397.623 177.544 396.436C177.131 395.231 176.973 393.938 177.071 392.556C177.169 391.174 177.507 389.925 178.085 388.809C178.664 387.675 179.435 386.714 180.399 385.928C181.364 385.124 182.475 384.526 183.732 384.135C184.988 383.743 186.334 383.598 187.769 383.7C189.221 383.803 190.533 384.136 191.704 384.7C192.893 385.265 193.908 386.014 194.75 386.946C195.593 387.86 196.221 388.92 196.634 390.124C197.049 391.311 197.207 392.595 197.109 393.977C197.011 395.359 196.673 396.617 196.094 397.751C195.515 398.885 194.743 399.846 193.779 400.632C192.815 401.418 191.705 402.007 190.449 402.399C189.21 402.792 187.873 402.937 186.438 402.836ZM186.627 399.804C187.566 399.871 188.445 399.773 189.265 399.511C190.085 399.248 190.808 398.845 191.434 398.302C192.061 397.741 192.562 397.082 192.936 396.326C193.329 395.552 193.56 394.687 193.628 393.73C193.696 392.774 193.589 391.894 193.307 391.09C193.045 390.27 192.642 389.547 192.099 388.921C191.557 388.277 190.899 387.768 190.124 387.392C189.35 387.017 188.493 386.796 187.554 386.729C186.615 386.663 185.735 386.761 184.916 387.023C184.113 387.287 183.39 387.698 182.745 388.258C182.119 388.801 181.609 389.459 181.216 390.233C180.842 390.99 180.621 391.846 180.553 392.803C180.486 393.742 180.584 394.622 180.846 395.441C181.127 396.263 181.538 396.995 182.079 397.639C182.623 398.265 183.282 398.766 184.056 399.141C184.831 399.517 185.688 399.738 186.627 399.804ZM200.111 403.538L201.431 384.936L209.084 385.479C210.732 385.595 212.121 385.961 213.253 386.575C214.402 387.191 215.261 388.018 215.828 389.055C216.396 390.092 216.631 391.293 216.534 392.657C216.438 394.022 216.035 395.177 215.327 396.124C214.62 397.053 213.654 397.741 212.429 398.189C211.224 398.62 209.797 398.777 208.149 398.66L202.409 398.253L204.062 396.794L203.566 403.783L200.111 403.538ZM212.283 404.401L208.058 397.318L211.752 397.58L216.003 404.665L212.283 404.401ZM204.035 397.166L202.611 395.409L208.192 395.805C209.715 395.913 210.881 395.666 211.69 395.065C212.516 394.465 212.97 393.58 213.053 392.41C213.137 391.223 212.812 390.283 212.078 389.59C211.361 388.898 210.241 388.499 208.717 388.39L203.137 387.995L204.799 386.403L204.035 397.166Z" fill="#09243A"/>
</svg>
