<svg width="1482" height="1178" viewBox="0 0 1482 1178" fill="none" xmlns="http://www.w3.org/2000/svg">
<path fill-rule="evenodd" clip-rule="evenodd" d="M1324.97 201.71C1309.43 201.71 1296.84 189.113 1296.84 173.575C1296.84 158.041 1309.43 145.447 1324.97 145.447C1340.5 145.447 1353.1 158.041 1353.1 173.575C1353.1 189.113 1340.5 201.71 1324.97 201.71ZM229.542 74.1982C209.269 74.1982 192.835 57.7646 192.835 37.4915C192.835 17.2218 209.269 0.784907 229.542 0.784907C249.815 0.784907 266.248 17.2218 266.248 37.4915C266.248 57.7646 249.815 74.1982 229.542 74.1982ZM1243.79 1170.32C1374.78 1170.32 1481.95 1063.15 1481.95 932.159C1481.95 801.17 1374.78 694.001 1243.8 694.001H1243.79C1188.41 694.001 1143.1 648.686 1143.1 593.308C1143.1 537.921 1188.41 492.609 1243.8 492.609H1255.78C1313.36 492.609 1360.47 445.5 1360.47 387.917C1360.47 330.332 1313.36 283.222 1255.78 283.222H1219.01C1196.6 283.222 1178.26 264.884 1178.26 242.466C1178.26 220.046 1196.6 201.704 1219.01 201.704H1246.03C1261.5 201.704 1274.16 189.046 1274.16 173.575C1274.16 158.107 1261.5 145.447 1246.03 145.447H1064.43C1040.12 145.447 1020.23 125.557 1020.23 101.248C1020.23 76.9387 1040.12 57.0453 1064.43 57.0453H1118.73C1134.2 57.0453 1146.86 44.388 1146.86 28.9135C1146.86 13.4423 1134.2 0.784907 1118.73 0.784907H323.468C303.278 0.784907 286.761 17.3084 286.761 37.4915C286.761 57.678 303.278 74.1982 323.468 74.1982H379.155C410.88 74.1982 436.834 100.152 436.834 131.87V131.877C436.834 163.595 410.88 189.549 379.155 189.549H163.731C143.541 189.549 127.021 206.069 127.021 226.259C127.021 246.446 143.541 262.959 163.731 262.959H198.979C228.23 262.959 252.162 286.895 252.162 316.146C252.162 345.397 228.23 369.333 198.979 369.333H151.007C75.8723 369.333 14.3972 430.804 14.3972 505.943C14.3972 581.074 75.8723 642.549 151.007 642.549H166.645C238.912 642.549 298.043 701.677 298.043 773.951C298.043 846.219 238.912 905.346 166.645 905.346H132.779C59.915 905.346 0.30127 964.966 0.30127 1037.83C0.30127 1110.69 59.915 1170.32 132.779 1170.32H1243.79Z" fill="#00BFA6"/>
<path fill-rule="evenodd" clip-rule="evenodd" d="M774.315 155.344C776.806 156.064 779.174 157.079 781.368 158.348C783.623 159.65 785.704 161.218 787.562 163.013C787.918 163.363 788.458 163.416 788.874 163.176L797.242 158.348L797.286 158.318C797.765 158.058 798.311 158.005 798.814 158.145C799.327 158.281 799.787 158.614 800.066 159.104L800.106 159.16L805.99 169.354C806.277 169.846 806.33 170.413 806.193 170.929C806.054 171.445 805.721 171.904 805.224 172.191L805.171 172.227L796.876 177.016C796.437 177.266 796.243 177.769 796.353 178.235C796.66 179.463 796.896 180.736 797.053 182.038C797.206 183.303 797.286 184.598 797.286 185.917C797.286 187.232 797.206 188.524 797.053 189.793C796.896 191.089 796.66 192.357 796.35 193.596C796.227 194.105 796.483 194.622 796.939 194.851L805.231 199.637L805.224 199.64C805.721 199.926 806.054 200.383 806.193 200.899C806.33 201.415 806.277 201.984 805.99 202.47L800.073 212.724H800.066C799.787 213.216 799.327 213.546 798.814 213.686C798.295 213.822 797.729 213.766 797.242 213.486L797.179 213.449L788.871 208.654C788.438 208.408 787.905 208.481 787.562 208.814C785.704 210.606 783.623 212.177 781.368 213.479C779.157 214.755 776.776 215.78 774.265 216.5C773.786 216.636 773.46 217.076 773.46 217.559V227.209C773.46 227.778 773.23 228.295 772.854 228.674C772.477 229.047 771.958 229.28 771.395 229.28H759.553C758.987 229.28 758.468 229.047 758.095 228.674C757.715 228.295 757.482 227.778 757.482 227.209V217.559C757.482 217.039 757.119 216.6 756.633 216.483C754.139 215.767 751.775 214.745 749.577 213.479C747.329 212.177 745.248 210.606 743.39 208.814C743.013 208.451 742.434 208.408 742.018 208.688L733.709 213.486C733.217 213.769 732.65 213.822 732.138 213.686C731.625 213.546 731.162 213.216 730.876 212.724L730.839 212.667L724.955 202.47V202.467C724.672 201.978 724.618 201.415 724.755 200.899C724.892 200.383 725.218 199.92 725.714 199.64L734.069 194.811C734.502 194.568 734.705 194.059 734.588 193.596C734.289 192.357 734.056 191.089 733.893 189.793C733.743 188.524 733.663 187.232 733.663 185.917C733.663 184.595 733.743 183.303 733.893 182.038C734.056 180.736 734.289 179.463 734.588 178.235C734.718 177.722 734.462 177.199 734.009 176.979L725.714 172.191C725.218 171.911 724.892 171.445 724.755 170.929C724.618 170.416 724.672 169.846 724.955 169.354L724.988 169.297L730.872 159.104H730.876C731.162 158.614 731.625 158.281 732.138 158.145C732.65 158.005 733.217 158.062 733.709 158.341V158.348L742.071 163.176C742.521 163.436 743.07 163.343 743.41 162.99C745.264 161.208 747.336 159.647 749.577 158.348C751.791 157.073 754.169 156.05 756.68 155.334C757.166 155.194 757.482 154.752 757.482 154.269V144.618C757.482 144.052 757.715 143.536 758.095 143.16C758.468 142.784 758.987 142.55 759.553 142.55H771.395C771.958 142.55 772.477 142.784 772.854 143.16C773.23 143.536 773.46 144.052 773.46 144.618V154.269C773.46 154.788 773.826 155.231 774.315 155.344ZM778.205 173.183C774.945 169.93 770.446 167.915 765.478 167.915C760.503 167.915 756 169.93 752.747 173.183C749.49 176.443 747.472 180.942 747.472 185.917C747.472 190.885 749.49 195.384 752.747 198.638C756 201.898 760.503 203.916 765.478 203.916C770.446 203.916 774.945 201.898 778.205 198.638C781.462 195.384 783.476 190.885 783.476 185.917C783.476 180.942 781.462 176.443 778.205 173.183" fill="#EBF2F8"/>
<path fill-rule="evenodd" clip-rule="evenodd" d="M638.093 149.432C640.604 150.501 643.038 151.72 645.382 153.075C647.77 154.454 650.064 155.976 652.245 157.617C654.436 159.272 656.524 161.057 658.502 162.965C658.579 163.035 658.675 163.085 658.779 163.092C658.885 163.102 658.988 163.085 659.078 163.035C664.879 159.682 670.693 156.349 676.484 152.985C677.174 152.606 677.916 152.383 678.665 152.296C679.435 152.206 680.214 152.269 680.953 152.469C681.716 152.672 682.445 153.029 683.084 153.515C683.7 153.984 684.233 154.587 684.643 155.29C688.849 162.103 692.848 169.482 696.871 176.452C697.277 177.158 697.523 177.927 697.62 178.7C697.726 179.502 697.67 180.311 697.467 181.071C697.263 181.833 696.907 182.559 696.418 183.198C695.948 183.818 695.349 184.354 694.636 184.76C689.092 188.19 683.068 191.444 677.39 194.724C677.3 194.774 677.234 194.857 677.197 194.943C677.154 195.04 677.147 195.15 677.167 195.25L677.567 196.858L677.543 196.868C677.716 197.644 677.873 198.443 678.026 199.249C678.276 200.628 678.486 201.99 678.645 203.322C678.809 204.644 678.932 206.006 679.015 207.411C679.098 208.813 679.148 210.195 679.148 211.533C679.148 212.879 679.098 214.254 679.015 215.659C678.932 217.068 678.809 218.43 678.645 219.755C678.486 221.084 678.276 222.439 678.026 223.821C677.776 225.196 677.48 226.525 677.164 227.82C677.14 227.93 677.15 228.037 677.197 228.134C677.244 228.24 677.32 228.32 677.41 228.367C683.747 231.753 690.184 235.736 696.448 239.352L696.228 239.632L696.418 239.875C696.907 240.514 697.263 241.244 697.467 242.003C697.67 242.766 697.726 243.571 697.62 244.371C697.523 245.15 697.277 245.916 696.864 246.622L683.734 269.366L683.487 269.222C683.357 269.339 683.221 269.449 683.084 269.559C682.445 270.045 681.716 270.401 680.953 270.604C680.201 270.807 679.388 270.864 678.589 270.764C677.836 270.668 677.094 270.425 676.401 270.045C670.66 266.995 664.743 263.308 659.068 260.035C658.988 259.988 658.885 259.975 658.779 259.985C658.675 259.998 658.576 260.042 658.499 260.118C656.521 262.02 654.43 263.808 652.242 265.456C650.064 267.098 647.77 268.62 645.382 269.998C643.024 271.364 640.57 272.582 638.046 273.661C635.535 274.727 632.951 275.646 630.314 276.402C630.211 276.432 630.121 276.498 630.061 276.575C629.998 276.658 629.961 276.761 629.964 276.868V296.781C629.964 297.597 629.798 298.383 629.498 299.102C629.185 299.852 628.735 300.521 628.173 301.074C627.613 301.63 626.947 302.086 626.208 302.396C625.485 302.692 624.699 302.859 623.887 302.859H599.448C598.632 302.859 597.85 302.692 597.13 302.396C596.394 302.086 595.722 301.63 595.156 301.074C594.603 300.521 594.147 299.852 593.834 299.102C593.537 298.383 593.371 297.597 593.371 296.781V276.865C593.371 276.742 593.334 276.638 593.278 276.565C593.208 276.488 593.114 276.422 593.001 276.399L592.925 276.369C590.271 275.606 587.71 274.694 585.246 273.641C582.731 272.572 580.297 271.354 577.95 269.998C575.565 268.62 573.271 267.098 571.093 265.456C568.905 263.808 566.811 262.016 564.829 260.108C564.749 260.025 564.646 259.985 564.546 259.975C564.44 259.965 564.333 259.995 564.237 260.048L546.987 270.008C546.278 270.415 545.519 270.668 544.75 270.764C543.947 270.864 543.138 270.807 542.382 270.604C541.623 270.401 540.893 270.045 540.251 269.559C539.648 269.099 539.122 268.52 538.719 267.827C534.187 260.544 529.904 252.566 525.582 245.08L525.815 244.94C525.775 244.75 525.735 244.56 525.712 244.367C525.612 243.565 525.669 242.762 525.868 242.003C526.078 241.244 526.428 240.514 526.921 239.875C527.394 239.256 527.986 238.72 528.692 238.313L545.945 228.35C546.035 228.303 546.098 228.217 546.138 228.127C546.181 228.027 546.188 227.92 546.168 227.817L545.719 225.992L545.745 225.989C545.592 225.28 545.449 224.557 545.312 223.824C545.059 222.449 544.849 221.084 544.683 219.755C544.526 218.43 544.4 217.068 544.32 215.659C544.233 214.254 544.19 212.879 544.19 211.533C544.19 210.195 544.233 208.813 544.32 207.414C544.4 206.006 544.526 204.644 544.683 203.312C544.846 201.993 545.059 200.634 545.312 199.239C545.565 197.874 545.848 196.542 546.171 195.25C546.195 195.143 546.181 195.033 546.138 194.933C546.095 194.837 546.015 194.754 545.915 194.707L528.689 184.76C527.976 184.347 527.377 183.815 526.917 183.198C526.428 182.549 526.072 181.823 525.868 181.071C525.669 180.311 525.612 179.506 525.712 178.706C525.812 177.954 526.048 177.205 526.441 176.509C530.55 168.903 535.256 161.23 539.595 153.711L539.844 153.858C539.974 153.731 540.114 153.625 540.251 153.515C540.893 153.029 541.623 152.672 542.382 152.469C543.138 152.266 543.947 152.206 544.746 152.313C545.529 152.406 546.288 152.656 546.987 153.055L548.266 153.791L548.256 153.798L564.257 163.035C564.357 163.092 564.466 163.112 564.566 163.099C564.67 163.085 564.766 163.035 564.839 162.959L564.883 162.919C566.841 161.034 568.929 159.259 571.126 157.601C573.314 155.949 575.595 154.441 577.956 153.075C580.314 151.71 582.765 150.485 585.289 149.416C587.8 148.347 590.387 147.428 593.021 146.672C593.124 146.642 593.214 146.578 593.271 146.502C593.338 146.412 593.374 146.312 593.371 146.212V126.292C593.371 125.48 593.537 124.69 593.834 123.974C594.147 123.225 594.603 122.556 595.162 122C595.722 121.44 596.394 120.991 597.13 120.678C597.85 120.381 598.632 120.215 599.448 120.215H623.887C624.699 120.215 625.485 120.381 626.208 120.678C626.947 120.991 627.613 121.44 628.176 122C629.282 123.099 629.964 124.62 629.964 126.292V146.212C629.964 146.325 630.007 146.429 630.061 146.512C630.124 146.588 630.221 146.652 630.327 146.675L630.41 146.705C633.061 147.471 635.629 148.38 638.093 149.432ZM629.498 150.185C631.939 150.891 634.336 151.75 636.681 152.746C639.065 153.758 641.366 154.91 643.577 156.186C645.828 157.491 647.996 158.929 650.071 160.498C652.162 162.07 654.147 163.761 656.008 165.563C656.671 166.196 657.497 166.568 658.342 166.668C659.205 166.778 660.104 166.598 660.88 166.149C666.601 162.849 672.621 159.579 678.223 156.136C678.492 155.999 678.779 155.906 679.068 155.876C679.388 155.843 679.714 155.866 680.017 155.949C680.34 156.036 680.64 156.176 680.9 156.375C681.146 156.568 681.366 156.812 681.529 157.095C685.702 163.408 689.888 171.563 693.75 178.253C693.92 178.54 694.017 178.85 694.057 179.153C694.097 179.472 694.067 179.809 693.983 180.138C693.9 180.455 693.75 180.754 693.557 181.014C693.367 181.264 693.121 181.484 692.838 181.65C687.69 185.05 681.056 188.457 675.602 191.607C674.799 192.066 674.217 192.752 673.88 193.535C673.767 193.808 673.68 194.094 673.624 194.384L673.271 194.504L673.667 196.112C673.98 197.374 674.253 198.64 674.486 199.898C674.709 201.124 674.903 202.406 675.069 203.741C675.226 205.047 675.349 206.342 675.425 207.617C675.495 208.866 675.532 210.175 675.532 211.533C675.532 212.899 675.495 214.207 675.425 215.446C675.349 216.732 675.226 218.024 675.069 219.332C674.903 220.668 674.709 221.946 674.486 223.172C674.253 224.431 673.98 225.699 673.667 226.961C673.434 227.9 673.547 228.843 673.927 229.652C674.296 230.465 674.939 231.14 675.768 231.563L691.033 240.378L691.026 240.381L692.838 241.427C693.121 241.597 693.367 241.813 693.557 242.06C693.75 242.316 693.9 242.619 693.983 242.935C694.067 243.262 694.097 243.598 694.057 243.921C694.017 244.231 693.92 244.534 693.75 244.82L682.455 264.397L682.445 264.394L681.529 265.976C681.366 266.265 681.146 266.508 680.9 266.698C680.64 266.895 680.34 267.038 680.017 267.121C679.698 267.211 679.365 267.238 679.042 267.194C678.739 267.154 678.432 267.058 678.149 266.888C672.681 263.458 666.511 260.178 660.873 256.925C660.067 256.465 659.188 256.305 658.352 256.402C657.487 256.508 656.661 256.891 656.011 257.507L656.008 257.511C654.14 259.312 652.155 261.007 650.071 262.579C647.996 264.144 645.828 265.583 643.577 266.881C641.353 268.17 639.028 269.329 636.634 270.348C634.283 271.347 631.839 272.216 629.325 272.935C628.442 273.188 627.703 273.718 627.19 274.404C626.661 275.096 626.364 275.962 626.364 276.868L626.361 296.781C626.361 297.118 626.291 297.434 626.168 297.717C626.051 298.014 625.862 298.287 625.629 298.523C625.402 298.753 625.126 298.939 624.826 299.066C624.54 299.182 624.223 299.249 623.887 299.249H599.448C599.112 299.249 598.795 299.182 598.509 299.066C598.213 298.939 597.933 298.753 597.706 298.523C597.473 298.287 597.29 298.014 597.164 297.717C597.047 297.434 596.981 297.118 596.981 296.781V276.865C596.981 275.919 596.648 275.04 596.095 274.337C595.532 273.621 594.736 273.102 593.834 272.889C591.396 272.186 589.002 271.324 586.654 270.331C584.273 269.316 581.972 268.16 579.754 266.881C577.513 265.583 575.342 264.144 573.264 262.579C571.18 261.007 569.195 259.312 567.327 257.511C566.634 256.848 565.762 256.475 564.873 256.395C563.964 256.309 563.035 256.532 562.249 257.051L545.202 266.895C544.916 267.058 544.61 267.154 544.297 267.194C543.977 267.238 543.644 267.211 543.311 267.121C542.998 267.038 542.695 266.895 542.438 266.698C542.189 266.508 541.969 266.265 541.802 265.976C537.753 258.913 533.641 251.88 529.588 244.817C529.422 244.534 529.318 244.224 529.278 243.918C529.242 243.595 529.265 243.262 529.355 242.935C529.441 242.612 529.585 242.316 529.778 242.06C529.968 241.803 530.204 241.587 530.484 241.427L547.733 231.467C548.536 231.007 549.118 230.321 549.455 229.542C549.545 229.326 549.615 229.109 549.668 228.879L550.121 228.79L549.668 226.961C549.355 225.699 549.082 224.431 548.852 223.175C548.626 221.95 548.432 220.668 548.266 219.332C548.109 218.024 547.99 216.732 547.913 215.453C547.84 214.207 547.8 212.899 547.8 211.533C547.8 210.181 547.84 208.866 547.913 207.621C547.99 206.342 548.109 205.05 548.266 203.745C548.432 202.393 548.626 201.107 548.852 199.888C549.082 198.636 549.355 197.374 549.668 196.112C549.898 195.173 549.784 194.227 549.412 193.415C549.032 192.609 548.389 191.933 547.573 191.51L530.49 181.65C530.207 181.487 529.971 181.274 529.778 181.017C529.585 180.768 529.441 180.465 529.355 180.138C529.265 179.815 529.242 179.479 529.278 179.156C529.318 178.85 529.422 178.54 529.588 178.257C533.754 172.056 537.933 163.768 541.802 157.095C541.969 156.812 542.189 156.568 542.438 156.375C542.695 156.176 542.998 156.036 543.311 155.949C543.644 155.866 543.974 155.836 544.297 155.876C544.593 155.912 544.903 156.016 545.196 156.186L562.455 166.149C563.268 166.622 564.18 166.778 565.043 166.665C565.912 166.548 566.734 166.149 567.38 165.51C569.248 163.711 571.23 162.023 573.288 160.475C575.339 158.926 577.503 157.494 579.761 156.186C581.989 154.903 584.303 153.741 586.701 152.726C589.055 151.723 591.493 150.858 594.007 150.138C594.893 149.885 595.632 149.356 596.145 148.673C596.674 147.977 596.971 147.111 596.971 146.212L596.981 126.292C596.981 125.956 597.047 125.636 597.16 125.353C597.284 125.06 597.473 124.787 597.71 124.554C597.933 124.321 598.213 124.138 598.509 124.008C598.795 123.891 599.112 123.825 599.448 123.825H623.887C624.223 123.825 624.54 123.891 624.826 124.008C625.126 124.131 625.402 124.321 625.629 124.551C626.075 125 626.361 125.619 626.361 126.292V146.212C626.361 147.161 626.687 148.037 627.237 148.736C627.81 149.452 628.592 149.975 629.498 150.185M625.192 178.856C629.508 180.641 633.397 183.275 636.667 186.542C639.934 189.805 642.558 193.698 644.35 198.01C646.071 202.17 647.02 206.738 647.02 211.533C647.02 216.335 646.071 220.904 644.35 225.063C642.558 229.372 639.934 233.268 636.667 236.535C633.397 239.805 629.505 242.429 625.192 244.221C621.033 245.939 616.468 246.891 611.666 246.891C606.877 246.891 602.305 245.939 598.149 244.221C593.83 242.429 589.938 239.805 586.671 236.535C583.404 233.268 580.777 229.372 578.989 225.063C577.264 220.904 576.318 216.335 576.318 211.533C576.318 206.738 577.264 202.17 578.989 198.01C580.777 193.698 583.404 189.805 586.671 186.542C589.938 183.275 593.83 180.641 598.139 178.856C602.299 177.135 606.871 176.182 611.666 176.182C616.468 176.182 621.033 177.135 625.192 178.856M639.218 183.984C635.635 180.401 631.343 177.511 626.558 175.53C621.962 173.625 616.934 172.572 611.666 172.572C606.401 172.572 601.369 173.625 596.777 175.53C591.996 177.511 587.7 180.401 584.113 183.984C580.534 187.571 577.64 191.866 575.659 196.642C573.754 201.24 572.708 206.272 572.708 211.533C572.708 216.802 573.754 221.833 575.659 226.432C577.64 231.214 580.534 235.503 584.113 239.083C587.7 242.669 591.986 245.566 596.771 247.544C601.363 249.449 606.398 250.501 611.666 250.501C616.934 250.501 621.962 249.449 626.558 247.544C631.343 245.566 635.635 242.669 639.218 239.083C642.801 235.503 645.695 231.214 647.673 226.432C649.581 221.833 650.63 216.802 650.63 211.533C650.63 206.272 649.581 201.24 647.673 196.642C645.695 191.866 642.801 187.571 639.218 183.984" fill="#EBF2F8"/>
<path fill-rule="evenodd" clip-rule="evenodd" d="M1123.87 1039.07L1133.1 1050.63H1175.07L1184.31 1039.07C1217.47 949.6 1090.7 949.6 1123.87 1039.07Z" fill="#4BB89F"/>
<path fill-rule="evenodd" clip-rule="evenodd" d="M1135.82 1039.07L1141.4 1050.63H1166.77L1172.35 1039.07C1192.39 949.6 1115.78 949.6 1135.82 1039.07Z" fill="#7FC8B8"/>
<path fill-rule="evenodd" clip-rule="evenodd" d="M1190.08 1031.64H1118.09C1115.6 1031.64 1113.56 1033.67 1113.56 1036.17V1056.73C1113.56 1059.22 1115.6 1061.26 1118.09 1061.26H1190.08C1192.58 1061.26 1194.61 1059.22 1194.61 1056.73V1036.17C1194.61 1033.67 1192.58 1031.64 1190.08 1031.64Z" fill="#A36E4E"/>
<path fill-rule="evenodd" clip-rule="evenodd" d="M1178.1 1048.37H1130.07L1117.54 1061.26L1127.78 1106.23H1154.09H1180.39L1190.64 1061.26L1178.1 1048.37Z" fill="#A36E4E"/>
<path fill-rule="evenodd" clip-rule="evenodd" d="M1117.54 1061.26L1119.64 1070.13H1188.53L1190.64 1061.26H1117.54Z" fill="#794C34"/>
<path fill-rule="evenodd" clip-rule="evenodd" d="M1177.12 984.984L1174.51 990.945L1183.09 1007.27L1189.47 1008.5C1231.06 1003.13 1205.15 953.799 1177.12 984.984Z" fill="#4BB89F"/>
<path fill-rule="evenodd" clip-rule="evenodd" d="M1194.66 1000.76C1216.1 990.886 1207.14 973.636 1186.93 985.448C1169.84 995.445 1176.84 1008.96 1194.66 1000.76Z" fill="#7FC8B8"/>
<path fill-rule="evenodd" clip-rule="evenodd" d="M1134.35 983.66L1135.19 988.489L1125.95 998.892L1121.05 998.639C1091.57 987.167 1119.48 955.748 1134.35 983.66Z" fill="#4BB89F"/>
<path fill-rule="evenodd" clip-rule="evenodd" d="M1118.66 992.034C1104.74 980.919 1114.43 969.91 1127.08 982.231C1137.79 992.644 1130.21 1001.27 1118.66 992.034Z" fill="#7FC8B8"/>
<path fill-rule="evenodd" clip-rule="evenodd" d="M1181.19 366.084C1162.4 366.084 1146.38 377.912 1140.16 394.529C1138.58 394.179 1136.93 393.992 1135.24 393.992C1125.67 393.992 1117.49 399.93 1114.17 408.315C1111.85 407.542 1109.38 407.126 1106.79 407.126C1093.93 407.126 1083.5 417.552 1083.5 430.413C1083.5 443.273 1093.93 453.699 1106.79 453.699H1180.26L1180.7 453.696L1181.19 453.699H1270.33C1285.93 453.699 1298.59 441.052 1298.59 425.441C1298.59 409.833 1285.93 397.186 1270.33 397.186C1267.2 397.186 1264.19 397.695 1261.39 398.631C1257.35 388.451 1247.43 381.258 1235.81 381.258C1229.34 381.258 1223.39 383.493 1218.69 387.236C1211.02 374.552 1197.09 366.084 1181.19 366.084Z" fill="#DEE7F4"/>
<path fill-rule="evenodd" clip-rule="evenodd" d="M1121.11 340.824C1152.29 340.824 1177.56 366.092 1177.56 397.261C1177.56 428.433 1152.29 453.698 1121.11 453.698H1006.28C986.182 453.698 969.881 437.404 969.881 417.294C969.881 397.191 986.182 380.891 1006.28 380.891C1010.31 380.891 1014.19 381.544 1017.81 382.759C1022.99 369.645 1035.79 360.371 1050.75 360.371C1059.09 360.371 1066.75 363.249 1072.8 368.074C1082.69 351.74 1100.63 340.824 1121.11 340.824Z" fill="white"/>
<path fill-rule="evenodd" clip-rule="evenodd" d="M1012.1 467.507H1021.04C1022.67 467.507 1024.01 468.846 1024.01 470.484V479.415C1024.01 481.05 1022.67 482.392 1021.04 482.392H1012.1C1010.46 482.392 1009.13 481.05 1009.13 479.415V470.484C1009.13 468.846 1010.46 467.507 1012.1 467.507Z" fill="#DEE7F4"/>
<path fill-rule="evenodd" clip-rule="evenodd" d="M1042.61 467.507H1051.54C1053.18 467.507 1054.52 468.846 1054.52 470.484V479.415C1054.52 481.05 1053.18 482.392 1051.54 482.392H1042.61C1040.98 482.392 1039.63 481.05 1039.63 479.415V470.484C1039.63 468.846 1040.98 467.507 1042.61 467.507Z" fill="#DEE7F4"/>
<path fill-rule="evenodd" clip-rule="evenodd" d="M1073.12 467.507H1082.05C1083.69 467.507 1085.02 468.846 1085.02 470.484V479.415C1085.02 481.05 1083.69 482.392 1082.05 482.392H1073.12C1071.48 482.392 1070.15 481.05 1070.15 479.415V470.484C1070.15 468.846 1071.48 467.507 1073.12 467.507Z" fill="#DEE7F4"/>
<path fill-rule="evenodd" clip-rule="evenodd" d="M1103.62 467.507H1112.56C1114.19 467.507 1115.53 468.846 1115.53 470.484V479.415C1115.53 481.05 1114.19 482.392 1112.56 482.392H1103.62C1101.99 482.392 1100.65 481.05 1100.65 479.415V470.484C1100.65 468.846 1101.99 467.507 1103.62 467.507Z" fill="#DEE7F4"/>
<path fill-rule="evenodd" clip-rule="evenodd" d="M1146.91 806.354H1142.63C1141.17 806.354 1139.99 807.54 1139.99 808.988C1139.99 810.437 1141.17 811.619 1142.63 811.619H1146.91C1148.37 811.619 1149.55 810.437 1149.55 808.988C1149.55 807.54 1148.37 806.354 1146.91 806.354Z" fill="white"/>
<path fill-rule="evenodd" clip-rule="evenodd" d="M1211.64 847.13H1239.36C1240.81 847.13 1242 848.313 1242 849.761C1242 851.216 1240.81 852.398 1239.36 852.398H1211.64C1210.19 852.398 1209.01 851.216 1209.01 849.761C1209.01 848.313 1210.19 847.13 1211.64 847.13Z" fill="white"/>
<path fill-rule="evenodd" clip-rule="evenodd" d="M1186.02 866.002H1162.92C1161.47 866.002 1160.29 867.184 1160.29 868.636C1160.29 870.088 1161.47 871.27 1162.92 871.27H1186.02C1187.47 871.27 1188.65 870.088 1188.65 868.636C1188.65 867.184 1187.47 866.002 1186.02 866.002Z" fill="white"/>
<path fill-rule="evenodd" clip-rule="evenodd" d="M1169.06 901.529H1162.92C1161.47 901.529 1160.29 902.715 1160.29 904.163C1160.29 905.612 1161.47 906.794 1162.92 906.794H1169.06C1170.51 906.794 1171.69 905.612 1171.69 904.163C1171.69 902.715 1170.51 901.529 1169.06 901.529Z" fill="white"/>
<path fill-rule="evenodd" clip-rule="evenodd" d="M1370.21 939.255H1301.47C1300.03 939.255 1298.84 940.437 1298.84 941.889C1298.84 943.341 1300.03 944.533 1301.47 944.533H1370.21C1371.66 944.533 1372.84 943.341 1372.84 941.889C1372.84 940.437 1371.66 939.255 1370.21 939.255Z" fill="white"/>
<path fill-rule="evenodd" clip-rule="evenodd" d="M1325.15 958.126H1352.87C1354.32 958.126 1355.5 959.308 1355.5 960.76C1355.5 962.212 1354.32 963.394 1352.87 963.394H1325.15C1323.7 963.394 1322.51 962.212 1322.51 960.76C1322.51 959.308 1323.7 958.126 1325.15 958.126Z" fill="white"/>
<path fill-rule="evenodd" clip-rule="evenodd" d="M1299.52 977H1276.43C1274.98 977 1273.79 978.183 1273.79 979.631C1273.79 981.086 1274.98 982.268 1276.43 982.268H1299.52C1300.97 982.268 1302.16 981.086 1302.16 979.631C1302.16 978.183 1300.97 977 1299.52 977Z" fill="white"/>
<path fill-rule="evenodd" clip-rule="evenodd" d="M1282.57 1012.52H1276.43C1274.98 1012.52 1273.79 1013.71 1273.79 1015.16C1273.79 1016.61 1274.98 1017.79 1276.43 1017.79H1282.57C1284.01 1017.79 1285.2 1016.61 1285.2 1015.16C1285.2 1013.71 1284.01 1012.52 1282.57 1012.52Z" fill="white"/>
<path fill-rule="evenodd" clip-rule="evenodd" d="M1410.23 1050.25H1341.49C1340.05 1050.25 1338.86 1051.44 1338.86 1052.9C1338.86 1054.35 1340.05 1055.53 1341.49 1055.53H1410.23C1411.68 1055.53 1412.87 1054.35 1412.87 1052.9C1412.87 1051.44 1411.68 1050.25 1410.23 1050.25Z" fill="white"/>
<path fill-rule="evenodd" clip-rule="evenodd" d="M1098.4 806.354H1062.6C1061.15 806.354 1059.96 807.54 1059.96 808.988C1059.96 810.437 1061.15 811.619 1062.6 811.619H1098.4C1099.85 811.619 1101.04 810.437 1101.04 808.988C1101.04 807.54 1099.85 806.354 1098.4 806.354Z" fill="#7385A1"/>
<path fill-rule="evenodd" clip-rule="evenodd" d="M1251.73 824.107H1180.83C1179.38 824.107 1178.19 825.299 1178.19 826.751C1178.19 828.203 1179.38 829.385 1180.83 829.385H1251.73C1253.18 829.385 1254.36 828.203 1254.36 826.751C1254.36 825.299 1253.18 824.107 1251.73 824.107Z" fill="#7385A1"/>
<path fill-rule="evenodd" clip-rule="evenodd" d="M1079.16 824.107H1159.06C1160.51 824.107 1161.69 825.299 1161.69 826.751C1161.69 828.203 1160.51 829.385 1159.06 829.385H1079.16C1077.71 829.385 1076.53 828.203 1076.53 826.751C1076.53 825.299 1077.71 824.107 1079.16 824.107Z" fill="#7385A1"/>
<path fill-rule="evenodd" clip-rule="evenodd" d="M1129.03 806.354H1061.47C1060.02 806.354 1058.83 807.54 1058.83 808.988C1058.83 810.437 1060.02 811.619 1061.47 811.619H1129.03C1130.48 811.619 1131.66 810.437 1131.66 808.988C1131.66 807.54 1130.48 806.354 1129.03 806.354Z" fill="#7385A1"/>
<path fill-rule="evenodd" clip-rule="evenodd" d="M1353.16 847.13H1251.11C1249.66 847.13 1248.47 848.313 1248.47 849.761C1248.47 851.216 1249.66 852.398 1251.11 852.398H1353.16C1354.61 852.398 1355.79 851.216 1355.79 849.761C1355.79 848.313 1354.61 847.13 1353.16 847.13Z" fill="#7385A1"/>
<path fill-rule="evenodd" clip-rule="evenodd" d="M1201.13 847.13H1099.08C1097.63 847.13 1096.45 848.313 1096.45 849.761C1096.45 851.216 1097.63 852.398 1099.08 852.398H1201.13C1202.57 852.398 1203.77 851.216 1203.77 849.761C1203.77 848.313 1202.57 847.13 1201.13 847.13Z" fill="#7385A1"/>
<path fill-rule="evenodd" clip-rule="evenodd" d="M1148.39 866.002H1112.03C1110.58 866.002 1109.4 867.184 1109.4 868.636C1109.4 870.088 1110.58 871.27 1112.03 871.27H1148.39C1149.85 871.27 1151.03 870.088 1151.03 868.636C1151.03 867.184 1149.85 866.002 1148.39 866.002Z" fill="#7385A1"/>
<path fill-rule="evenodd" clip-rule="evenodd" d="M1360.55 866.002H1198.99C1197.55 866.002 1196.36 867.184 1196.36 868.636C1196.36 870.088 1197.55 871.27 1198.99 871.27H1360.55C1362.01 871.27 1363.19 870.088 1363.19 868.636C1363.19 867.184 1362.01 866.002 1360.55 866.002Z" fill="#7385A1"/>
<path fill-rule="evenodd" clip-rule="evenodd" d="M1273.59 883.981H1112.03C1110.58 883.981 1109.4 885.164 1109.4 886.619C1109.4 888.067 1110.58 889.25 1112.03 889.25H1273.59C1275.04 889.25 1276.23 888.067 1276.23 886.619C1276.23 885.164 1275.04 883.981 1273.59 883.981Z" fill="#7385A1"/>
<path fill-rule="evenodd" clip-rule="evenodd" d="M1148.39 901.529H1112.03C1110.58 901.529 1109.4 902.715 1109.4 904.163C1109.4 905.612 1110.58 906.794 1112.03 906.794H1148.39C1149.85 906.794 1151.03 905.612 1151.03 904.163C1151.03 902.715 1149.85 901.529 1148.39 901.529Z" fill="#7385A1"/>
<path fill-rule="evenodd" clip-rule="evenodd" d="M1296.72 901.529H1182.96C1181.51 901.529 1180.33 902.715 1180.33 904.163C1180.33 905.612 1181.51 906.794 1182.96 906.794H1296.72C1298.17 906.794 1299.36 905.612 1299.36 904.163C1299.36 902.715 1298.17 901.529 1296.72 901.529Z" fill="#7385A1"/>
<path fill-rule="evenodd" clip-rule="evenodd" d="M1322.83 920.39H1144C1142.56 920.39 1141.37 921.573 1141.37 923.028C1141.37 924.476 1142.56 925.658 1144 925.658H1322.83C1324.28 925.658 1325.46 924.476 1325.46 923.028C1325.46 921.573 1324.28 920.39 1322.83 920.39Z" fill="#7385A1"/>
<path fill-rule="evenodd" clip-rule="evenodd" d="M1284.49 939.255H1168.25C1166.81 939.255 1165.62 940.437 1165.62 941.889C1165.62 943.341 1166.81 944.533 1168.25 944.533H1284.49C1285.93 944.533 1287.12 943.341 1287.12 941.889C1287.12 940.437 1285.93 939.255 1284.49 939.255Z" fill="#7385A1"/>
<path fill-rule="evenodd" clip-rule="evenodd" d="M1466.67 958.126H1364.62C1363.17 958.126 1361.98 959.308 1361.98 960.76C1361.98 962.212 1363.17 963.394 1364.62 963.394H1466.67C1468.11 963.394 1469.3 962.212 1469.3 960.76C1469.3 959.308 1468.11 958.126 1466.67 958.126Z" fill="#7385A1"/>
<path fill-rule="evenodd" clip-rule="evenodd" d="M1314.64 958.126H1212.59C1211.14 958.126 1209.95 959.308 1209.95 960.76C1209.95 962.212 1211.14 963.394 1212.59 963.394H1314.64C1316.09 963.394 1317.27 962.212 1317.27 960.76C1317.27 959.308 1316.09 958.126 1314.64 958.126Z" fill="#7385A1"/>
<path fill-rule="evenodd" clip-rule="evenodd" d="M1261.9 977H1225.54C1224.09 977 1222.91 978.183 1222.91 979.631C1222.91 981.086 1224.09 982.268 1225.54 982.268H1261.9C1263.35 982.268 1264.54 981.086 1264.54 979.631C1264.54 978.183 1263.35 977 1261.9 977Z" fill="#7385A1"/>
<path fill-rule="evenodd" clip-rule="evenodd" d="M1474.06 977H1312.5C1311.05 977 1309.87 978.183 1309.87 979.631C1309.87 981.086 1311.05 982.268 1312.5 982.268H1474.06C1475.51 982.268 1476.69 981.086 1476.69 979.631C1476.69 978.183 1475.51 977 1474.06 977Z" fill="#7385A1"/>
<path fill-rule="evenodd" clip-rule="evenodd" d="M1387.1 994.98H1225.54C1224.09 994.98 1222.9 996.163 1222.9 997.615C1222.9 999.066 1224.09 1000.25 1225.54 1000.25H1387.1C1388.55 1000.25 1389.73 999.066 1389.73 997.615C1389.73 996.163 1388.55 994.98 1387.1 994.98Z" fill="#7385A1"/>
<path fill-rule="evenodd" clip-rule="evenodd" d="M1261.9 1012.52H1225.54C1224.09 1012.52 1222.91 1013.71 1222.91 1015.16C1222.91 1016.61 1224.09 1017.79 1225.54 1017.79H1261.9C1263.35 1017.79 1264.54 1016.61 1264.54 1015.16C1264.54 1013.71 1263.35 1012.52 1261.9 1012.52Z" fill="#7385A1"/>
<path fill-rule="evenodd" clip-rule="evenodd" d="M1410.23 1012.52H1296.46C1295.02 1012.52 1293.83 1013.71 1293.83 1015.16C1293.83 1016.61 1295.02 1017.79 1296.46 1017.79H1410.23C1411.68 1017.79 1412.87 1016.61 1412.87 1015.16C1412.87 1013.71 1411.68 1012.52 1410.23 1012.52Z" fill="#7385A1"/>
<path fill-rule="evenodd" clip-rule="evenodd" d="M1387.1 1031.39H1208.27C1206.83 1031.39 1205.64 1032.57 1205.64 1034.02C1205.64 1035.47 1206.83 1036.65 1208.27 1036.65H1387.1C1388.55 1036.65 1389.73 1035.47 1389.73 1034.02C1389.73 1032.57 1388.55 1031.39 1387.1 1031.39Z" fill="#7385A1"/>
<path fill-rule="evenodd" clip-rule="evenodd" d="M1324.5 1050.25H1208.27C1206.82 1050.25 1205.64 1051.44 1205.64 1052.9C1205.64 1054.35 1206.82 1055.53 1208.27 1055.53H1324.5C1325.95 1055.53 1327.14 1054.35 1327.14 1052.9C1327.14 1051.44 1325.95 1050.25 1324.5 1050.25Z" fill="#7385A1"/>
<path fill-rule="evenodd" clip-rule="evenodd" d="M144.313 361.952H375.668C382.268 361.952 387.666 367.353 387.666 373.95V491.652C387.666 498.252 382.268 503.647 375.668 503.647H144.313C137.72 503.647 132.318 498.252 132.318 491.652V373.95C132.318 367.353 137.72 361.952 144.313 361.952Z" fill="#8397B5"/>
<path fill-rule="evenodd" clip-rule="evenodd" d="M138.103 355.567H369.452C376.055 355.567 381.453 360.968 381.453 367.561V485.267C381.453 491.86 376.055 497.258 369.452 497.258H138.103C131.503 497.258 126.102 491.86 126.102 485.267V367.561C126.102 360.965 131.503 355.567 138.103 355.567Z" fill="white"/>
<path fill-rule="evenodd" clip-rule="evenodd" d="M138.103 355.567H369.452C376.055 355.567 381.453 360.968 381.453 367.561V384.125C381.453 385.973 379.938 387.485 378.093 387.485H129.462C127.621 387.485 126.102 385.973 126.102 384.125V367.561C126.102 360.968 131.503 355.567 138.103 355.567Z" fill="#252626"/>
<path fill-rule="evenodd" clip-rule="evenodd" d="M145.516 400.862H210.371C211.74 400.862 212.862 401.984 212.862 403.353C212.862 404.728 211.74 405.847 210.371 405.847H145.516C144.148 405.847 143.025 404.728 143.025 403.353C143.025 401.984 144.148 400.862 145.516 400.862Z" fill="#0C0E0E"/>
<path fill-rule="evenodd" clip-rule="evenodd" d="M210.372 411.857H181.401C180.029 411.857 178.91 412.979 178.91 414.347V414.351C178.91 415.723 180.029 416.842 181.401 416.842H210.372C211.74 416.842 212.859 415.723 212.859 414.351V414.347C212.859 412.979 211.74 411.857 210.372 411.857Z" fill="#0C0E0E"/>
<path fill-rule="evenodd" clip-rule="evenodd" d="M168.761 411.857H171.055C172.434 411.857 173.55 412.979 173.55 414.347V414.351C173.55 415.723 172.434 416.842 171.055 416.842H168.761C167.392 416.842 166.267 415.723 166.267 414.351V414.347C166.267 412.979 167.392 411.857 168.761 411.857Z" fill="#0C0E0E"/>
<path fill-rule="evenodd" clip-rule="evenodd" d="M145.516 411.857H160.032C161.4 411.857 162.523 412.979 162.523 414.347V414.351C162.523 415.723 161.4 416.842 160.032 416.842H145.516C144.148 416.842 143.025 415.723 143.025 414.351V414.347C143.025 412.979 144.148 411.857 145.516 411.857Z" fill="#0C0E0E"/>
<path fill-rule="evenodd" clip-rule="evenodd" d="M145.516 424.902H210.371C211.74 424.902 212.862 426.021 212.862 427.396C212.862 428.761 211.74 429.887 210.371 429.887H145.516C144.148 429.887 143.025 428.761 143.025 427.396C143.025 426.021 144.148 424.902 145.516 424.902Z" fill="#0C0E0E"/>
<path fill-rule="evenodd" clip-rule="evenodd" d="M145.516 435.897H174.487C175.856 435.897 176.978 437.016 176.978 438.388C176.978 439.763 175.856 440.882 174.487 440.882H145.516C144.148 440.882 143.025 439.763 143.025 438.388C143.025 437.016 144.148 435.897 145.516 435.897Z" fill="#0C0E0E"/>
<path fill-rule="evenodd" clip-rule="evenodd" d="M187.126 435.897H184.829C183.454 435.897 182.331 437.016 182.331 438.388C182.331 439.763 183.454 440.882 184.829 440.882H187.126C188.502 440.882 189.617 439.763 189.617 438.388C189.617 437.016 188.502 435.897 187.126 435.897Z" fill="#0C0E0E"/>
<path fill-rule="evenodd" clip-rule="evenodd" d="M210.372 435.897H195.863C194.488 435.897 193.372 437.016 193.372 438.388C193.372 439.763 194.488 440.882 195.863 440.882H210.372C211.74 440.882 212.863 439.763 212.863 438.388C212.863 437.016 211.74 435.897 210.372 435.897Z" fill="#0C0E0E"/>
<path fill-rule="evenodd" clip-rule="evenodd" d="M145.516 448.939H210.371C211.74 448.939 212.862 450.061 212.862 451.433C212.862 452.805 211.74 453.924 210.371 453.924H145.516C144.148 453.924 143.025 452.805 143.025 451.433C143.025 450.061 144.148 448.939 145.516 448.939Z" fill="#0C0E0E"/>
<path fill-rule="evenodd" clip-rule="evenodd" d="M210.372 459.932H181.401C180.029 459.932 178.91 461.054 178.91 462.426V462.429C178.91 463.798 180.029 464.917 181.401 464.917H210.372C211.74 464.917 212.859 463.798 212.859 462.429V462.426C212.859 461.054 211.74 459.932 210.372 459.932Z" fill="#0C0E0E"/>
<path fill-rule="evenodd" clip-rule="evenodd" d="M168.761 459.932H171.055C172.434 459.932 173.55 461.054 173.55 462.426V462.429C173.55 463.798 172.434 464.917 171.055 464.917H168.761C167.392 464.917 166.267 463.798 166.267 462.429V462.426C166.267 461.054 167.392 459.932 168.761 459.932Z" fill="#0C0E0E"/>
<path fill-rule="evenodd" clip-rule="evenodd" d="M145.516 459.932H160.032C161.4 459.932 162.523 461.054 162.523 462.426V462.429C162.523 463.798 161.4 464.917 160.032 464.917H145.516C144.148 464.917 143.025 463.798 143.025 462.429V462.426C143.025 461.054 144.148 459.932 145.516 459.932Z" fill="#0C0E0E"/>
<path fill-rule="evenodd" clip-rule="evenodd" d="M145.516 472.979H210.371C211.74 472.979 212.862 474.094 212.862 475.47C212.862 476.845 211.74 477.964 210.371 477.964H145.516C144.148 477.964 143.025 476.845 143.025 475.47C143.025 474.094 144.148 472.979 145.516 472.979Z" fill="#0C0E0E"/>
<path fill-rule="evenodd" clip-rule="evenodd" d="M251.871 400.862H361.588C362.96 400.862 364.079 401.984 364.079 403.353C364.079 404.728 362.96 405.847 361.588 405.847H251.871C250.496 405.847 249.377 404.728 249.377 403.353C249.377 401.984 250.496 400.862 251.871 400.862Z" fill="#D84F50"/>
<path fill-rule="evenodd" clip-rule="evenodd" d="M361.589 411.857H310.803C309.434 411.857 308.312 412.979 308.312 414.347V414.351C308.312 415.723 309.434 416.842 310.803 416.842H361.589C362.961 416.842 364.076 415.723 364.076 414.351V414.347C364.076 412.979 362.961 411.857 361.589 411.857Z" fill="#D84F50"/>
<path fill-rule="evenodd" clip-rule="evenodd" d="M290.046 411.857H297.022C298.397 411.857 299.516 412.979 299.516 414.347V414.351C299.516 415.723 298.397 416.842 297.022 416.842H290.046C288.677 416.842 287.555 415.723 287.555 414.351V414.347C287.555 412.979 288.677 411.857 290.046 411.857Z" fill="#D84F50"/>
<path fill-rule="evenodd" clip-rule="evenodd" d="M251.866 411.857H278.906C280.275 411.857 281.397 412.979 281.397 414.347V414.351C281.397 415.723 280.275 416.842 278.906 416.842H251.866C250.498 416.842 249.379 415.723 249.379 414.351V414.347C249.379 412.979 250.498 411.857 251.866 411.857Z" fill="#D84F50"/>
<path fill-rule="evenodd" clip-rule="evenodd" d="M251.871 424.902H361.588C362.96 424.902 364.079 426.021 364.079 427.396C364.079 428.761 362.96 429.887 361.588 429.887H251.871C250.496 429.887 249.377 428.761 249.377 427.396C249.377 426.021 250.496 424.902 251.871 424.902Z" fill="#D84F50"/>
<path fill-rule="evenodd" clip-rule="evenodd" d="M251.871 435.897H302.651C304.026 435.897 305.145 437.016 305.145 438.388C305.145 439.763 304.026 440.882 302.651 440.882H251.871C250.496 440.882 249.377 439.763 249.377 438.388C249.377 437.016 250.496 435.897 251.871 435.897Z" fill="#D84F50"/>
<path fill-rule="evenodd" clip-rule="evenodd" d="M323.409 435.897H316.43C315.058 435.897 313.939 437.016 313.939 438.388C313.939 439.763 315.058 440.882 316.43 440.882H323.409C324.785 440.882 325.904 439.763 325.904 438.388C325.904 437.016 324.785 435.897 323.409 435.897Z" fill="#D84F50"/>
<path fill-rule="evenodd" clip-rule="evenodd" d="M361.589 435.897H334.549C333.181 435.897 332.059 437.016 332.059 438.388C332.059 439.763 333.181 440.882 334.549 440.882H361.589C362.961 440.882 364.08 439.763 364.08 438.388C364.08 437.016 362.961 435.897 361.589 435.897Z" fill="#D84F50"/>
<path fill-rule="evenodd" clip-rule="evenodd" d="M251.871 448.939H361.588C362.96 448.939 364.079 450.061 364.079 451.433C364.079 452.805 362.96 453.924 361.588 453.924H251.871C250.496 453.924 249.377 452.805 249.377 451.433C249.377 450.061 250.496 448.939 251.871 448.939Z" fill="#D84F50"/>
<path fill-rule="evenodd" clip-rule="evenodd" d="M361.589 459.932H310.803C309.434 459.932 308.312 461.054 308.312 462.426V462.429C308.312 463.798 309.434 464.917 310.803 464.917H361.589C362.961 464.917 364.076 463.798 364.076 462.429V462.426C364.076 461.054 362.961 459.932 361.589 459.932Z" fill="#D84F50"/>
<path fill-rule="evenodd" clip-rule="evenodd" d="M290.046 459.932H297.022C298.397 459.932 299.516 461.054 299.516 462.426V462.429C299.516 463.798 298.397 464.917 297.022 464.917H290.046C288.677 464.917 287.555 463.798 287.555 462.429V462.426C287.555 461.054 288.677 459.932 290.046 459.932Z" fill="#D84F50"/>
<path fill-rule="evenodd" clip-rule="evenodd" d="M251.866 459.932H278.906C280.275 459.932 281.397 461.054 281.397 462.426V462.429C281.397 463.798 280.275 464.917 278.906 464.917H251.866C250.498 464.917 249.379 463.798 249.379 462.429V462.426C249.379 461.054 250.498 459.932 251.866 459.932Z" fill="#D84F50"/>
<path fill-rule="evenodd" clip-rule="evenodd" d="M251.871 472.979H361.588C362.96 472.979 364.079 474.094 364.079 475.47C364.079 476.845 362.96 477.964 361.588 477.964H251.871C250.496 477.964 249.377 476.845 249.377 475.47C249.377 474.094 250.496 472.979 251.871 472.979Z" fill="#D84F50"/>
<path fill-rule="evenodd" clip-rule="evenodd" d="M319.881 377.282C323.055 377.282 325.642 374.698 325.642 371.521C325.642 368.351 323.055 365.76 319.881 365.76C316.711 365.76 314.124 368.351 314.124 371.521C314.124 374.698 316.711 377.282 319.881 377.282Z" fill="white"/>
<path fill-rule="evenodd" clip-rule="evenodd" d="M340.651 377.282C343.821 377.282 346.412 374.698 346.412 371.521C346.412 368.351 343.821 365.76 340.651 365.76C337.478 365.76 334.894 368.351 334.894 371.521C334.894 374.698 337.478 377.282 340.651 377.282Z" fill="white"/>
<path fill-rule="evenodd" clip-rule="evenodd" d="M361.42 377.282C364.593 377.282 367.177 374.698 367.177 371.521C367.177 368.351 364.593 365.76 361.42 365.76C358.246 365.76 355.659 368.351 355.659 371.521C355.659 374.698 358.246 377.282 361.42 377.282Z" fill="white"/>
<path fill-rule="evenodd" clip-rule="evenodd" d="M305.579 233.916H314.51C316.148 233.916 317.484 235.258 317.484 236.893V245.824C317.484 247.459 316.148 248.801 314.51 248.801H305.579C303.941 248.801 302.605 247.459 302.605 245.824V236.893C302.605 235.258 303.941 233.916 305.579 233.916Z" fill="#DEE7F4"/>
<path fill-rule="evenodd" clip-rule="evenodd" d="M336.086 233.916H345.02C346.652 233.916 347.994 235.258 347.994 236.893V245.824C347.994 247.459 346.652 248.801 345.02 248.801H336.086C334.447 248.801 333.112 247.459 333.112 245.824V236.893C333.112 235.258 334.447 233.916 336.086 233.916Z" fill="#DEE7F4"/>
<path fill-rule="evenodd" clip-rule="evenodd" d="M366.592 233.916H375.526C377.165 233.916 378.5 235.258 378.5 236.893V245.824C378.5 247.459 377.165 248.801 375.526 248.801H366.592C364.957 248.801 363.618 247.459 363.618 245.824V236.893C363.618 235.258 364.957 233.916 366.592 233.916Z" fill="#DEE7F4"/>
<path fill-rule="evenodd" clip-rule="evenodd" d="M397.103 233.916H406.031C407.669 233.916 409.011 235.258 409.011 236.893V245.824C409.011 247.459 407.669 248.801 406.031 248.801H397.103C395.468 248.801 394.13 247.459 394.13 245.824V236.893C394.13 235.258 395.468 233.916 397.103 233.916Z" fill="#DEE7F4"/>
<path fill-rule="evenodd" clip-rule="evenodd" d="M109.127 1068.23H118.054C119.696 1068.23 121.031 1069.57 121.031 1071.21V1080.14C121.031 1081.78 119.696 1083.12 118.054 1083.12H109.127C107.488 1083.12 106.153 1081.78 106.153 1080.14V1071.21C106.153 1069.57 107.488 1068.23 109.127 1068.23Z" fill="#DEE7F4"/>
<path fill-rule="evenodd" clip-rule="evenodd" d="M139.632 1068.23H148.566C150.201 1068.23 151.543 1069.57 151.543 1071.21V1080.14C151.543 1081.78 150.201 1083.12 148.566 1083.12H139.632C137.994 1083.12 136.658 1081.78 136.658 1080.14V1071.21C136.658 1069.57 137.994 1068.23 139.632 1068.23Z" fill="#DEE7F4"/>
<path fill-rule="evenodd" clip-rule="evenodd" d="M170.138 1068.23H179.073C180.711 1068.23 182.05 1069.57 182.05 1071.21V1080.14C182.05 1081.78 180.711 1083.12 179.073 1083.12H170.138C168.507 1083.12 167.165 1081.78 167.165 1080.14V1071.21C167.165 1069.57 168.507 1068.23 170.138 1068.23Z" fill="#DEE7F4"/>
<path fill-rule="evenodd" clip-rule="evenodd" d="M200.65 1068.23H209.581C211.219 1068.23 212.558 1069.57 212.558 1071.21V1080.14C212.558 1081.78 211.219 1083.12 209.581 1083.12H200.65C199.015 1083.12 197.676 1081.78 197.676 1080.14V1071.21C197.676 1069.57 199.015 1068.23 200.65 1068.23Z" fill="#DEE7F4"/>
<path fill-rule="evenodd" clip-rule="evenodd" d="M454.369 1021.24C450.29 1017.16 444.808 1014.89 439.037 1014.89C433.26 1014.89 427.785 1017.16 423.699 1021.24C419.62 1025.33 417.352 1030.8 417.352 1036.57C417.352 1042.35 419.62 1047.82 423.699 1051.91C427.785 1055.99 433.26 1058.26 439.037 1058.26C444.808 1058.26 450.29 1055.99 454.369 1051.91C458.451 1047.82 460.719 1042.35 460.719 1036.57C460.719 1030.8 458.451 1025.33 454.369 1021.24ZM439.037 1001.01C448.498 1001.01 457.496 1004.74 464.182 1011.43C470.872 1018.11 474.605 1027.12 474.605 1036.57C474.605 1046.04 470.872 1055.03 464.182 1061.72C457.496 1068.42 448.498 1072.14 439.037 1072.14C429.574 1072.14 420.579 1068.42 413.886 1061.72C407.199 1055.03 403.47 1046.04 403.47 1036.57C403.47 1027.12 407.199 1018.11 413.886 1011.43C420.579 1004.74 429.574 1001.01 439.037 1001.01" fill="#A62A34"/>
<path fill-rule="evenodd" clip-rule="evenodd" d="M382.409 1106.23C413.089 1106.23 438.19 1081.13 438.19 1050.44V1047.32V996.457V992.298C438.19 989.584 435.972 987.366 433.252 987.366H331.564C328.85 987.366 326.625 989.584 326.625 992.298V996.457V1047.32V1050.44C326.625 1081.13 351.727 1106.23 382.409 1106.23Z" fill="#D84F50"/>
<path fill-rule="evenodd" clip-rule="evenodd" d="M419.092 1043.47C419.092 1049.43 418.143 1055.17 416.394 1060.57C415.409 1063.61 414.167 1066.55 412.688 1069.34C406.631 1080.82 396.681 1089.97 384.63 1095C378.056 1097.74 370.85 1099.25 363.311 1099.25C360.197 1099.25 357.14 1099 354.167 1098.5C362.462 1103.4 372.119 1106.23 382.408 1106.23C394.939 1106.23 406.541 1102.04 415.882 1095C421.962 1090.4 427.087 1084.61 430.883 1077.96C432.422 1075.27 433.744 1072.44 434.823 1069.49C437 1063.53 438.193 1057.12 438.193 1050.44V1047.32V1015.09V1006.21V996.458V992.298C438.193 989.581 435.972 987.363 433.251 987.363H419.092V989.488V1010.71V1021.42V1040.35V1043.47Z" fill="#A62A34"/>
<path fill-rule="evenodd" clip-rule="evenodd" d="M334.063 1106.23H430.753C434.842 1106.23 438.192 1102.88 438.192 1098.79C438.192 1094.69 434.842 1091.35 430.753 1091.35H334.063C329.974 1091.35 326.627 1094.69 326.627 1098.79C326.627 1102.88 329.974 1106.23 334.063 1106.23Z" fill="#D84F50"/>
<path fill-rule="evenodd" clip-rule="evenodd" d="M344.493 997.966C349.662 997.966 353.891 1002.2 353.891 1007.36V1041.02C353.891 1046.18 349.662 1050.41 344.493 1050.41C339.322 1050.41 335.096 1046.18 335.096 1041.02V1007.36C335.096 1002.2 339.322 997.966 344.493 997.966Z" fill="#DE7272"/>
<path fill-rule="evenodd" clip-rule="evenodd" d="M334.763 918.583H377.287C380.514 918.583 383.152 915.949 383.152 912.725C383.152 909.495 380.514 906.864 377.287 906.864H320.081C311.666 906.864 304.77 899.965 304.77 891.543C304.77 883.125 311.663 876.232 320.081 876.232H468.846C477.267 876.232 484.154 883.125 484.154 891.543C484.154 899.965 477.267 906.864 468.846 906.864H416.954C413.734 906.864 411.097 909.495 411.097 912.725C411.097 915.949 413.734 918.583 416.954 918.583H436.921C443.425 918.583 448.739 923.907 448.739 930.407C448.739 936.908 443.425 942.222 436.921 942.222H403.904C390.98 942.222 380.411 952.792 380.411 965.715V976.488C380.411 979.538 377.913 982.039 374.86 982.039C371.81 982.039 369.309 979.538 369.309 976.488V955.995C369.309 948.416 363.115 942.222 355.536 942.222H334.763C328.263 942.222 322.945 936.908 322.945 930.407C322.945 923.907 328.263 918.583 334.763 918.583Z" fill="white"/>
<path fill-rule="evenodd" clip-rule="evenodd" d="M1089.21 178.835H938.126C927.154 178.835 918.176 187.816 918.176 198.788V294.099V300.187V352.564C918.176 353.483 918.699 354.269 919.548 354.625C920.404 354.975 921.326 354.795 921.972 354.143L955.975 320.14H1089.21C1100.19 320.14 1109.17 311.162 1109.17 300.187V198.788C1109.17 187.812 1100.19 178.835 1089.21 178.835Z" fill="#8397B5"/>
<path fill-rule="evenodd" clip-rule="evenodd" d="M1084.82 173.524H933.733C922.757 173.524 913.783 182.505 913.783 193.481V288.795V294.876V347.257C913.783 348.176 914.302 348.965 915.155 349.318C916.004 349.668 916.933 349.485 917.579 348.832L951.582 314.836H1084.82C1095.79 314.836 1104.77 305.858 1104.77 294.876V193.481C1104.77 182.505 1095.79 173.524 1084.82 173.524Z" fill="#D84F50"/>
<path d="M972.138 267.324L976.77 261.897C979.801 266.206 983.713 268.523 988.422 268.523C994.729 268.523 998.002 264.69 998.002 257.185V225.816H977.806V218.87H1005.9V256.788C1005.9 269.243 999.837 275.386 988.422 275.386C981.795 275.386 975.731 272.513 972.138 267.324Z" fill="white"/>
<path d="M1017.07 268.363L1020.02 262.136C1024.17 265.889 1031.28 268.603 1038.46 268.603C1048.12 268.603 1052.27 264.85 1052.27 259.982C1052.27 246.332 1018.43 254.953 1018.43 234.197C1018.43 225.576 1025.13 218.233 1039.82 218.233C1046.36 218.233 1053.15 219.988 1057.78 223.182L1055.15 229.569C1050.28 226.452 1044.77 225.017 1039.82 225.017C1030.32 225.017 1026.25 229.009 1026.25 233.878C1026.25 247.527 1060.09 238.986 1060.09 259.502C1060.09 268.044 1053.23 275.386 1038.46 275.386C1029.92 275.386 1021.54 272.512 1017.07 268.363Z" fill="white"/>
<path fill-rule="evenodd" clip-rule="evenodd" d="M535.035 610.831C539.59 610.831 543.31 607.121 543.31 602.559C543.31 598 539.59 594.284 535.035 594.284C530.476 594.284 526.76 598 526.76 602.559C526.76 607.121 530.476 610.831 535.035 610.831Z" fill="white"/>
<path fill-rule="evenodd" clip-rule="evenodd" d="M1078.74 706.406C1083.3 706.406 1087.01 702.679 1087.01 698.124C1087.01 693.568 1083.3 689.842 1078.74 689.842C1074.18 689.842 1070.47 693.568 1070.47 698.124C1070.47 702.679 1074.18 706.406 1078.74 706.406Z" fill="white"/>
<path fill-rule="evenodd" clip-rule="evenodd" d="M855.604 83.0907C860.166 83.0907 863.879 79.3711 863.879 74.8156C863.879 70.2602 860.166 66.5339 855.604 66.5339C851.049 66.5339 847.333 70.2602 847.333 74.8156C847.333 79.3711 851.049 83.0907 855.604 83.0907Z" fill="white"/>
<path fill-rule="evenodd" clip-rule="evenodd" d="M205.615 999.868C210.177 999.868 213.89 996.149 213.89 991.59C213.89 987.034 210.177 983.308 205.615 983.308C201.057 983.308 197.34 987.034 197.34 991.59C197.34 996.149 201.057 999.868 205.615 999.868Z" fill="white"/>
<path fill-rule="evenodd" clip-rule="evenodd" d="M462.7 274.693C467.262 274.693 470.975 270.973 470.975 266.417C470.975 261.859 467.262 258.136 462.7 258.136C458.145 258.136 454.425 261.859 454.425 266.417C454.425 270.973 458.145 274.693 462.7 274.693Z" fill="white"/>
<path fill-rule="evenodd" clip-rule="evenodd" d="M523.335 81.0013C525.409 81.0013 527.101 79.3097 527.101 77.2418C527.101 75.1639 525.409 73.4789 523.335 73.4789C521.263 73.4789 519.572 75.1639 519.572 77.2418C519.572 79.3097 521.263 81.0013 523.335 81.0013Z" fill="white"/>
<path fill-rule="evenodd" clip-rule="evenodd" d="M622.773 359.915C624.847 359.915 626.536 358.227 626.536 356.152C626.536 354.081 624.847 352.392 622.773 352.392C620.701 352.392 619.013 354.081 619.013 356.152C619.013 358.227 620.701 359.915 622.773 359.915Z" fill="white"/>
<path fill-rule="evenodd" clip-rule="evenodd" d="M870.157 199.842C872.232 199.842 873.923 198.154 873.923 196.08C873.923 194.008 872.232 192.32 870.157 192.32C868.086 192.32 866.397 194.008 866.397 196.08C866.397 198.154 868.086 199.842 870.157 199.842Z" fill="white"/>
<path fill-rule="evenodd" clip-rule="evenodd" d="M976.873 600.025C978.948 600.025 980.636 598.333 980.636 596.258C980.636 594.187 978.948 592.502 976.873 592.502C974.805 592.502 973.11 594.187 973.11 596.258C973.11 598.333 974.805 600.025 976.873 600.025Z" fill="white"/>
<path fill-rule="evenodd" clip-rule="evenodd" d="M1250.94 335.662C1253.01 335.662 1254.7 333.973 1254.7 331.899C1254.7 329.828 1253.01 328.139 1250.94 328.139C1248.87 328.139 1247.17 329.828 1247.17 331.899C1247.17 333.973 1248.87 335.662 1250.94 335.662Z" fill="white"/>
<path fill-rule="evenodd" clip-rule="evenodd" d="M566.99 510.287C569.065 510.287 570.757 508.595 570.757 506.52C570.757 504.452 569.065 502.764 566.99 502.764C564.919 502.764 563.231 504.452 563.231 506.52C563.231 508.595 564.919 510.287 566.99 510.287Z" fill="white"/>
<path fill-rule="evenodd" clip-rule="evenodd" d="M368.112 789.197C370.187 789.197 371.878 787.509 371.878 785.434C371.878 783.36 370.187 781.671 368.112 781.671C366.041 781.671 364.349 783.36 364.349 785.434C364.349 787.509 366.041 789.197 368.112 789.197Z" fill="white"/>
<path fill-rule="evenodd" clip-rule="evenodd" d="M113.452 997.774C115.523 997.774 117.211 996.089 117.211 994.014C117.211 991.94 115.523 990.251 113.452 990.251C111.381 990.251 109.689 991.94 109.689 994.014C109.689 996.089 111.381 997.774 113.452 997.774Z" fill="white"/>
<path fill-rule="evenodd" clip-rule="evenodd" d="M1255.79 769.796C1257.86 769.796 1259.55 768.108 1259.55 766.03C1259.55 763.958 1257.86 762.27 1255.79 762.27C1253.72 762.27 1252.02 763.958 1252.02 766.03C1252.02 768.108 1253.72 769.796 1255.79 769.796Z" fill="white"/>
<path fill-rule="evenodd" clip-rule="evenodd" d="M1321.27 1111.77C1323.35 1111.77 1325.03 1110.08 1325.03 1108C1325.03 1105.93 1323.35 1104.24 1321.27 1104.24C1319.2 1104.24 1317.51 1105.93 1317.51 1108C1317.51 1110.08 1319.2 1111.77 1321.27 1111.77Z" fill="white"/>
<path fill-rule="evenodd" clip-rule="evenodd" d="M86.773 532.115C88.8443 532.115 90.5326 530.424 90.5326 528.349C90.5326 526.278 88.8443 524.593 86.773 524.593C84.7017 524.593 83.0134 526.278 83.0134 528.349C83.0134 530.424 84.7017 532.115 86.773 532.115Z" fill="white"/>
<path fill-rule="evenodd" clip-rule="evenodd" d="M326.881 313.835C328.952 313.835 330.644 312.143 330.644 310.068C330.644 308 328.952 306.312 326.881 306.312C324.809 306.312 323.121 308 323.121 310.068C323.121 312.143 324.809 313.835 326.881 313.835Z" fill="white"/>
<path fill-rule="evenodd" clip-rule="evenodd" d="M736.763 85.8516C738.838 85.8516 740.53 84.1633 740.53 82.092C740.53 80.0174 738.838 78.3291 736.763 78.3291C734.696 78.3291 733.004 80.0174 733.004 82.092C733.004 84.1633 734.696 85.8516 736.763 85.8516Z" fill="white"/>
<path fill-rule="evenodd" clip-rule="evenodd" d="M991.425 127.083C993.493 127.083 995.185 125.391 995.185 123.324C995.185 121.249 993.493 119.561 991.425 119.561C989.354 119.561 987.663 121.249 987.663 123.324C987.663 125.391 989.354 127.083 991.425 127.083Z" fill="white"/>
<path fill-rule="evenodd" clip-rule="evenodd" d="M517.987 471.505C510.254 495.305 502.832 525.248 497.257 540.586C454.414 658.548 467.571 664.089 560.145 657.11C597.341 654.306 633.494 654.173 703.658 643.527C713.817 642.045 708.926 647.126 714.074 652.078C719.222 657.033 674.62 692.041 674.62 692.041L591.826 779.254C528.35 772.654 436.045 753.18 395.496 723.939C333.235 670.886 423.794 522.454 455.04 449.361C457.574 443.424 474.637 447.806 476.275 442.954C485.526 446.517 522.849 456.55 517.987 471.505Z" fill="white"/>
<path fill-rule="evenodd" clip-rule="evenodd" d="M542.736 449.066C554.63 440.644 567.271 438.926 571.95 438.749C578.137 438.516 572.113 415.373 551.43 425.283C551.43 425.283 540.591 426.102 539.279 421.53C537.967 416.958 577.101 367.204 581.387 361.763C585.659 356.325 580.268 350.394 577.388 350.314C574.504 350.235 568.403 358.19 559.988 367.74C551.58 377.281 541.996 387.92 540.345 388.08C538.696 388.237 536.588 386.219 539.163 379.186C541.733 372.156 557.361 333.977 556.229 330.235C555.103 326.492 548.15 324.643 544.091 329.675C540.032 334.71 525.716 373.858 522.293 378.286C518.87 382.719 515.067 378.703 515.39 374.793C515.706 370.887 525.24 326.252 524.304 322.722C523.382 319.192 516.216 317.544 513.352 323.848C510.491 330.148 499.592 372.482 497.261 374.683C494.934 376.878 490.228 375.719 488.616 367.221C487.005 358.726 485.669 340.771 483.871 338.859C482.076 336.955 474.048 340.328 474.094 349.292C474.144 358.253 473.505 380.484 472.999 383.768C470.321 401.094 463.085 416.032 462.852 429.828C462.766 434.817 464.041 439.905 466.342 444.707C471.777 456.065 482.932 465.882 495.37 469.379C516.981 475.449 526.375 460.657 542.736 449.066Z" fill="#F4AD85"/>
<path fill-rule="evenodd" clip-rule="evenodd" d="M542.736 449.066C554.63 440.644 567.271 438.926 571.95 438.749C574.067 438.666 574.753 435.905 573.911 432.705C570.524 431.437 554.291 435.299 539.236 442.103C517.218 452.046 492.752 463.711 473.691 437.204C468.743 430.328 466.868 411.114 468.533 402.819C465.779 412.446 462.995 421.35 462.849 429.828C462.766 434.817 464.041 439.898 466.342 444.707C455.05 461.973 479.386 477.953 499.669 478.373C507.551 478.536 507.098 472.029 515.25 468.796C524.85 464.986 532.406 456.385 542.736 449.066Z" fill="#F19879"/>
<path fill-rule="evenodd" clip-rule="evenodd" d="M931.7 669.093C931.7 669.093 948.6 677.055 967.421 699.049C980.858 714.74 1047.07 829.385 1070.14 939.256C1075.2 963.315 1039.33 1060.39 974.594 1106.23L1032.39 1118.71C1026.89 1107.29 901.394 1111.39 893.106 1093.49C869.08 1041.64 957.305 955.832 957.305 955.832L931.7 669.093Z" fill="#EBF2F8"/>
<path fill-rule="evenodd" clip-rule="evenodd" d="M775.906 627.978C809.655 636.916 910.811 664.055 916.358 669.776C923.028 676.646 953.168 841.198 953.245 857.265C953.315 872.11 918.489 1075.99 912.802 1131.65H764.98H617.151C611.467 1075.99 576.645 872.11 576.715 857.265C576.785 841.198 607.491 676.067 613.598 669.776C619.705 663.476 676.428 652.267 710.175 643.333L752.705 699.177L758.749 699.124L764.98 710.023L771.21 699.124L777.251 699.177L775.906 627.978Z" fill="white"/>
<path fill-rule="evenodd" clip-rule="evenodd" d="M583.428 912.755C578.413 883.291 574.949 861.729 574.973 857.267C575.019 848.086 586.118 790.201 596.874 741.107C604.743 745.353 600.204 768.24 601.22 804.41C601.803 825.093 592.868 870.824 583.428 912.755Z" fill="#EBF2F8"/>
<path fill-rule="evenodd" clip-rule="evenodd" d="M777.041 627.978C814.307 636.916 926.015 664.055 932.139 669.776C939.505 676.646 972.791 841.198 972.875 857.265C972.901 862.61 967.943 892.423 961.283 930.995C904.197 945.713 857.583 955.55 857.583 955.55C857.583 955.55 951.566 847.625 943.404 800.196C935.246 752.76 929.441 708.774 921.559 703.922C913.677 699.07 863.654 681.181 848.799 677.545C833.944 673.905 831.822 684.821 831.822 684.821C831.822 684.821 820.91 722.41 819.088 729.853C817.27 737.279 813.477 740.605 808.932 738.487C804.387 736.37 781.193 718.324 779.678 719.24C778.159 720.152 768.416 737.429 768.416 737.429L761.543 729.08L755.719 714.228C755.719 714.228 729.495 735.151 725.399 738.181C721.306 741.211 715.242 739.693 714.03 735.447C712.818 731.205 701.26 676.077 701.26 676.077L709.518 638.531C727.077 634.192 742.762 630.412 752.911 627.978L751.426 699.177L758.096 699.124L764.979 710.023L771.859 699.124L778.529 699.177L777.041 627.978Z" fill="#EBF2F8"/>
<path fill-rule="evenodd" clip-rule="evenodd" d="M761.542 704.584L764.978 710.022L768.415 704.584V806.246C768.415 808.147 766.876 809.686 764.978 809.686C763.08 809.686 761.542 808.147 761.542 806.246V704.584Z" fill="#BEC7D4"/>
<path fill-rule="evenodd" clip-rule="evenodd" d="M763.165 510.918L764.104 510.904C791.23 510.495 813.684 539.07 814 574.397L814.67 649.862C814.866 672.619 805.839 692.846 792.132 704.477V699.176H778.529H771.836L764.979 710.022L758.126 699.176H751.426H741.573V707.511C726.038 696.865 715.306 675.716 715.086 651.37L714.42 575.896C714.107 540.565 736.042 511.327 763.165 510.918Z" fill="#E8685B"/>
<path fill-rule="evenodd" clip-rule="evenodd" d="M752.427 476.948L700.592 518.429C698.993 515.702 697.768 512.742 696.989 509.638L744.638 471.5C747.505 472.948 750.126 474.79 752.427 476.948ZM762.936 498.393C762.337 491.839 759.826 485.712 755.87 480.694L703.496 522.612C707.495 527.537 712.893 531.347 719.217 533.385L762.936 498.393Z" fill="#F6BB98"/>
<path fill-rule="evenodd" clip-rule="evenodd" d="M622.218 467.332L603.021 477.072C586.507 531.437 626.857 626.652 704.243 592.623C734.952 579.13 677.786 465.274 677.786 465.274L622.218 467.332Z" fill="black"/>
<path fill-rule="evenodd" clip-rule="evenodd" d="M599.653 495.771C596.416 539.291 620.892 594.226 665.927 599.388C681.255 533.963 624.135 504.999 599.653 495.771Z" fill="#0C0E0E"/>
<path fill-rule="evenodd" clip-rule="evenodd" d="M886.989 362.346C922.82 392.692 975.97 495.073 921.511 529.735C903.826 540.99 890.655 556.861 860.389 543.258C830.119 529.652 832.767 368.626 832.767 368.626C832.767 368.626 868.857 353.185 886.989 362.346" fill="black"/>
<path fill-rule="evenodd" clip-rule="evenodd" d="M931.957 669.216C932.49 669.586 933.872 670.581 935.906 672.29C944.884 698.31 953.855 740.282 958.554 807.881C958.627 808.913 958.074 809.845 957.318 809.945C956.566 810.039 955.896 809.273 955.826 808.23C950.835 736.452 941.188 694.125 931.957 669.216Z" fill="#D7E0EC"/>
<path fill-rule="evenodd" clip-rule="evenodd" d="M655.206 651.708C625.289 675.501 611.19 717.345 591.826 779.257L589.079 778.877C607.9 718.291 620.298 676.693 650.294 652.164L655.206 651.708Z" fill="#EBF2F8"/>
<path fill-rule="evenodd" clip-rule="evenodd" d="M673.241 456.812C672.449 456.782 671.663 456.782 670.877 456.815H670.854H670.861C656.385 457.404 643.714 467.887 640.94 482.729C637.714 499.972 649.082 516.572 666.332 519.799C683.578 523.029 700.181 511.66 703.408 494.417C705.283 484.391 702.232 474.59 695.955 467.504C695.206 476.881 691.816 488.09 679.818 487.258L683.185 469.246C684.547 461.953 678.293 457.451 673.241 456.812Z" fill="#E8685B"/>
<path fill-rule="evenodd" clip-rule="evenodd" d="M899.418 494.707C900.177 494.943 900.92 495.199 901.649 495.482L901.676 495.492L901.669 495.489C915.156 500.76 923.717 514.803 921.513 529.738C918.932 547.094 902.778 559.082 885.422 556.511C868.059 553.941 856.068 537.787 858.642 520.431C860.134 510.334 866.218 502.063 874.453 497.411C872.112 506.525 871.659 518.223 883.274 521.35L885.965 503.225C887.05 495.889 894.433 493.664 899.418 494.707Z" fill="#E8685B"/>
<path fill-rule="evenodd" clip-rule="evenodd" d="M812.565 319.22C753.557 309.333 697.177 349.523 687.29 408.537L670.94 506.12C661.053 565.13 701.246 621.497 760.26 631.387C819.261 641.268 875.635 601.084 885.522 542.07L901.872 444.491C911.759 385.477 871.566 329.107 812.565 319.22Z" fill="#F4AD85"/>
<path fill-rule="evenodd" clip-rule="evenodd" d="M812.565 319.22C753.557 309.333 697.177 349.523 687.29 408.531L670.94 506.12C670.557 508.411 670.257 510.695 670.021 512.979C734.103 517.611 797.373 486.386 809.301 409.39C809.301 409.39 834.882 413.279 841.279 414.951C847.68 416.619 871.739 436.223 869.098 466.959C866.461 497.691 858.529 555.687 839.891 583.775C821.256 611.864 791.353 632.41 741.786 626.592C747.7 628.697 753.863 630.315 760.26 631.387C819.261 641.268 875.632 601.084 885.522 542.07L901.872 444.491C911.759 385.477 871.566 329.107 812.565 319.22Z" fill="#EF8871"/>
<path fill-rule="evenodd" clip-rule="evenodd" d="M865.946 402.733C865.946 402.733 859.905 446.176 887.361 463.416C887.361 463.416 883.648 485.547 882.569 491.997C881.483 498.454 883.588 509.08 890.844 510.292L893.412 494.968L903.715 481.794L910.258 410.689L885.643 362.91L864.111 357.925C864.111 357.925 865.999 403.459 865.946 402.733Z" fill="black"/>
<path fill-rule="evenodd" clip-rule="evenodd" d="M878.742 366.671L856.465 392.292C856.465 392.292 820.9 390.873 807.937 386.171C794.976 381.473 834.22 305.359 834.22 305.359C834.22 305.359 858.403 308.146 860.344 309.738C862.292 311.323 865.595 338.742 865.595 338.742L878.742 366.671Z" fill="black"/>
<path fill-rule="evenodd" clip-rule="evenodd" d="M868.817 511.386C867.322 505.262 864.122 499.708 859.67 495.352L807.682 536.96C810.935 542.228 815.63 546.581 821.318 549.398L868.817 511.386ZM855.697 492.022L805.304 532.352C804.015 529.295 803.173 526.031 802.833 522.651L846.766 487.493C850.013 488.559 853.01 490.101 855.697 492.022" fill="#F6BB98"/>
<path fill-rule="evenodd" clip-rule="evenodd" d="M838.112 535.384C830.476 533.952 823.114 538.993 821.685 546.629C820.26 554.268 825.292 561.624 832.934 563.056C840.573 564.481 847.929 559.446 849.364 551.807C850.789 544.165 845.754 536.812 838.112 535.384Z" fill="#E8685B"/>
<path fill-rule="evenodd" clip-rule="evenodd" d="M719.091 513.104C711.445 511.679 704.092 516.714 702.66 524.353C701.232 531.996 706.267 539.348 713.909 540.78C721.548 542.209 728.904 537.174 730.336 529.535C731.768 521.892 726.726 514.536 719.091 513.104Z" fill="#E8685B"/>
<path fill-rule="evenodd" clip-rule="evenodd" d="M722.275 457.463C730.863 454.829 741.325 455.712 748.352 461.703C749.8 462.945 752.025 462.765 753.267 461.316C754.496 459.864 754.312 457.64 752.867 456.408C744.109 448.935 730.996 447.457 720.237 450.807C718.405 451.383 717.366 453.324 717.929 455.159C718.488 456.997 720.44 458.026 722.275 457.463Z" fill="black"/>
<path fill-rule="evenodd" clip-rule="evenodd" d="M718.645 497.903C719.091 495.216 720.583 492.845 722.794 491.267C725.012 489.685 727.743 489.056 730.423 489.505C733.104 489.955 735.475 491.443 737.053 493.654C738.632 495.869 739.264 498.603 738.815 501.283C738.495 503.181 739.781 504.98 741.682 505.303C743.58 505.619 745.378 504.337 745.701 502.439C746.457 497.923 745.398 493.328 742.741 489.602C740.087 485.872 736.088 483.378 731.572 482.619C727.057 481.866 722.461 482.922 718.738 485.579C715.015 488.236 712.511 492.232 711.759 496.748C711.436 498.653 712.721 500.454 714.622 500.771C716.521 501.087 718.322 499.805 718.645 497.903Z" fill="black"/>
<path fill-rule="evenodd" clip-rule="evenodd" d="M847.572 519.506C847.256 521.411 848.538 523.209 850.436 523.525C852.344 523.845 854.142 522.56 854.459 520.662C855.218 516.146 854.159 511.547 851.502 507.824C848.844 504.098 844.845 501.597 840.329 500.841C835.817 500.089 831.225 501.145 827.502 503.799C823.776 506.459 821.275 510.459 820.513 514.971C820.193 516.872 821.482 518.677 823.38 518.993C825.284 519.31 827.086 518.028 827.402 516.123C827.852 513.442 829.34 511.068 831.555 509.489C833.773 507.911 836.497 507.285 839.181 507.728C841.858 508.184 844.235 509.663 845.814 511.877C847.389 514.095 848.022 516.825 847.572 519.506Z" fill="black"/>
<path fill-rule="evenodd" clip-rule="evenodd" d="M857.322 480.094C858.87 481.219 861.051 480.88 862.187 479.331C863.319 477.776 862.953 475.612 861.414 474.466C852.433 467.776 839.366 464.946 828.743 469.122C826.972 469.821 826.079 471.859 826.769 473.63C827.468 475.402 829.509 476.304 831.291 475.602C839.882 472.225 850.055 474.806 857.322 480.094Z" fill="black"/>
<path fill-rule="evenodd" clip-rule="evenodd" d="M870.954 1085.77C870.954 1085.77 887.89 1074.45 897.004 1068.97C906.128 1063.5 915.765 1065.85 921.496 1069.24C927.221 1072.62 952.499 1093.01 956.411 1097.15C960.317 1101.28 937.647 1110.4 935.306 1110.4C932.958 1110.4 870.954 1085.77 870.954 1085.77Z" fill="#EF8871"/>
<path fill-rule="evenodd" clip-rule="evenodd" d="M490.213 1124.98H1037.7C1046.11 1124.98 1052.99 1118.11 1052.99 1109.69C1052.99 1101.28 1046.11 1094.4 1037.7 1094.4H490.213C481.802 1094.4 474.922 1101.29 474.922 1109.69C474.922 1118.1 481.802 1124.98 490.213 1124.98Z" fill="#0C0E0E"/>
<path fill-rule="evenodd" clip-rule="evenodd" d="M804.916 556.918C801.829 573.431 785.949 584.311 769.438 581.227C752.922 578.15 742.036 562.263 745.119 545.749L745.173 545.759C745.702 542.919 748.463 541.031 751.303 541.56L800.674 550.784C803.504 551.31 805.396 554.067 804.866 556.908L804.916 556.918Z" fill="black"/>
<path fill-rule="evenodd" clip-rule="evenodd" d="M789.427 578.111C783.533 581.295 776.54 582.553 769.437 581.228C763.633 580.149 758.528 577.482 754.479 573.762C757.919 568.058 765.488 564.718 773.633 565.927C781.402 567.085 787.466 572.044 789.427 578.111Z" fill="#D64341"/>
<path fill-rule="evenodd" clip-rule="evenodd" d="M752.969 541.873L799.376 550.538C799.143 555.809 795.8 560.548 792.134 561.027C787.681 561.617 754.275 554.474 752.39 551.383C751.484 549.892 752.09 545.752 752.969 541.873Z" fill="white"/>
<path fill-rule="evenodd" clip-rule="evenodd" d="M770.072 523.867C770.072 523.867 764.684 530.714 765.306 534.933C765.936 539.155 771.94 537.983 773.122 534.55C774.297 531.117 773.708 524.177 773.425 523.341C773.142 522.509 771.424 521.916 770.072 523.867Z" fill="#F8CAAE"/>
<path fill-rule="evenodd" clip-rule="evenodd" d="M754.436 483.296C749.901 476.932 742.938 472.3 734.62 470.908C726.305 469.516 718.209 471.624 711.849 476.163C705.485 480.695 700.853 487.665 699.461 495.976C698.069 504.291 700.177 512.387 704.709 518.747C709.248 525.11 716.208 529.742 724.526 531.138C732.841 532.533 740.937 530.418 747.297 525.886C753.66 521.348 758.293 514.385 759.684 506.073C761.08 497.755 758.972 489.659 754.436 483.296ZM861.489 501.234C856.95 494.874 849.987 490.239 841.672 488.847C833.354 487.455 825.259 489.563 818.895 494.098C812.542 498.634 807.903 505.597 806.514 513.915C805.122 522.23 807.227 530.325 811.766 536.686C816.304 543.046 823.267 547.681 831.579 549.073C839.891 550.465 847.989 548.357 854.35 543.825C860.717 539.286 865.352 532.323 866.744 524.005C868.139 515.693 866.025 507.598 861.489 501.234M735.629 464.887C745.609 466.562 753.964 472.12 759.405 479.753C763.421 485.39 765.855 492.16 766.175 499.323C772.881 498.903 788.166 498.863 802.595 505.374C805.236 498.724 809.738 493.132 815.355 489.126C822.988 483.685 832.701 481.154 842.678 482.826C852.658 484.498 861.016 490.059 866.461 497.691C868.995 501.254 870.91 505.27 872.042 509.556L887.753 501.714C889.255 500.965 891.08 501.571 891.829 503.073C892.581 504.574 891.972 506.396 890.47 507.152L873.138 515.806C873.394 518.813 873.277 521.904 872.758 525.014C871.086 534.991 865.529 543.352 857.893 548.793C850.26 554.231 840.55 556.765 830.57 555.097C820.593 553.422 812.239 547.861 806.794 540.229C801.353 532.596 798.819 522.883 800.49 512.909C800.587 512.353 800.693 511.804 800.81 511.258C786.777 504.658 771.672 505.001 765.942 505.43C765.875 505.976 765.795 506.526 765.708 507.075C764.037 517.055 758.472 525.41 750.843 530.855C743.211 536.293 733.494 538.827 723.521 537.155C713.537 535.483 705.182 529.926 699.741 522.29C694.297 514.658 691.769 504.944 693.441 494.967C693.97 491.794 694.893 488.79 696.151 485.993L682.778 472.343C681.603 471.151 681.623 469.226 682.815 468.051C684.014 466.879 685.935 466.895 687.11 468.091L699.242 480.462C701.699 476.835 704.783 473.705 708.303 471.188C715.935 465.75 725.652 463.222 735.629 464.887" fill="black"/>
<path fill-rule="evenodd" clip-rule="evenodd" d="M856.463 392.293C864.525 345.203 826.696 333.269 814.069 378.417C794.655 447.777 761.998 539.505 633.033 490.308L603.02 477.071C635.521 385.386 727.126 288.71 828.588 285.127C859.736 284.031 896.463 334.194 898.917 342.186C901.365 350.182 897.206 376.116 894.422 379.952C894.422 379.952 868.761 403.831 865.947 402.729C863.13 401.627 856.463 392.293 856.463 392.293Z" fill="#0C0E0E"/>
<path fill-rule="evenodd" clip-rule="evenodd" d="M622.352 434.191C630.007 420.205 638.888 406.456 648.802 393.319C693.604 433.615 798.565 404.837 803.061 288.001C807.097 287.242 811.156 286.616 815.242 286.146C802.405 402.976 724.686 475.333 622.352 434.191Z" fill="#252626"/>
<path fill-rule="evenodd" clip-rule="evenodd" d="M809.765 393.236C789.612 459.919 752.985 536.069 633.032 490.305L603.025 477.072C606.149 468.241 609.835 459.37 614.014 450.535C648.81 468.647 744.321 504.248 809.765 393.236Z" fill="black"/>
<path fill-rule="evenodd" clip-rule="evenodd" d="M1027.67 800.611H860.136H667.779H500.253C492.404 800.611 486.953 807.028 488.135 814.87L528.445 1082.6C529.627 1090.44 537.01 1096.85 544.855 1096.85H623.17H904.745H983.06C990.899 1096.85 998.288 1090.44 999.467 1082.6L1039.78 814.87C1040.96 807.028 1035.51 800.611 1027.67 800.611Z" fill="#0C0E0E"/>
<path fill-rule="evenodd" clip-rule="evenodd" d="M814.318 637.025C814.318 637.025 803.435 663.146 799.776 669.766C796.113 676.386 771.86 699.123 771.86 699.123C771.86 699.123 771.101 701.098 771.86 702.163C772.62 703.219 809 733.082 809 733.082C809 733.082 812.024 735.203 814.298 730.505C816.579 725.806 827.791 686.083 828.697 676.079C829.613 666.073 824.148 635.154 824.148 635.154L814.668 629.846L814.318 637.025Z" fill="white"/>
<path fill-rule="evenodd" clip-rule="evenodd" d="M715.637 637.025C715.637 637.025 726.523 663.146 730.186 669.766C733.842 676.386 758.095 699.123 758.095 699.123C758.095 699.123 758.851 701.098 758.095 702.163C757.336 703.219 720.962 733.082 720.962 733.082C720.962 733.082 717.928 735.203 715.654 730.505C713.383 725.806 702.171 686.083 701.262 676.079C700.349 666.073 704.139 640.002 704.139 640.002L715.291 629.846L715.637 637.025Z" fill="white"/>
<path fill-rule="evenodd" clip-rule="evenodd" d="M905.902 383.061C880.185 416.73 893.192 490.457 943.721 495.725C950.055 460.643 928.63 413.221 905.902 383.061Z" fill="#0C0E0E"/>
<path fill-rule="evenodd" clip-rule="evenodd" d="M1015.94 813.268H855.859H672.056H511.98C504.481 813.268 499.276 819.399 500.402 826.894L538.923 1082.71C540.052 1090.2 547.105 1096.33 554.597 1096.33H629.432H898.48H973.315C980.811 1096.33 987.86 1090.2 988.989 1082.71L1027.51 826.894C1028.64 819.399 1023.43 813.268 1015.94 813.268Z" fill="#1C1D1D"/>
<path fill-rule="evenodd" clip-rule="evenodd" d="M529.043 1017.1L538.923 1082.71C540.052 1090.2 547.105 1096.33 554.598 1096.33H629.433H898.477H973.315C980.811 1096.33 987.861 1090.2 988.989 1082.71L1027.51 826.894C1028.41 820.867 1025.23 815.732 1020.06 813.94C962.373 913.457 820.621 1076.45 529.043 1017.1Z" fill="#0C0E0E"/>
<path fill-rule="evenodd" clip-rule="evenodd" d="M763.958 1028.33C794.83 1028.33 820.012 1007.3 820.012 981.536C820.012 955.765 794.83 934.753 763.958 934.753C733.085 934.753 707.904 955.765 707.904 981.536C707.904 1007.3 733.085 1028.33 763.958 1028.33Z" fill="#0C0E0E"/>
<path fill-rule="evenodd" clip-rule="evenodd" d="M798.559 1002.27L778.985 991.506L746.348 1013.92C751.712 1015.95 757.68 1017.09 763.957 1017.09C778.209 1017.09 790.827 1011.25 798.559 1002.27ZM763.957 945.981C779.638 945.981 793.341 953.061 800.727 963.593L735.555 1008.04C726.851 1001.53 721.363 992.075 721.363 981.536C721.363 961.909 740.434 945.981 763.957 945.981" fill="white"/>
<path fill-rule="evenodd" clip-rule="evenodd" d="M599.358 727.179C578.429 730.572 549.971 732.863 512.049 731.828C424.307 729.427 374.29 706.173 379.222 630.905C370.228 669.493 371.713 703.672 395.496 723.939C435.416 752.72 525.512 772.047 588.866 778.947C590.344 771.728 591.876 764.385 593.421 757.096C595.399 746.856 597.407 736.719 599.358 727.179Z" fill="#EBF2F8"/>
<path fill-rule="evenodd" clip-rule="evenodd" d="M328.564 1137.15H1201.53C1212.5 1137.15 1221.47 1146.12 1221.47 1157.09C1221.47 1168.05 1212.5 1177.02 1201.53 1177.02H328.564C317.598 1177.02 308.624 1168.05 308.624 1157.09C308.624 1146.12 317.598 1137.15 328.564 1137.15Z" fill="#0C0E0E"/>
<path fill-rule="evenodd" clip-rule="evenodd" d="M286.119 1106.23H1243.98C1257.97 1106.23 1269.4 1117.67 1269.4 1131.65C1269.4 1145.65 1257.96 1157.09 1243.98 1157.09H286.119C272.136 1157.09 260.691 1145.65 260.691 1131.65C260.691 1117.67 272.136 1106.23 286.119 1106.23Z" fill="#BE865E"/>
<path fill-rule="evenodd" clip-rule="evenodd" d="M866.695 1106.23H919.622V1157.09H866.695V1106.23Z" fill="#915E40"/>
<path fill-rule="evenodd" clip-rule="evenodd" d="M947.104 1106.23H974.593V1157.09H947.104V1106.23Z" fill="#915E40"/>
<path fill-rule="evenodd" clip-rule="evenodd" d="M1003.46 1106.23H1017.2V1157.09H1003.46V1106.23Z" fill="#915E40"/>
<path fill-rule="evenodd" clip-rule="evenodd" d="M1064.28 1106.23H1123.47V1157.09H1064.28V1106.23Z" fill="#915E40"/>
<path fill-rule="evenodd" clip-rule="evenodd" d="M1168.09 1106.23H1197.69V1157.09H1168.09V1106.23Z" fill="#915E40"/>
<path fill-rule="evenodd" clip-rule="evenodd" d="M288.176 1114.49H753.713C762.025 1114.49 768.828 1121.29 768.828 1129.6C768.828 1137.92 762.025 1144.72 753.713 1144.72H288.176C279.868 1144.72 273.064 1137.92 273.064 1129.6C273.064 1121.29 279.868 1114.49 288.176 1114.49Z" fill="#D49D80"/>
<path d="M202.38 556.81C200.14 557.86 196.5 558.56 193 558.56C182.64 558.56 176.55 551.91 176.55 541.55C176.55 530.21 183.48 524.19 193.07 524.19C196.99 524.19 200.07 525.03 202.31 526.01L204.2 519.15C202.45 518.24 198.39 517.05 192.72 517.05C178.3 517.05 167.52 526.43 167.52 541.97C167.52 556.32 176.62 565.7 191.6 565.7C197.27 565.7 201.75 564.65 203.78 563.6L202.38 556.81ZM224.142 527.76V543.58H208.952V549.04H224.142V565H229.882V549.04H245.072V543.58H229.882V527.76H224.142ZM265.842 527.76V543.58H250.652V549.04H265.842V565H271.582V549.04H286.772V543.58H271.582V527.76H265.842Z" fill="#42538A"/>
<path d="M1295.12 707.115C1294.61 707.411 1289.96 699.666 1280.56 686.399C1275.86 679.772 1269.95 671.78 1262.6 662.919C1255.22 654.101 1246.43 644.344 1235.65 634.797C1230.25 630.045 1224.37 625.32 1217.85 621.111C1211.33 616.962 1204.11 613.109 1196.29 611.414C1192.42 610.581 1188.41 610.375 1184.69 611.261C1180.96 612.093 1177.71 614.301 1175.21 617.331C1172.68 620.365 1171.05 624.354 1169.99 628.577C1168.93 632.819 1168.46 637.355 1168.35 641.983C1168.23 651.267 1169.46 660.908 1171.49 670.591C1173.55 680.285 1176.37 690.065 1179.83 699.829C1186.69 719.386 1195.95 738.906 1206.92 758.017C1217.99 777.078 1230.26 794.867 1243.77 810.588C1250.5 818.467 1257.56 825.803 1264.93 832.433C1272.3 839.039 1280.03 844.927 1288.14 849.459C1292.2 851.68 1296.37 853.538 1300.57 854.747C1304.76 855.939 1309.03 856.522 1312.92 855.849C1316.79 855.2 1320.33 853.492 1322.92 850.671C1325.54 847.894 1327.37 844.314 1328.58 840.541C1331.02 832.926 1331.3 824.744 1330.96 817.028C1330.58 809.269 1329.43 801.813 1328.01 794.767C1325.13 780.658 1321.08 768.164 1317.13 757.361C1313.13 746.569 1309.17 737.454 1305.78 730.072C1298.99 715.303 1294.61 707.405 1295.12 707.115C1295.33 706.992 1296.65 708.833 1298.97 712.466C1301.25 716.119 1304.5 721.58 1308.28 728.84C1312.08 736.089 1316.46 745.12 1320.87 755.916C1325.22 766.725 1329.69 779.293 1332.97 793.702C1334.58 800.908 1335.93 808.57 1336.49 816.708C1336.97 824.824 1336.91 833.505 1334.26 842.329C1332.91 846.702 1330.81 851.147 1327.38 854.88C1324.01 858.663 1319.05 861.194 1313.95 862.07C1308.81 862.992 1303.66 862.28 1298.83 860.971C1293.99 859.632 1289.39 857.618 1284.98 855.263C1276.2 850.458 1268.08 844.347 1260.38 837.548C1252.69 830.724 1245.39 823.215 1238.45 815.173C1224.53 799.123 1211.98 781.018 1200.71 761.604C1189.54 742.136 1180.14 722.223 1173.2 702.146C1169.7 692.12 1166.85 682.043 1164.79 671.977C1162.75 661.913 1161.52 651.824 1161.75 641.82C1161.92 636.819 1162.47 631.834 1163.73 626.968C1165.01 622.137 1166.97 617.315 1170.34 613.325C1173.65 609.349 1178.31 606.322 1183.27 605.293C1188.22 604.188 1193.12 604.587 1197.58 605.61C1206.55 607.724 1214.1 612.01 1220.88 616.486C1227.66 621.031 1233.62 626.033 1239.05 631.034C1249.89 641.081 1258.54 651.231 1265.73 660.405C1272.87 669.622 1278.51 677.927 1282.88 684.847C1287.28 691.757 1290.38 697.305 1292.41 701.104C1294.39 704.927 1295.33 706.992 1295.12 707.115Z" fill="#FF4F5B"/>
<path d="M1210.1 706.947C1210.6 707.254 1206.12 714.77 1199.18 728.882C1195.71 735.938 1191.65 744.663 1187.54 755.013C1183.5 765.379 1179.32 777.38 1176.34 790.983C1174.88 797.776 1173.64 804.969 1173.24 812.462C1172.86 819.914 1173.09 827.82 1175.46 835.162C1176.64 838.805 1178.41 842.255 1180.93 844.979C1183.43 847.72 1186.79 849.528 1190.52 850.337C1194.26 851.163 1198.39 850.937 1202.5 850.007C1206.62 849.088 1210.74 847.553 1214.76 845.595C1222.83 841.692 1230.56 836.354 1237.98 830.317C1245.37 824.23 1252.51 817.45 1259.3 810.091C1272.95 795.419 1285.42 778.636 1296.68 760.544C1307.85 742.385 1317.31 723.734 1324.36 704.966C1327.91 695.595 1330.8 686.185 1332.94 676.851C1335.03 667.517 1336.36 658.213 1336.26 649.252C1336.21 644.776 1335.75 640.397 1334.73 636.305C1333.73 632.212 1332.09 628.413 1329.68 625.436C1327.29 622.462 1324.17 620.257 1320.6 619.242C1317.04 618.203 1313.16 618.163 1309.37 618.732C1301.74 619.891 1294.56 623.211 1288.07 626.884C1281.54 630.577 1275.66 634.903 1270.23 639.242C1259.39 647.98 1250.52 657.077 1243.04 665.319C1235.61 673.617 1229.62 681.137 1224.85 687.39C1215.32 699.904 1210.59 707.26 1210.1 706.947C1209.89 706.817 1210.85 704.846 1212.88 701.2C1214.95 697.583 1218.11 692.305 1222.59 685.759C1227.04 679.202 1232.77 671.353 1240.02 662.688C1247.31 654.077 1256.06 644.573 1267.01 635.329C1272.49 630.734 1278.47 626.135 1285.28 622.106C1292.07 618.113 1299.63 614.367 1308.45 612.858C1312.83 612.136 1317.59 612.052 1322.31 613.354C1327.03 614.613 1331.42 617.59 1334.58 621.466C1337.78 625.349 1339.77 629.994 1340.99 634.696C1342.22 639.418 1342.76 644.267 1342.86 649.119C1343.07 658.836 1341.73 668.606 1339.63 678.339C1337.46 688.06 1334.54 697.783 1330.94 707.42C1323.79 726.731 1314.18 745.792 1302.78 764.317C1291.29 782.775 1278.53 799.878 1264.44 814.883C1257.42 822.405 1250.03 829.361 1242.3 835.635C1234.52 841.862 1226.38 847.413 1217.6 851.566C1213.21 853.644 1208.63 855.315 1203.86 856.328C1199.1 857.337 1194.06 857.627 1189.16 856.494C1184.28 855.395 1179.65 852.798 1176.42 849.138C1173.15 845.502 1171.1 841.203 1169.79 836.957C1167.21 828.396 1167.18 819.961 1167.72 812.099C1168.29 804.207 1169.74 796.801 1171.4 789.844C1174.79 775.928 1179.39 763.85 1183.84 753.477C1188.36 743.131 1192.83 734.496 1196.71 727.583C1200.57 720.66 1203.88 715.469 1206.19 711.999C1208.55 708.556 1209.89 706.817 1210.1 706.947Z" fill="#FF4F5B"/>
<path d="M1247.17 675.264C1247.18 675.85 1238.43 676.003 1222.77 677.518C1214.95 678.284 1205.4 679.426 1194.43 681.374C1183.49 683.396 1171.08 686.153 1157.95 690.778C1151.4 693.109 1144.63 695.836 1138.05 699.446C1131.51 703.036 1124.91 707.398 1119.92 713.272C1117.44 716.196 1115.43 719.513 1114.44 723.089C1113.43 726.659 1113.66 730.468 1114.93 734.065C1116.2 737.681 1118.57 741.075 1121.52 744.078C1124.47 747.098 1127.94 749.796 1131.72 752.187C1139.29 756.992 1147.9 760.758 1156.93 763.892C1166 766.975 1175.52 769.473 1185.35 771.381C1205.01 775.267 1225.85 777.042 1247.16 777.095C1268.47 777.042 1289.31 775.27 1308.98 771.384C1318.81 769.476 1328.34 766.979 1337.4 763.895C1346.44 760.761 1355.05 756.992 1362.62 752.187C1366.4 749.796 1369.88 747.095 1372.83 744.078C1375.78 741.071 1378.14 737.678 1379.41 734.062C1380.68 730.465 1380.91 726.656 1379.9 723.083C1378.91 719.509 1376.9 716.189 1374.42 713.269C1369.43 707.392 1362.83 703.033 1356.29 699.443C1349.71 695.833 1342.93 693.106 1336.39 690.775C1323.25 686.153 1310.84 683.396 1299.91 681.374C1288.94 679.423 1279.39 678.284 1271.57 677.518C1255.91 676.003 1247.17 675.85 1247.17 675.264C1247.17 675.017 1249.35 674.798 1253.52 674.604C1257.69 674.461 1263.84 674.378 1271.76 674.734C1279.68 675.077 1289.37 675.82 1300.55 677.418C1311.71 679.09 1324.4 681.534 1338.02 685.973C1344.81 688.221 1351.87 690.885 1358.88 694.554C1365.85 698.234 1373.01 702.69 1378.93 709.393C1381.85 712.74 1384.43 716.742 1385.81 721.438C1387.22 726.113 1387 731.414 1385.36 736.143C1383.75 740.908 1380.84 745.047 1377.48 748.557C1374.11 752.083 1370.28 755.097 1366.21 757.735C1358.05 763.023 1349.04 767.029 1339.66 770.362C1330.25 773.635 1320.45 776.263 1310.35 778.274C1290.17 782.357 1268.91 784.211 1247.16 784.268C1225.41 784.208 1204.15 782.353 1183.98 778.271C1173.89 776.263 1164.09 773.632 1154.68 770.359C1145.3 767.025 1136.29 763.023 1128.14 757.735C1124.07 755.1 1120.23 752.083 1116.86 748.557C1113.5 745.051 1110.6 740.911 1108.98 736.146C1107.35 731.418 1107.13 726.119 1108.54 721.444C1109.91 716.749 1112.49 712.746 1115.41 709.4C1121.33 702.693 1128.49 698.237 1135.46 694.558C1142.47 690.888 1149.53 688.224 1156.32 685.976C1169.94 681.534 1182.62 679.09 1193.79 677.418C1204.97 675.82 1214.66 675.077 1222.58 674.734C1230.5 674.378 1236.66 674.461 1240.82 674.604C1244.99 674.798 1247.17 675.017 1247.17 675.264Z" fill="#FF4F5B"/>
<path d="M1277.06 734.112C1277.06 746.849 1266.73 757.172 1254 757.172C1241.26 757.172 1230.94 746.849 1230.94 734.112C1230.94 721.375 1241.26 711.052 1254 711.052C1266.73 711.052 1277.06 721.375 1277.06 734.112Z" fill="#FF4F5B"/>
<path d="M75.5358 943.303L31.9627 906.437C29.6817 904.509 29.6817 900.989 31.9627 899.061L75.5358 862.194C77.3406 860.666 80.0446 860.892 81.5731 862.697C83.0982 864.505 82.8751 867.206 81.0669 868.734L45.2261 899.061C42.9451 900.989 42.9451 904.509 45.2261 906.437L81.0669 936.763C82.8751 938.291 83.0982 940.995 81.5731 942.8C80.0446 944.605 77.3406 944.832 75.5358 943.303Z" fill="#42538A"/>
<path d="M160.486 942.8L160.482 942.796C158.957 940.992 159.183 938.291 160.988 936.762L196.832 906.439C199.114 904.508 199.114 900.992 196.832 899.06L160.988 868.734C159.183 867.209 158.957 864.505 160.482 862.7L160.486 862.697C162.014 860.892 164.715 860.665 166.523 862.194L210.096 899.06C212.38 900.992 212.38 904.508 210.096 906.439L166.523 943.306C164.715 944.834 162.014 944.608 160.486 942.8Z" fill="#42538A"/>
<path d="M94.916 962.581C92.7182 961.702 91.6493 959.208 92.5284 957.01L138.169 842.864C139.049 840.667 141.543 839.598 143.74 840.477C145.938 841.356 147.007 843.85 146.128 846.048L100.484 960.194C99.6047 962.391 97.1138 963.46 94.916 962.581Z" fill="#42538A"/>
<path d="M339.38 206.81C337.14 207.86 333.5 208.56 330 208.56C319.64 208.56 313.55 201.91 313.55 191.55C313.55 180.21 320.48 174.19 330.07 174.19C333.99 174.19 337.07 175.03 339.31 176.01L341.2 169.15C339.45 168.24 335.39 167.05 329.72 167.05C315.3 167.05 304.52 176.43 304.52 191.97C304.52 206.32 313.62 215.7 328.6 215.7C334.27 215.7 338.75 214.65 340.78 213.6L339.38 206.81ZM346.022 212.76C348.612 214.3 353.792 215.7 358.762 215.7C370.942 215.7 376.682 209.12 376.682 201.56C376.682 194.77 372.692 190.64 364.502 187.56C358.202 185.11 355.472 183.43 355.472 179.79C355.472 177.06 357.852 174.12 363.312 174.12C367.722 174.12 371.012 175.45 372.692 176.36L374.792 169.43C372.342 168.17 368.562 167.05 363.452 167.05C353.232 167.05 346.792 172.93 346.792 180.63C346.792 187.42 351.762 191.55 359.532 194.35C365.552 196.52 367.932 198.62 367.932 202.19C367.932 206.04 364.852 208.63 359.322 208.63C354.912 208.63 350.712 207.23 347.912 205.62L346.022 212.76ZM382.321 212.76C384.911 214.3 390.091 215.7 395.061 215.7C407.241 215.7 412.981 209.12 412.981 201.56C412.981 194.77 408.991 190.64 400.801 187.56C394.501 185.11 391.771 183.43 391.771 179.79C391.771 177.06 394.151 174.12 399.611 174.12C404.021 174.12 407.311 175.45 408.991 176.36L411.091 169.43C408.641 168.17 404.861 167.05 399.751 167.05C389.531 167.05 383.091 172.93 383.091 180.63C383.091 187.42 388.061 191.55 395.831 194.35C401.851 196.52 404.231 198.62 404.231 202.19C404.231 206.04 401.151 208.63 395.621 208.63C391.211 208.63 387.011 207.23 384.211 205.62L382.321 212.76Z" fill="#42538A"/>
</svg>
