<svg width="570" height="364" viewBox="0 0 570 364" fill="none" xmlns="http://www.w3.org/2000/svg">
<path d="M569.254 364H15.2617C15.064 364 14.8743 363.948 14.7345 363.856C14.5947 363.764 14.5161 363.64 14.5161 363.509C14.5161 363.379 14.5947 363.255 14.7345 363.163C14.8743 363.071 15.064 363.019 15.2617 363.019H569.254C569.452 363.019 569.642 363.071 569.782 363.163C569.922 363.255 570 363.379 570 363.509C570 363.64 569.922 363.764 569.782 363.856C569.642 363.948 569.452 364 569.254 364Z" fill="#3F3D56"/>
<path d="M405.168 122.042C405.499 122.375 405.803 122.734 406.077 123.116L448.073 121.629L452.877 112.601L467.419 118.085L460.466 134.899C459.904 136.257 458.918 137.396 457.656 138.145C456.393 138.893 454.922 139.211 453.464 139.051L405.94 133.821C404.836 135.255 403.322 136.317 401.601 136.868C399.879 137.418 398.031 137.43 396.303 136.901C394.574 136.373 393.047 135.33 391.925 133.911C390.802 132.492 390.138 130.764 390.019 128.957C389.901 127.15 390.334 125.349 391.262 123.795C392.189 122.241 393.567 121.007 395.212 120.257C396.856 119.506 398.69 119.276 400.468 119.595C402.247 119.915 403.886 120.77 405.168 122.046V122.042Z" fill="#A0616A"/>
<path d="M487.258 77.28C473.629 77.28 462.581 66.0787 462.581 52.2611C462.581 38.4436 473.629 27.2422 487.258 27.2422C500.887 27.2422 511.936 38.4436 511.936 52.2611C511.936 66.0787 500.887 77.28 487.258 77.28Z" fill="#2F2E41"/>
<path d="M506.781 38.8782C502.807 34.842 502.001 29.116 504.982 26.0889C507.963 23.0617 513.601 23.8797 517.575 27.9159C521.55 31.9521 522.355 37.6781 519.375 40.7052C516.394 43.7323 510.756 42.9143 506.781 38.8782Z" fill="#2F2E41"/>
<path d="M461.951 30.9464C460.295 27.0095 463.142 22.0003 468.311 19.7581C473.48 17.5158 479.012 18.8895 480.668 22.8264C482.324 26.7633 479.476 31.7725 474.308 34.0148C469.139 36.257 463.607 34.8833 461.951 30.9464Z" fill="#2F2E41"/>
<path d="M451.486 119.396L470.606 127.938C471.151 128.181 471.741 128.304 472.336 128.299C472.932 128.293 473.52 128.16 474.06 127.907C474.599 127.654 475.078 127.288 475.463 126.834C475.848 126.38 476.131 125.848 476.292 125.275L481.931 105.188C483.156 102.401 483.226 99.2416 482.125 96.4028C481.024 93.564 478.842 91.2768 476.057 90.0422C473.271 88.8076 470.11 88.7262 467.264 89.8158C464.419 90.9054 462.122 93.0772 460.876 95.8556L449.682 113.387C449.362 113.889 449.154 114.454 449.072 115.044C448.99 115.633 449.036 116.234 449.207 116.804C449.378 117.374 449.671 117.901 450.064 118.348C450.457 118.796 450.942 119.153 451.486 119.396H451.486Z" fill="#CCCCCC"/>
<path d="M539.333 204.571C538.033 204.265 536.815 203.672 535.765 202.834C534.715 201.997 533.858 200.936 533.255 199.726C532.652 198.516 532.317 197.186 532.274 195.83C532.231 194.474 532.482 193.125 533.007 191.878L499.355 114.587L518.606 109.657L545.631 187.182C547.634 188.218 549.192 189.965 550.012 192.092C550.832 194.219 550.856 196.577 550.08 198.721C549.304 200.864 547.781 202.644 545.8 203.722C543.819 204.8 541.518 205.103 539.333 204.571Z" fill="#A0616A"/>
<path d="M547.742 344.434L537.998 348.072L519.677 311.254L534.059 305.884L547.742 344.434Z" fill="#A0616A"/>
<path d="M522.78 363.918L553.548 352.541L549.22 340.468L530.339 347.449C527.186 348.615 524.619 351.005 523.201 354.094C521.783 357.182 521.632 360.716 522.78 363.918L522.78 363.918Z" fill="#2F2E41"/>
<path d="M524.831 322.563C525.426 322.563 526.012 322.428 526.55 322.167L537.68 316.755C538.593 316.315 539.312 315.541 539.696 314.584C540.08 313.627 540.101 312.558 539.755 311.586L508.343 222.289C508.083 221.55 507.624 220.901 507.019 220.419C506.414 219.936 505.688 219.64 504.926 219.564C504.164 219.488 503.396 219.635 502.712 219.989C502.028 220.343 501.456 220.889 501.062 221.563L484.448 249.989C484.078 250.622 483.879 251.345 483.871 252.083C483.864 252.822 484.047 253.549 484.404 254.19L521.3 320.473C521.658 321.109 522.173 321.638 522.792 322.005C523.412 322.371 524.116 322.564 524.831 322.563Z" fill="#2F2E41"/>
<path d="M486.774 79.2423C475.016 79.2423 465.484 69.798 465.484 58.1479C465.484 46.4978 475.016 37.0536 486.774 37.0536C498.533 37.0536 508.065 46.4978 508.065 58.1479C508.065 69.798 498.533 79.2423 486.774 79.2423Z" fill="#A0616A"/>
<path d="M457.144 154.789L493.957 144.433L513.536 104.377C514.477 102.452 514.921 100.314 514.826 98.1646C514.732 96.0153 514.102 93.9263 512.996 92.0962C511.89 90.266 510.345 88.7554 508.508 87.7077C506.671 86.66 504.603 86.1101 502.5 86.1102H473.212C470.171 86.1082 467.238 87.2559 464.975 89.3326C457.118 96.5324 440.612 117.289 456.985 154.427L457.144 154.789Z" fill="#CCCCCC"/>
<path d="M503.323 127.908L522.146 119.04C522.681 118.788 523.157 118.422 523.539 117.969C523.922 117.515 524.202 116.983 524.363 116.41C524.523 115.837 524.558 115.236 524.467 114.648C524.375 114.06 524.159 113.499 523.832 113.003L512.393 95.6146C511.094 92.8658 508.765 90.7474 505.917 89.7237C503.069 88.6999 499.933 88.8542 497.198 90.1527C494.463 91.4513 492.35 93.7882 491.324 96.6515C490.297 99.5147 490.44 102.671 491.721 105.428L497.636 125.345C497.806 125.915 498.095 126.441 498.485 126.889C498.875 127.336 499.357 127.694 499.896 127.937C500.436 128.18 501.021 128.304 501.613 128.299C502.204 128.294 502.787 128.161 503.323 127.908H503.323Z" fill="#CCCCCC"/>
<path d="M480.966 353.959H470.475L465.484 313.733L480.968 313.734L480.966 353.959Z" fill="#A0616A"/>
<path d="M450.374 363.917L483.118 363.918L483.119 351.07L463.026 351.069C459.67 351.069 456.452 352.422 454.08 354.832C451.707 357.241 450.374 360.509 450.374 363.917Z" fill="#2F2E41"/>
<path d="M476.981 338.261C477.926 338.263 478.842 337.937 479.575 337.339C480.308 336.741 480.813 335.907 481.005 334.978C484.024 320.687 499.702 247.488 511.938 209.783C524.388 171.422 503.185 153.949 498.808 150.836C498.342 150.505 497.972 150.055 497.735 149.534L494.555 142.505C494.226 141.78 493.695 141.165 493.028 140.733C492.36 140.302 491.583 140.073 490.789 140.072H490.763C466.925 140.216 458.911 147.766 456.573 151.006C456.228 151.488 455.991 152.04 455.88 152.624C455.768 153.207 455.784 153.808 455.927 154.385L471.01 216.91C471.103 217.297 471.124 217.699 471.072 218.094L456.066 331.619C455.994 332.165 456.031 332.72 456.174 333.251C456.318 333.782 456.565 334.28 456.902 334.714C457.238 335.148 457.658 335.51 458.135 335.78C458.613 336.05 459.139 336.221 459.683 336.284L476.497 338.233C476.658 338.252 476.82 338.261 476.981 338.261Z" fill="#2F2E41"/>
<path d="M509.032 45.4541C504.269 48.7906 498.615 50.5662 492.83 50.5427C494.894 51.9969 497.243 52.9791 499.716 53.4218C492.025 55.0985 484.075 55.1439 476.365 53.5551C474.652 53.2758 472.998 52.6987 471.477 51.8489C470.719 51.4187 470.059 50.8313 469.539 50.1247C469.019 49.4182 468.652 48.6084 468.46 47.7479C467.948 44.7736 470.228 42.0713 472.598 40.2501C476.227 37.5043 480.41 35.6125 484.847 34.7116C489.283 33.8107 493.861 33.9231 498.249 35.0409C501.115 35.7936 503.985 37.0654 505.846 39.404C507.707 41.7426 508.259 45.3479 506.486 47.7561L509.032 45.4541Z" fill="#2F2E41"/>
<path d="M392.903 79.9717H391.08V29.3174C391.08 25.4674 390.332 21.6551 388.879 18.0981C387.426 14.5412 385.296 11.3092 382.611 8.58687C379.927 5.8645 376.739 3.705 373.232 2.23166C369.724 0.758322 365.964 3.74065e-06 362.167 0H256.332C248.664 -1.51089e-05 241.31 3.08875 235.888 8.58681C230.465 14.0849 227.419 21.5418 227.419 29.3173V307.211C227.419 314.986 230.465 322.443 235.888 327.941C241.31 333.44 248.664 336.528 256.332 336.528H362.167C369.835 336.528 377.189 333.44 382.611 327.942C388.033 322.443 391.08 314.987 391.08 307.211V116.028H392.903V79.9717Z" fill="#3F3D56"/>
<path d="M363.641 7.84908H349.872C350.505 9.43113 350.747 11.1476 350.576 12.8473C350.405 14.5469 349.826 16.1777 348.891 17.5958C347.956 19.0139 346.693 20.1758 345.213 20.9793C343.734 21.7828 342.083 22.2031 340.406 22.2032H279.975C278.299 22.2031 276.648 21.7828 275.168 20.9793C273.689 20.1759 272.426 19.0139 271.49 17.5958C270.555 16.1777 269.977 14.547 269.806 12.8473C269.634 11.1476 269.876 9.43112 270.509 7.84906H257.649C251.941 7.84906 246.468 10.1596 242.432 14.2723C238.396 18.3851 236.129 23.9632 236.129 29.7795V307.73C236.129 313.546 238.396 319.124 242.432 323.237C246.468 327.35 251.941 329.66 257.649 329.66H363.641C369.349 329.66 374.822 327.35 378.858 323.237C382.894 319.124 385.161 313.546 385.161 307.73V29.7796C385.161 26.8996 384.605 24.0478 383.523 21.3871C382.442 18.7264 380.857 16.3088 378.858 14.2724C376.86 12.2359 374.488 10.6205 371.877 9.51842C369.266 8.41632 366.467 7.84907 363.641 7.84908Z" fill="white"/>
<path d="M310.645 170.717C298.013 170.717 285.664 166.919 275.16 159.804C264.657 152.688 256.47 142.575 251.636 130.743C246.802 118.91 245.537 105.89 248.001 93.3292C250.466 80.768 256.549 69.2299 265.482 60.1737C274.414 51.1176 285.795 44.9504 298.185 42.4518C310.574 39.9532 323.417 41.2356 335.088 46.1368C346.758 51.0379 356.734 59.3377 363.752 69.9866C370.77 80.6355 374.516 93.1551 374.516 105.962C374.497 123.13 367.762 139.59 355.788 151.729C343.814 163.869 327.579 170.698 310.645 170.717ZM310.645 42.3496C298.235 42.3496 286.104 46.0804 275.786 53.0703C265.468 60.0601 257.426 69.995 252.677 81.6187C247.928 93.2424 246.685 106.033 249.106 118.372C251.527 130.712 257.503 142.047 266.278 150.943C275.053 159.84 286.233 165.898 298.404 168.353C310.575 170.807 323.191 169.547 334.656 164.733C346.121 159.918 355.921 151.765 362.815 141.304C369.71 130.843 373.39 118.544 373.39 105.962C373.371 89.0971 366.754 72.928 354.992 61.0024C343.229 49.0768 327.28 42.3687 310.645 42.3496Z" fill="#3F3D56"/>
<path d="M303.248 111.351C301.048 104.597 293.195 100.464 286.63 102.606C280.953 104.458 277.092 110.726 277.4 116.811C275.502 109.379 268.198 103.566 260.707 104.111C252.288 104.723 245.18 113.25 245.824 121.964C245.528 119.678 244.487 117.565 242.874 115.974C241.261 114.384 239.173 113.41 236.953 113.215C234.734 113.019 232.517 113.613 230.668 114.899C228.819 116.185 227.448 118.086 226.783 120.287L226.786 120.126C225.446 119.346 223.632 120.712 223.552 122.302C223.472 123.891 224.677 125.307 226.089 125.933C227.501 126.56 229.088 126.568 230.624 126.566C249.8 126.54 268.975 126.515 288.151 126.489C292.605 126.483 297.515 126.302 300.79 123.175C303.816 120.284 304.564 115.391 303.248 111.351Z" fill="#E4E4E4"/>
<path d="M349.032 141.809C348.401 140.203 347.168 138.882 345.575 138.105C343.982 137.328 342.145 137.15 340.422 137.607C337.481 138.497 335.481 141.508 335.641 144.432C334.657 140.861 330.873 138.068 326.992 138.33C322.63 138.624 318.947 142.721 319.281 146.908C319.127 145.81 318.588 144.794 317.753 144.03C316.917 143.266 315.835 142.798 314.685 142.704C313.535 142.61 312.386 142.896 311.428 143.514C310.47 144.131 309.761 145.045 309.416 146.102L309.417 146.025C308.723 145.65 307.784 146.307 307.742 147.07C307.756 147.453 307.889 147.824 308.123 148.134C308.357 148.445 308.682 148.682 309.056 148.815C309.81 149.068 310.609 149.171 311.406 149.119C321.341 149.107 331.276 149.094 341.21 149.082C343.518 149.079 346.062 148.992 347.759 147.49C349.327 146.101 349.714 143.75 349.032 141.809Z" fill="#E4E4E4"/>
<path d="M383.571 76.6385C381.371 70.1548 373.517 66.1874 366.953 68.2433C361.276 70.0211 357.415 76.0389 357.723 81.8806C355.825 74.7456 348.52 69.1656 341.029 69.6884C332.611 70.2761 325.503 78.4619 326.147 86.8277C325.85 84.633 324.81 82.6046 323.197 81.0773C321.584 79.5501 319.495 78.6155 317.276 78.4279C315.057 78.2402 312.839 78.8108 310.99 80.0453C309.141 81.2798 307.771 83.1044 307.106 85.2178L307.108 85.0628C305.769 84.3145 303.955 85.6259 303.875 87.1515C303.795 88.6771 304.999 90.0362 306.412 90.6378C307.824 91.2395 309.41 91.2471 310.947 91.2451C330.122 91.2206 349.298 91.196 368.474 91.1715C372.928 91.1658 377.838 90.992 381.113 87.9896C384.139 85.2144 384.887 80.5169 383.571 76.6385Z" fill="#E4E4E4"/>
<path d="M341.216 111.665L345.484 107.976C342.168 107.581 340.806 109.535 340.249 111.082C337.658 109.919 334.839 111.442 334.839 111.442L343.378 114.792C342.947 113.549 342.197 112.464 341.216 111.665Z" fill="#3F3D56"/>
<path d="M286.055 145.023L290.323 141.335C287.007 140.939 285.645 142.893 285.087 144.44C282.497 143.278 279.677 144.801 279.677 144.801L288.217 148.151C287.786 146.908 287.036 145.823 286.055 145.023Z" fill="#3F3D56"/>
<path d="M313.064 102.038C325.09 102.038 334.839 91.9346 334.839 79.4717C334.839 67.0088 325.09 56.9057 313.064 56.9057C301.039 56.9057 291.29 67.0088 291.29 79.4717C291.29 91.9346 301.039 102.038 313.064 102.038Z" fill="#FF9365"/>
<path d="M277.345 87.1366L281.613 83.4479C278.297 83.0526 276.935 85.0066 276.378 86.5532C273.787 85.391 270.968 86.9142 270.968 86.9142L279.507 90.2642C279.076 89.0208 278.326 87.9358 277.345 87.1366Z" fill="#3F3D56"/>
<path d="M122.812 272.696C122.812 252.029 139.332 202.987 159.71 202.987C180.088 202.987 196.608 252.029 196.608 272.696C196.6 282.622 192.71 292.14 185.791 299.156C178.872 306.172 169.491 310.114 159.71 310.114C149.929 310.114 140.548 306.172 133.629 299.156C126.71 292.14 122.82 282.622 122.812 272.696Z" fill="#F2F2F2"/>
<path d="M159.71 363.736C159.67 363.736 159.631 363.728 159.594 363.713C159.557 363.698 159.523 363.675 159.495 363.646C159.467 363.618 159.445 363.584 159.43 363.546C159.414 363.509 159.406 363.469 159.406 363.429V234.414C159.407 234.333 159.439 234.255 159.496 234.197C159.553 234.14 159.63 234.107 159.71 234.107C159.79 234.107 159.867 234.14 159.924 234.197C159.981 234.255 160.013 234.333 160.013 234.414V363.429C160.013 363.469 160.005 363.509 159.99 363.546C159.975 363.584 159.952 363.618 159.924 363.646C159.896 363.675 159.863 363.698 159.826 363.713C159.789 363.728 159.75 363.736 159.71 363.736Z" fill="#3F3D56"/>
<path d="M159.71 259.321C159.67 259.321 159.631 259.313 159.594 259.298C159.557 259.282 159.523 259.26 159.495 259.231L144.891 244.42C144.835 244.362 144.803 244.284 144.803 244.202C144.803 244.121 144.835 244.043 144.892 243.985C144.949 243.927 145.026 243.895 145.106 243.895C145.186 243.895 145.263 243.927 145.32 243.985L159.924 258.796C159.967 258.839 159.996 258.894 160.007 258.954C160.019 259.013 160.013 259.075 159.99 259.131C159.967 259.188 159.928 259.236 159.878 259.269C159.828 259.303 159.77 259.321 159.71 259.321Z" fill="#3F3D56"/>
<path d="M159.71 284.962C159.65 284.962 159.591 284.944 159.541 284.91C159.491 284.876 159.453 284.828 159.43 284.772C159.407 284.716 159.401 284.654 159.412 284.594C159.424 284.535 159.453 284.48 159.495 284.437L183.952 259.633C184.009 259.575 184.086 259.543 184.167 259.543C184.247 259.543 184.324 259.575 184.381 259.633C184.438 259.691 184.47 259.769 184.47 259.85C184.47 259.932 184.438 260.01 184.382 260.068L159.924 284.872C159.896 284.901 159.863 284.923 159.826 284.939C159.789 284.954 159.75 284.962 159.71 284.962Z" fill="#3F3D56"/>
<path d="M60.0271 250.845C60.0271 225.217 80.5118 164.405 105.781 164.405C131.05 164.405 151.535 225.217 151.535 250.845C151.525 263.154 146.701 274.955 138.121 283.656C129.542 292.356 117.91 297.243 105.781 297.243C93.6522 297.243 82.0198 292.356 73.4403 283.656C64.8608 274.955 60.0363 263.154 60.0271 250.845Z" fill="#E6E6E6"/>
<path d="M105.781 363.736C105.731 363.736 105.682 363.727 105.637 363.707C105.591 363.688 105.55 363.66 105.515 363.625C105.48 363.589 105.452 363.547 105.433 363.501C105.414 363.455 105.405 363.405 105.405 363.355V203.375C105.405 203.274 105.445 203.177 105.515 203.105C105.586 203.034 105.681 202.994 105.781 202.994C105.88 202.994 105.976 203.034 106.046 203.105C106.117 203.177 106.157 203.274 106.157 203.375V363.355C106.157 363.405 106.147 363.455 106.128 363.501C106.109 363.547 106.082 363.589 106.047 363.625C106.012 363.66 105.97 363.688 105.925 363.707C105.879 363.727 105.83 363.736 105.781 363.736Z" fill="#3F3D56"/>
<path d="M105.781 234.26C105.731 234.26 105.682 234.25 105.637 234.231C105.591 234.212 105.55 234.184 105.515 234.148L87.4055 215.782C87.3705 215.747 87.3429 215.705 87.324 215.658C87.3051 215.612 87.2954 215.562 87.2954 215.512C87.2955 215.411 87.3351 215.314 87.4057 215.242C87.4762 215.171 87.5719 215.131 87.6717 215.131C87.7714 215.131 87.8671 215.171 87.9376 215.243L106.047 233.609C106.099 233.662 106.135 233.73 106.15 233.804C106.164 233.878 106.157 233.955 106.128 234.024C106.1 234.094 106.052 234.154 105.99 234.196C105.928 234.238 105.855 234.26 105.781 234.26H105.781Z" fill="#3F3D56"/>
<path d="M105.781 266.055C105.706 266.055 105.634 266.033 105.572 265.991C105.51 265.949 105.462 265.889 105.433 265.819C105.405 265.75 105.397 265.673 105.412 265.599C105.426 265.525 105.462 265.457 105.515 265.404L135.842 234.646C135.912 234.575 136.008 234.534 136.108 234.534C136.208 234.534 136.303 234.575 136.374 234.646C136.444 234.718 136.484 234.815 136.484 234.916C136.484 235.017 136.444 235.114 136.374 235.186L106.047 265.943C106.012 265.979 105.97 266.007 105.925 266.026C105.879 266.045 105.83 266.055 105.781 266.055Z" fill="#3F3D56"/>
<path d="M0 206.632C0 170.968 28.4879 86.3396 63.6295 86.3396C98.7711 86.3396 127.259 170.968 127.259 206.632C127.259 223.759 120.555 240.184 108.622 252.294C96.6895 264.404 80.5051 271.207 63.6295 271.207C46.7539 271.207 30.5695 264.404 18.6366 252.294C6.7038 240.184 2.51466e-07 223.759 0 206.632Z" fill="#00BFA6"/>
<path d="M63.6294 363.736C63.4906 363.736 63.3576 363.68 63.2595 363.581C63.1613 363.481 63.1062 363.346 63.1062 363.205V140.571C63.1062 140.43 63.1613 140.295 63.2595 140.196C63.3576 140.096 63.4906 140.04 63.6294 140.04C63.7682 140.04 63.9013 140.096 63.9994 140.196C64.0975 140.295 64.1526 140.43 64.1526 140.571V363.205C64.1526 363.346 64.0975 363.481 63.9994 363.581C63.9013 363.68 63.7682 363.736 63.6294 363.736Z" fill="#3F3D56"/>
<path d="M63.6294 183.552C63.5607 183.552 63.4926 183.539 63.4291 183.512C63.3656 183.485 63.308 183.446 63.2594 183.397L38.075 157.838C37.978 157.738 37.9238 157.604 37.9243 157.463C37.9248 157.323 37.9799 157.189 38.0776 157.09C38.1753 156.991 38.3076 156.935 38.4458 156.934C38.5839 156.934 38.7166 156.989 38.815 157.087L63.9994 182.646C64.0726 182.72 64.1224 182.815 64.1426 182.918C64.1627 183.021 64.1524 183.128 64.1128 183.225C64.0732 183.322 64.0061 183.404 63.9201 183.463C63.8341 183.521 63.7329 183.552 63.6294 183.552V183.552Z" fill="#3F3D56"/>
<path d="M63.6295 227.8C63.526 227.8 63.4249 227.768 63.3388 227.71C63.2528 227.652 63.1858 227.569 63.1461 227.472C63.1065 227.375 63.0962 227.268 63.1164 227.165C63.1365 227.062 63.1864 226.967 63.2595 226.893L105.435 184.09C105.484 184.04 105.542 184.001 105.605 183.974C105.669 183.946 105.737 183.932 105.806 183.932C105.875 183.932 105.943 183.946 106.007 183.972C106.071 183.999 106.129 184.038 106.178 184.088C106.226 184.137 106.265 184.196 106.291 184.261C106.318 184.325 106.331 184.395 106.331 184.465C106.331 184.535 106.317 184.604 106.29 184.669C106.264 184.733 106.224 184.792 106.175 184.841L63.9995 227.644C63.951 227.693 63.8933 227.733 63.8298 227.759C63.7663 227.786 63.6982 227.8 63.6295 227.8Z" fill="#3F3D56"/>
<path d="M257.379 209.962H363.905C366.636 209.962 369.28 210.926 371.368 212.682C373.456 214.438 374.855 216.874 375.317 219.56C375.779 222.245 375.274 225.007 373.892 227.357C372.51 229.707 370.34 231.494 367.765 232.403V240.377L360.431 233.062H257.379C254.309 233.061 251.366 231.843 249.196 229.677C247.025 227.511 245.806 224.574 245.806 221.512C245.806 218.45 247.025 215.513 249.196 213.347C251.366 211.182 254.309 209.964 257.379 209.962Z" fill="#00BFA6"/>
<path d="M262.058 218.792H355.361C355.565 218.792 355.76 218.741 355.904 218.649C356.048 218.557 356.129 218.432 356.129 218.302C356.129 218.172 356.048 218.047 355.904 217.955C355.76 217.863 355.565 217.811 355.361 217.811H262.058C261.855 217.811 261.659 217.863 261.515 217.955C261.371 218.047 261.29 218.172 261.29 218.302C261.29 218.432 261.371 218.557 261.515 218.649C261.659 218.741 261.855 218.792 262.058 218.792Z" fill="white"/>
<path d="M262.058 224.679H355.361C355.565 224.679 355.76 224.628 355.904 224.536C356.048 224.444 356.129 224.319 356.129 224.189C356.129 224.059 356.048 223.934 355.904 223.842C355.76 223.75 355.565 223.698 355.361 223.698H262.058C261.855 223.698 261.659 223.75 261.515 223.842C261.371 223.934 261.29 224.059 261.29 224.189C261.29 224.319 261.371 224.444 261.515 224.536C261.659 224.628 261.855 224.679 262.058 224.679Z" fill="white"/>
<path d="M331.646 270.792H257.714C255.818 270.793 253.983 271.476 252.534 272.723C251.085 273.969 250.114 275.698 249.793 277.603C249.473 279.509 249.823 281.469 250.782 283.137C251.741 284.805 253.248 286.073 255.035 286.718V292.377L260.124 287.186H331.646C333.776 287.185 335.819 286.321 337.325 284.784C338.831 283.247 339.677 281.162 339.677 278.989C339.677 276.816 338.831 274.732 337.325 273.195C335.819 271.658 333.776 270.794 331.646 270.792Z" fill="#00BFA6"/>
<path d="M328.499 281.585H263.759C263.617 281.585 263.482 281.533 263.382 281.441C263.282 281.349 263.226 281.224 263.226 281.094C263.226 280.964 263.282 280.839 263.382 280.747C263.482 280.655 263.617 280.604 263.759 280.604H328.499C328.641 280.604 328.776 280.655 328.876 280.747C328.976 280.839 329.032 280.964 329.032 281.094C329.032 281.224 328.976 281.349 328.876 281.441C328.776 281.533 328.641 281.585 328.499 281.585Z" fill="white"/>
</svg>
