<svg width="607" height="367" viewBox="0 0 607 367" fill="none" xmlns="http://www.w3.org/2000/svg">
<g clip-path="url(#clip0_1_388)">
<path d="M50.5419 79.6224C67.781 79.6224 81.756 65.6463 81.756 48.4058C81.756 31.1654 67.781 17.1892 50.5419 17.1892C33.3028 17.1892 19.3278 31.1654 19.3278 48.4058C19.3278 65.6463 33.3028 79.6224 50.5419 79.6224Z" fill="#FF9365"/>
<path d="M77.0765 201.7C119.425 201.7 153.755 167.367 153.755 125.015C153.755 82.6637 119.425 48.331 77.0765 48.331C34.7283 48.331 0.398315 82.6637 0.398315 125.015C0.398315 167.367 34.7283 201.7 77.0765 201.7Z" fill="#00BFA6"/>
<path d="M84.4674 355.992H68.762L75.9215 113.466L84.4674 355.992Z" fill="#3F3D56"/>
<path d="M77.3072 159.431L94.1676 136.102L77.0765 165.205L75.2288 161.971L77.3072 159.431Z" fill="#3F3D56"/>
<path d="M75.4594 182.99L58.5997 159.662L75.6908 188.765L77.5386 185.531L75.4594 182.99Z" fill="#3F3D56"/>
<path d="M561.917 356.247H546.212L553.372 113.721L561.917 356.247Z" fill="#3F3D56"/>
<path d="M554.757 159.686L571.618 136.357L554.526 165.46L552.679 162.227L554.757 159.686Z" fill="#3F3D56"/>
<path d="M552.909 183.246L536.05 159.917L553.141 189.02L554.988 185.786L552.909 183.246Z" fill="#3F3D56"/>
<path d="M311.899 356.206C390.788 356.206 454.74 292.249 454.74 213.354C454.74 134.459 390.788 70.5018 311.899 70.5018C233.01 70.5018 169.058 134.459 169.058 213.354C169.058 292.249 233.01 356.206 311.899 356.206Z" fill="#3F3D56"/>
<path d="M311.899 344.381C384.257 344.381 442.915 285.718 442.915 213.354C442.915 140.99 384.257 82.3273 311.899 82.3273C239.54 82.3273 180.882 140.99 180.882 213.354C180.882 285.718 239.54 344.381 311.899 344.381Z" fill="white"/>
<path d="M311.426 231.329C321.091 231.329 328.926 223.493 328.926 213.827C328.926 204.161 321.091 196.325 311.426 196.325C301.761 196.325 293.925 204.161 293.925 213.827C293.925 223.493 301.761 231.329 311.426 231.329Z" fill="#3F3D56"/>
<path d="M315.21 88.9496H307.642V103.14H315.21V88.9496Z" fill="#3F3D56"/>
<path d="M315.21 324.514H307.642V338.705H315.21V324.514Z" fill="#3F3D56"/>
<path d="M200.748 217.611V210.043H186.558V217.611H200.748Z" fill="#3F3D56"/>
<path d="M306.381 221.425L312.848 206.636L393.886 251.521L306.381 221.425Z" fill="#3F3D56"/>
<path d="M330.345 35.9713H293.452V78.5431H330.345V35.9713Z" fill="#3F3D56"/>
<path d="M311.899 47.7968C335.409 47.7968 354.467 42.5023 354.467 35.9713C354.467 29.4402 335.409 24.1458 311.899 24.1458C288.389 24.1458 269.33 29.4402 269.33 35.9713C269.33 42.5023 288.389 47.7968 311.899 47.7968Z" fill="#3F3D56"/>
<path d="M603.048 28.6047C602.642 21.4309 599.702 14.6344 594.752 9.42687C589.801 4.21935 583.163 0.939339 576.019 0.171643C568.876 -0.596052 561.692 1.19847 555.748 5.23526C549.804 9.27205 545.487 15.2887 543.567 22.2125C543.2 22.1993 542.833 22.1846 542.462 22.1846C535.912 22.1858 529.539 24.3078 524.296 28.2332C519.052 32.1585 515.221 37.6763 513.374 43.9608C509.034 42.0537 504.184 41.6399 499.584 42.7843C494.983 43.9287 490.892 46.5667 487.951 50.285H582.518C585.277 50.2928 588.009 49.7438 590.551 48.6708C593.092 47.5979 595.392 46.023 597.31 44.0406C599.229 42.0581 600.728 39.7088 601.718 37.1334C602.707 34.5579 603.167 31.8092 603.069 29.0519C603.063 28.9031 603.056 28.754 603.048 28.6047Z" fill="#E6E6E6"/>
<path d="M523.991 92.4134C528.488 92.4134 532.134 88.7674 532.134 84.2699C532.134 79.7724 528.488 76.1264 523.991 76.1264C519.494 76.1264 515.848 79.7724 515.848 84.2699C515.848 88.7674 519.494 92.4134 523.991 92.4134Z" fill="#E6E6E6"/>
<path d="M548.577 71.8507C552.322 71.8507 555.358 68.8149 555.358 65.0701C555.358 61.3252 552.322 58.2894 548.577 58.2894C544.833 58.2894 541.797 61.3252 541.797 65.0701C541.797 68.8149 544.833 71.8507 548.577 71.8507Z" fill="#E6E6E6"/>
<path d="M581.669 110.058C586.166 110.058 589.812 106.412 589.812 101.914C589.812 97.4166 586.166 93.7706 581.669 93.7706C577.172 93.7706 573.526 97.4166 573.526 101.914C573.526 106.412 577.172 110.058 581.669 110.058Z" fill="#E6E6E6"/>
<path d="M519.919 147.382C524.417 147.382 528.062 143.736 528.062 139.238C528.062 134.741 524.417 131.095 519.919 131.095C515.422 131.095 511.777 134.741 511.777 139.238C511.777 143.736 515.422 147.382 519.919 147.382Z" fill="#E6E6E6"/>
<path d="M581.669 194.207C586.166 194.207 589.812 190.561 589.812 186.063C589.812 181.566 586.166 177.92 581.669 177.92C577.172 177.92 573.526 181.566 573.526 186.063C573.526 190.561 577.172 194.207 581.669 194.207Z" fill="#E6E6E6"/>
<path d="M568.763 343.088C568.766 343 568.776 342.914 568.776 342.825C568.778 341.46 568.437 340.117 567.784 338.919C567.13 337.721 566.186 336.707 565.038 335.97C563.89 335.233 562.575 334.796 561.213 334.701C559.852 334.606 558.489 334.855 557.249 335.425C556.086 334.082 554.514 333.158 552.775 332.794C551.036 332.43 549.226 332.646 547.622 333.409C546.018 334.173 544.708 335.442 543.894 337.021C543.08 338.6 542.806 340.403 543.114 342.152C543.072 342.152 543.032 342.146 542.991 342.146C541.694 342.144 540.416 342.452 539.263 343.043C538.109 343.635 537.114 344.493 536.359 345.547C535.604 346.601 535.111 347.82 534.922 349.102C534.733 350.385 534.853 351.694 535.272 352.921C535.691 354.148 536.396 355.257 537.33 356.156C538.264 357.055 539.399 357.718 540.641 358.09C541.882 358.463 543.195 358.533 544.469 358.295C545.744 358.058 546.943 357.52 547.968 356.725C548.614 357.984 549.577 359.053 550.763 359.826C551.949 360.6 553.315 361.05 554.728 361.133C556.141 361.217 557.552 360.93 558.82 360.302C560.088 359.674 561.171 358.726 561.961 357.551C562.93 358.256 564.042 358.738 565.219 358.963C566.396 359.188 567.608 359.151 568.769 358.853C569.929 358.555 571.01 358.005 571.933 357.241C572.857 356.477 573.6 355.519 574.11 354.435C574.62 353.35 574.884 352.167 574.883 350.968C574.883 349.77 574.618 348.587 574.107 347.503C573.596 346.419 572.852 345.461 571.929 344.698C571.005 343.935 569.924 343.385 568.763 343.088Z" fill="#E6E6E6"/>
<path d="M589.133 156.882C591.007 156.882 592.526 155.363 592.526 153.489C592.526 151.615 591.007 150.096 589.133 150.096C587.26 150.096 585.74 151.615 585.74 153.489C585.74 155.363 587.26 156.882 589.133 156.882Z" fill="#E6E6E6"/>
<path d="M567.419 75.4478C569.293 75.4478 570.812 73.9287 570.812 72.0547C570.812 70.1807 569.293 68.6616 567.419 68.6616C565.545 68.6616 564.026 70.1807 564.026 72.0547C564.026 73.9287 565.545 75.4478 567.419 75.4478Z" fill="#E6E6E6"/>
<path d="M555.883 159.597C557.757 159.597 559.276 158.078 559.276 156.204C559.276 154.33 557.757 152.811 555.883 152.811C554.01 152.811 552.491 154.33 552.491 156.204C552.491 158.078 554.01 159.597 555.883 159.597Z" fill="#E6E6E6"/>
<path d="M558.598 156.204C560.472 156.204 561.991 154.685 561.991 152.811C561.991 150.937 560.472 149.418 558.598 149.418C556.724 149.418 555.205 150.937 555.205 152.811C555.205 154.685 556.724 156.204 558.598 156.204Z" fill="#E6E6E6"/>
<path d="M560.634 152.811C562.507 152.811 564.026 151.292 564.026 149.418C564.026 147.544 562.507 146.024 560.634 146.024C558.76 146.024 557.241 147.544 557.241 149.418C557.241 151.292 558.76 152.811 560.634 152.811Z" fill="#E6E6E6"/>
<path d="M552.491 181.313C554.364 181.313 555.883 179.794 555.883 177.92C555.883 176.046 554.364 174.527 552.491 174.527C550.617 174.527 549.098 176.046 549.098 177.92C549.098 179.794 550.617 181.313 552.491 181.313Z" fill="#E6E6E6"/>
<path d="M602.705 219.316C604.578 219.316 606.098 217.796 606.098 215.923C606.098 214.049 604.578 212.529 602.705 212.529C600.831 212.529 599.312 214.049 599.312 215.923C599.312 217.796 600.831 219.316 602.705 219.316Z" fill="#E6E6E6"/>
<path d="M530.098 221.351C531.972 221.351 533.491 219.832 533.491 217.958C533.491 216.084 531.972 214.565 530.098 214.565C528.224 214.565 526.705 216.084 526.705 217.958C526.705 219.832 528.224 221.351 530.098 221.351Z" fill="#E6E6E6"/>
<path d="M534.169 116.844C536.043 116.844 537.562 115.325 537.562 113.451C537.562 111.577 536.043 110.058 534.169 110.058C532.296 110.058 530.776 111.577 530.776 113.451C530.776 115.325 532.296 116.844 534.169 116.844Z" fill="#E6E6E6"/>
<path d="M549.776 177.92C551.65 177.92 553.169 176.401 553.169 174.527C553.169 172.653 551.65 171.133 549.776 171.133C547.903 171.133 546.384 172.653 546.384 174.527C546.384 176.401 547.903 177.92 549.776 177.92Z" fill="#E6E6E6"/>
<path d="M546.384 172.491C548.257 172.491 549.776 170.972 549.776 169.098C549.776 167.224 548.257 165.704 546.384 165.704C544.51 165.704 542.991 167.224 542.991 169.098C542.991 170.972 544.51 172.491 546.384 172.491Z" fill="#E6E6E6"/>
<path d="M517.71 321.178C516.121 308.081 508.205 295.177 496.022 290.915C500.827 304.395 500.826 319.183 496.019 332.663C494.148 337.854 491.538 343.429 493.299 348.661C494.395 351.917 497.075 354.408 500.071 355.965C503.067 357.523 506.392 358.265 509.675 358.993L510.321 359.541C515.533 347.473 519.298 334.275 517.71 321.178Z" fill="#C1E8BE"/>
<path d="M508.082 317.759C510.197 317.296 512.061 316.171 513.34 314.585C514.62 312.999 515.232 311.054 515.067 309.099C515.032 308.703 514.348 308.734 514.383 309.13C514.541 310.95 513.97 312.761 512.775 314.236C511.58 315.711 509.84 316.753 507.867 317.173C507.438 317.265 507.655 317.85 508.082 317.759V317.759Z" fill="white"/>
<path d="M505.995 332.153C502.733 330.31 500.325 327.37 499.251 323.921C499.145 323.579 498.59 323.753 498.696 324.095C499.821 327.682 502.333 330.736 505.732 332.647C506.056 332.829 506.317 332.334 505.995 332.153Z" fill="white"/>
<path d="M502.816 301.658C502.222 302.028 501.566 302.198 500.909 302.155C500.251 302.111 499.612 301.855 499.049 301.408C498.761 301.179 498.527 301.792 498.813 302.02C499.437 302.509 500.143 302.791 500.87 302.841C501.596 302.892 502.321 302.709 502.981 302.309C503.045 302.278 503.099 302.216 503.13 302.135C503.16 302.055 503.167 301.962 503.147 301.876C503.125 301.79 503.078 301.719 503.016 301.678C502.954 301.638 502.883 301.63 502.817 301.658L502.816 301.658Z" fill="white"/>
<path d="M458.402 314.652C458.596 314.776 458.789 314.901 458.983 315.03C461.573 316.718 464.021 318.612 466.302 320.693C466.481 320.851 466.66 321.014 466.834 321.177C472.276 326.248 476.72 332.276 479.941 338.955C481.22 341.614 482.294 344.365 483.152 347.185C484.336 351.08 485.308 355.397 487.653 358.583C487.894 358.918 488.155 359.238 488.436 359.541H509.627C509.675 359.517 509.723 359.498 509.772 359.474L510.618 359.512C510.584 359.363 510.545 359.21 510.511 359.062C510.492 358.975 510.468 358.889 510.449 358.803C510.434 358.745 510.42 358.688 510.41 358.635C510.405 358.616 510.4 358.597 510.395 358.583C510.386 358.53 510.371 358.482 510.361 358.434C510.149 357.576 509.93 356.719 509.704 355.861C509.704 355.857 509.704 355.857 509.699 355.852C508.043 349.301 505.609 342.968 502.447 336.986C502.35 336.809 502.254 336.627 502.147 336.449C500.683 333.801 499.003 331.276 497.124 328.899C496.091 327.601 494.992 326.355 493.831 325.167C490.827 322.103 487.355 319.526 483.543 317.531C475.943 313.555 467.144 312.031 459.021 314.46C458.813 314.522 458.61 314.585 458.402 314.652Z" fill="#C1E8BE"/>
<path d="M458.651 315.354C469.182 317.423 478.787 322.719 486.1 330.492C487.705 332.137 489.037 334.023 490.048 336.078C490.967 338.112 491.318 340.353 491.066 342.566C490.872 344.635 490.432 346.729 490.75 348.808C490.929 349.87 491.333 350.883 491.935 351.78C492.538 352.677 493.325 353.437 494.246 354.012C496.502 355.503 499.166 356.104 501.791 356.602C504.707 357.155 507.743 357.683 510.176 359.484C510.471 359.702 510.796 359.237 510.502 359.019C506.269 355.887 500.596 356.544 495.966 354.333C493.805 353.301 491.945 351.619 491.41 349.228C490.942 347.138 491.394 344.978 491.609 342.885C491.887 340.729 491.628 338.538 490.853 336.504C489.951 334.404 488.694 332.471 487.137 330.788C483.692 326.943 479.656 323.658 475.179 321.053C470.085 318.051 464.51 315.933 458.694 314.791C458.334 314.72 458.293 315.284 458.651 315.354Z" fill="white"/>
<path d="M484.187 328.099C484.896 326.65 485.275 324.825 485.255 322.951C485.235 321.077 484.818 319.276 484.079 317.869C483.928 317.585 483.658 317.963 483.808 318.247C484.499 319.555 484.887 321.233 484.903 322.978C484.92 324.723 484.563 326.42 483.897 327.764C483.753 328.056 484.043 328.39 484.187 328.099Z" fill="white"/>
<path d="M490.914 341.085C487.458 341.422 483.987 340.572 481.194 338.703C480.917 338.517 480.613 338.914 480.889 339.099C483.8 341.04 487.413 341.918 491.01 341.56C491.353 341.525 491.255 341.051 490.914 341.085Z" fill="white"/>
<path d="M469.78 317.89C469.422 318.525 468.899 319.067 468.258 319.469C467.617 319.87 466.878 320.118 466.108 320.19C465.713 320.226 465.825 320.786 466.218 320.75C467.068 320.667 467.884 320.392 468.593 319.95C469.302 319.508 469.884 318.912 470.286 318.215C470.33 318.152 470.347 318.076 470.332 318.002C470.318 317.929 470.274 317.863 470.209 317.818C470.141 317.776 470.059 317.759 469.978 317.773C469.898 317.786 469.827 317.829 469.78 317.89Z" fill="white"/>
<path d="M413.132 246.766C413.969 246.292 414.691 245.64 415.248 244.857C415.805 244.074 416.183 243.179 416.356 242.234C416.528 241.29 416.491 240.319 416.247 239.39C416.003 238.462 415.557 237.598 414.942 236.859L422.597 177.533L408.291 178.132L405.264 236.26C404.089 237.373 403.364 238.877 403.227 240.488C403.09 242.098 403.549 243.703 404.519 244.999C405.489 246.294 406.901 247.189 408.489 247.515C410.076 247.841 411.728 247.574 413.132 246.766Z" fill="#FFB6B6"/>
<path d="M480.329 177.533L482.272 208.406L469.149 241.683L462.878 232.782L468.855 200.41L467.197 179.699L480.329 177.533Z" fill="#FFB6B6"/>
<path d="M462.757 272.329L464.37 351.04L457.292 352.081L441.992 271.52L462.757 272.329Z" fill="#FFB6B6"/>
<path d="M418.122 275.35L428.66 353.573H435.472L437.516 271.52L418.122 275.35Z" fill="#FFB6B6"/>
<path d="M438.262 137.252C446.09 137.252 452.435 130.907 452.435 123.079C452.435 115.252 446.09 108.906 438.262 108.906C430.435 108.906 424.089 115.252 424.089 123.079C424.089 130.907 430.435 137.252 438.262 137.252Z" fill="#FFB6B6"/>
<path d="M449.659 127.764C450.117 128.792 450.837 128.149 451.675 127.448C453.24 126.139 454.151 124.094 454.674 122.145C455.578 118.903 455.66 115.481 454.913 112.199C454.151 108.91 452.374 105.957 449.845 103.775C449.267 103.281 448.638 102.853 447.968 102.498C445.713 101.329 443.049 101.279 440.547 101.658C437.263 102.173 434.107 103.329 431.251 105.06C429.955 105.759 428.824 106.741 427.941 107.935C427.506 108.537 427.223 109.239 427.119 109.979C427.014 110.719 427.09 111.474 427.341 112.176C427.383 112.299 427.457 112.408 427.555 112.491C427.735 112.588 427.944 112.611 428.141 112.557C430.173 112.273 432.235 112.28 434.265 112.577C434.546 112.58 434.822 112.648 435.073 112.777C435.323 112.906 435.541 113.093 435.709 113.322C435.824 113.728 435.913 114.141 435.978 114.559C436.437 115.814 438.469 115.506 439.234 116.595C439.714 117.28 439.502 118.252 439.838 119.021C440.376 120.254 442.015 120.45 443.322 120.238C444.629 120.026 446.041 119.606 447.215 120.23C448.345 120.832 448.837 122.199 449.122 123.467C449.398 124.697 449.173 126.674 449.659 127.764Z" fill="#2F2E41"/>
<path d="M464.4 227.61L470.337 241.316L464.4 259.757V278.845L441.662 278.98L441.159 255.507L438.1 278.98H414.948L410.663 231.931L416.81 220.797L464.4 227.61Z" fill="#2F2E41"/>
<path d="M434.078 141.728L432.403 144.804C432.403 144.804 417.96 147.594 410.663 155.475L420.457 175.304L411.387 232.732L464.868 229.197L466.765 184.982L474.813 154.057C474.813 154.057 460.861 144.57 454.843 145.567L452.736 141.728H434.078Z" fill="#00BFA6"/>
<path d="M424.089 157.243L410.01 155.154C410.01 155.154 406.155 177.285 406.187 182.338L423.181 184.992L424.089 157.243Z" fill="#00BFA6"/>
<path d="M468.012 155.066L474.326 153.663C474.326 153.663 476.761 161.676 480.78 180.546L464.37 186.484L468.012 155.066Z" fill="#00BFA6"/>
<path d="M437.516 359.541L412.154 359.54V359.211C412.155 356.529 413.195 353.956 415.046 352.06C416.897 350.163 419.408 349.098 422.026 349.098H422.026L437.516 349.098L437.516 359.541Z" fill="#2F2E41"/>
<path d="M467.354 355.806L442.158 359.541L442.109 359.236C441.706 356.746 442.353 354.205 443.907 352.172C445.462 350.139 447.796 348.78 450.397 348.395L450.397 348.395L465.786 346.114L467.354 355.806Z" fill="#2F2E41"/>
<path d="M536.903 361.033H320.227C320.076 361.033 319.932 360.954 319.825 360.814C319.718 360.674 319.658 360.484 319.658 360.287C319.658 360.089 319.718 359.899 319.825 359.759C319.932 359.619 320.076 359.541 320.227 359.541H536.903C537.054 359.541 537.198 359.619 537.305 359.759C537.412 359.899 537.471 360.089 537.471 360.287C537.471 360.484 537.412 360.674 537.305 360.814C537.198 360.954 537.054 361.033 536.903 361.033Z" fill="#CACACA"/>
<path d="M495.778 291.441C502.935 299.601 507.383 309.849 508.491 320.729C508.77 323.067 508.686 325.435 508.24 327.746C507.735 329.983 506.65 332.041 505.099 333.707C503.683 335.29 502.055 336.743 501.041 338.648C500.537 339.632 500.243 340.713 500.178 341.82C500.112 342.927 500.278 344.036 500.664 345.073C501.558 347.684 503.321 349.812 505.116 351.832C507.109 354.075 509.214 356.372 510.062 359.345C510.164 359.705 510.708 359.522 510.605 359.163C509.131 353.99 504.196 351.051 501.843 346.392C500.745 344.218 500.284 341.694 501.313 339.399C502.213 337.392 503.892 335.893 505.339 334.302C506.876 332.7 508.004 330.738 508.624 328.59C509.183 326.309 509.358 323.948 509.139 321.608C508.729 316.333 507.506 311.155 505.515 306.266C503.274 300.673 500.108 295.511 496.156 291.004C495.912 290.725 495.535 291.164 495.778 291.441H495.778Z" fill="white"/>
</g>
<defs>
<clipPath id="clip0_1_388">
<rect width="605.699" height="367" fill="white" transform="translate(0.398315)"/>
</clipPath>
</defs>
</svg>
