<svg width="717" height="364" viewBox="0 0 717 364" fill="none" xmlns="http://www.w3.org/2000/svg">
<path d="M270.913 153.332H227.281C223.811 153.327 220.484 151.816 218.03 149.129C215.576 146.441 214.196 142.798 214.192 138.998V49.5179C214.196 45.7176 215.576 42.0741 218.03 39.3869C220.484 36.6996 223.811 35.1881 227.281 35.1838H270.913C274.383 35.1881 277.711 36.6996 280.164 39.3869C282.618 42.0741 283.999 45.7176 284.003 49.5179V138.998C283.999 142.798 282.618 146.441 280.164 149.129C277.711 151.816 274.383 153.327 270.913 153.332Z" fill="#F2F2F2"/>
<path d="M472.016 0H26.179C19.238 0.00746102 12.5832 3.03025 7.67519 8.40497C2.76715 13.7797 0.00681319 21.0673 0 28.6683V162.453C0.00681319 170.054 2.76715 177.342 7.67519 182.717C12.5832 188.091 19.238 191.114 26.179 191.122H472.016C478.957 191.114 485.612 188.091 490.52 182.717C495.428 177.342 498.188 170.054 498.195 162.453V28.6683C498.188 21.0673 495.428 13.7797 490.52 8.40497C485.612 3.03025 478.957 0.00746102 472.016 0ZM496.608 162.453C496.6 169.593 494.006 176.438 489.396 181.486C484.786 186.535 478.536 189.375 472.016 189.384H26.179C19.6593 189.375 13.4089 186.535 8.79875 181.486C4.18858 176.438 1.59493 169.593 1.58661 162.453V28.6683C1.59493 21.5286 4.18858 14.6839 8.79875 9.63538C13.4089 4.58685 19.6593 1.74658 26.179 1.73747H472.016C478.536 1.74658 484.786 4.58685 489.396 9.63538C494.006 14.6839 496.6 21.5286 496.608 28.6683V162.453Z" fill="#3F3D56"/>
<path d="M70.4058 126.401C68.523 126.401 66.6824 125.789 65.1169 124.644C63.5514 123.499 62.3313 121.87 61.6108 119.965C60.8902 118.061 60.7017 115.965 61.069 113.942C61.4363 111.92 62.343 110.063 63.6744 108.605C65.0057 107.147 66.7019 106.154 68.5486 105.752C70.3952 105.349 72.3093 105.556 74.0488 106.345C75.7883 107.134 77.275 108.47 78.3211 110.184C79.3671 111.899 79.9254 113.914 79.9254 115.976C79.9225 118.74 78.9186 121.39 77.134 123.344C75.3493 125.298 72.9296 126.398 70.4058 126.401ZM70.4058 107.289C68.8368 107.289 67.303 107.798 65.9984 108.753C64.6938 109.707 63.677 111.064 63.0766 112.652C62.4762 114.239 62.3191 115.986 62.6252 117.671C62.9313 119.356 63.6868 120.904 64.7963 122.119C65.9057 123.334 67.3192 124.161 68.8581 124.497C70.397 124.832 71.992 124.66 73.4416 124.002C74.8912 123.345 76.1301 122.231 77.0018 120.803C77.8735 119.374 78.3388 117.694 78.3388 115.976C78.3364 113.673 77.4999 111.465 76.0126 109.836C74.5254 108.207 72.509 107.291 70.4058 107.289Z" fill="#3F3D56"/>
<path d="M70.0934 102.945C69.883 102.945 69.6812 102.854 69.5324 102.691C69.3836 102.528 69.3 102.307 69.3 102.076V92.0859C69.3 91.8555 69.3836 91.6345 69.5324 91.4716C69.6812 91.3087 69.883 91.2172 70.0934 91.2172C70.3038 91.2172 70.5055 91.3087 70.6543 91.4716C70.8031 91.6345 70.8867 91.8555 70.8867 92.0859V102.076C70.8867 102.307 70.8031 102.528 70.6543 102.691C70.5055 102.854 70.3038 102.945 70.0934 102.945Z" fill="#3F3D56"/>
<path d="M57.7128 116.503H48.5898C48.3794 116.503 48.1776 116.411 48.0289 116.249C47.8801 116.086 47.7965 115.865 47.7965 115.634C47.7965 115.404 47.8801 115.183 48.0289 115.02C48.1776 114.857 48.3794 114.766 48.5898 114.766H57.7128C57.9232 114.766 58.125 114.857 58.2738 115.02C58.4225 115.183 58.5061 115.404 58.5061 115.634C58.5061 115.865 58.4225 116.086 58.2738 116.249C58.125 116.411 57.9232 116.503 57.7128 116.503Z" fill="#3F3D56"/>
<path d="M91.0317 116.503H81.9087C81.6983 116.503 81.4965 116.411 81.3477 116.249C81.1989 116.086 81.1154 115.865 81.1154 115.634C81.1154 115.404 81.1989 115.183 81.3477 115.02C81.4965 114.857 81.6983 114.766 81.9087 114.766H91.0317C91.2421 114.766 91.4438 114.857 91.5926 115.02C91.7414 115.183 91.825 115.404 91.825 115.634C91.825 115.865 91.7414 116.086 91.5926 116.249C91.4438 116.411 91.2421 116.503 91.0317 116.503Z" fill="#3F3D56"/>
<path d="M81.6581 107.004C81.5001 107.004 81.3458 106.953 81.2148 106.856C81.0838 106.759 80.9822 106.622 80.9229 106.462C80.8635 106.301 80.8492 106.125 80.8818 105.956C80.9144 105.787 80.9923 105.632 81.1057 105.512L84.9262 101.453C85.0772 101.292 85.2802 101.204 85.4906 101.208C85.701 101.211 85.9015 101.306 86.048 101.471C86.1945 101.637 86.275 101.859 86.2718 102.09C86.2686 102.32 86.1819 102.539 86.0309 102.7L82.2104 106.759C82.0626 106.917 81.8643 107.004 81.6581 107.004Z" fill="#3F3D56"/>
<path d="M58.3601 107.004C58.1539 107.004 57.9556 106.916 57.8078 106.759L53.9873 102.7C53.9125 102.62 53.8528 102.526 53.8114 102.421C53.7701 102.316 53.748 102.204 53.7464 102.09C53.7448 101.976 53.7638 101.862 53.8022 101.756C53.8406 101.65 53.8977 101.553 53.9702 101.471C54.0428 101.39 54.1293 101.324 54.225 101.279C54.3206 101.234 54.4234 101.209 54.5276 101.208C54.6318 101.206 54.7352 101.227 54.8321 101.269C54.9289 101.311 55.0172 101.373 55.092 101.453L58.9125 105.512C59.0259 105.632 59.1038 105.787 59.1364 105.956C59.169 106.125 59.1547 106.301 59.0953 106.462C59.036 106.622 58.9344 106.759 58.8034 106.856C58.6724 106.953 58.5181 107.004 58.3601 107.004Z" fill="#3F3D56"/>
<path d="M55.3329 130.745C55.177 130.745 55.0246 130.694 54.8946 130.6C54.7647 130.506 54.663 130.371 54.6023 130.214C54.5416 130.057 54.5245 129.884 54.5532 129.716C54.5819 129.548 54.6551 129.393 54.7637 129.271L58.5842 124.962C58.7308 124.797 58.9313 124.702 59.1417 124.699C59.3522 124.695 59.5552 124.784 59.7061 124.944C59.8571 125.105 59.9437 125.324 59.9467 125.555C59.9498 125.785 59.8692 126.007 59.7226 126.173L55.9021 130.481C55.8282 130.565 55.7397 130.631 55.6419 130.676C55.5441 130.721 55.4391 130.745 55.3329 130.745Z" fill="#3F3D56"/>
<path d="M86.2718 131.613C86.166 131.614 86.0612 131.591 85.9636 131.545C85.8661 131.5 85.7779 131.434 85.7041 131.351L81.0903 126.174C81.0176 126.092 80.9603 125.996 80.9216 125.89C80.8829 125.784 80.8637 125.671 80.8649 125.557C80.8662 125.443 80.888 125.33 80.929 125.225C80.9701 125.12 81.0295 125.025 81.1041 124.946C81.1786 124.866 81.2668 124.803 81.3635 124.761C81.4602 124.719 81.5636 124.698 81.6677 124.699C81.7719 124.7 81.8748 124.724 81.9705 124.769C82.0662 124.814 82.1529 124.879 82.2257 124.961L86.8395 130.138C86.9485 130.26 87.0222 130.415 87.0513 130.583C87.0803 130.751 87.0635 130.925 87.0029 131.082C86.9423 131.24 86.8406 131.374 86.7106 131.469C86.5805 131.563 86.4279 131.613 86.2718 131.613Z" fill="#3F3D56"/>
<path d="M70.0934 140.301C69.883 140.301 69.6812 140.209 69.5324 140.046C69.3836 139.883 69.3 139.662 69.3 139.432V129.441C69.3 129.211 69.3836 128.99 69.5324 128.827C69.6812 128.664 69.883 128.573 70.0934 128.573C70.3038 128.573 70.5055 128.664 70.6543 128.827C70.8031 128.99 70.8867 129.211 70.8867 129.441V139.432C70.8867 139.662 70.8031 139.883 70.6543 140.046C70.5055 140.209 70.3038 140.301 70.0934 140.301Z" fill="#3F3D56"/>
<path d="M173.863 132.482H147.381C144.676 132.432 142.098 131.22 140.201 129.108C138.304 126.995 137.241 124.151 137.241 121.189C137.241 118.226 138.304 115.382 140.201 113.269C142.098 111.157 144.676 109.945 147.381 109.895H149.407C150.411 107.565 151.998 105.594 153.983 104.211C155.968 102.827 158.27 102.087 160.622 102.076C163.822 102.108 166.89 103.474 169.203 105.894C171.516 108.315 172.9 111.609 173.075 115.107H173.863C175.945 115.145 177.929 116.077 179.389 117.702C180.849 119.327 181.667 121.515 181.667 123.795C181.667 126.074 180.849 128.262 179.389 129.888C177.929 131.513 175.945 132.444 173.863 132.482ZM147.381 111.632C145.097 111.683 142.922 112.711 141.323 114.498C139.724 116.285 138.828 118.687 138.828 121.189C138.828 123.69 139.724 126.092 141.323 127.879C142.922 129.666 145.097 130.694 147.381 130.745H173.863C175.524 130.707 177.105 129.958 178.267 128.659C179.429 127.36 180.08 125.613 180.08 123.795C180.08 121.976 179.429 120.23 178.267 118.93C177.105 117.631 175.524 116.882 173.863 116.845H172.306C172.095 116.845 171.893 116.753 171.745 116.59C171.596 116.427 171.512 116.207 171.512 115.976C171.537 112.783 170.405 109.709 168.364 107.429C166.322 105.149 163.538 103.849 160.622 103.814C158.49 103.826 156.408 104.524 154.635 105.82C152.862 107.117 151.475 108.955 150.647 111.106C150.586 111.263 150.484 111.396 150.354 111.489C150.225 111.583 150.073 111.632 149.918 111.632H147.381Z" fill="#3F3D56"/>
<path d="M262.323 116.025L261.705 114.425C262.905 113.87 263.962 112.999 264.782 111.89C265.602 110.782 266.16 109.469 266.406 108.068C266.653 106.667 266.581 105.221 266.197 103.857C265.812 102.494 265.127 101.256 264.202 100.251C263.276 99.2466 262.139 98.507 260.891 98.0978C259.643 97.6886 258.322 97.6222 257.045 97.9047C255.768 98.1871 254.574 98.8096 253.568 99.7171C252.563 100.625 251.777 101.789 251.28 103.108L249.814 102.446C250.41 100.863 251.353 99.4655 252.559 98.3765C253.766 97.2875 255.198 96.5405 256.731 96.2016C258.263 95.8627 259.849 95.9423 261.346 96.4333C262.844 96.9244 264.208 97.8117 265.319 99.017C266.429 100.222 267.251 101.709 267.713 103.344C268.174 104.98 268.261 106.715 267.964 108.396C267.668 110.078 266.999 111.653 266.015 112.983C265.031 114.314 263.763 115.359 262.323 116.025Z" fill="#3F3D56"/>
<path d="M263.507 132.482H237.025C234.32 132.432 231.741 131.22 229.844 129.108C227.948 126.995 226.885 124.151 226.885 121.189C226.885 118.226 227.948 115.382 229.844 113.269C231.741 111.157 234.32 109.945 237.025 109.895H239.05C240.055 107.565 241.641 105.594 243.626 104.211C245.611 102.827 247.913 102.087 250.266 102.076C253.465 102.108 256.533 103.474 258.846 105.894C261.159 108.315 262.544 111.609 262.718 115.107H263.507C265.588 115.145 267.572 116.077 269.032 117.702C270.492 119.327 271.31 121.515 271.31 123.795C271.31 126.074 270.492 128.262 269.032 129.888C267.572 131.513 265.588 132.444 263.507 132.482ZM237.025 111.632C234.741 111.683 232.566 112.711 230.966 114.498C229.367 116.285 228.472 118.687 228.472 121.189C228.472 123.69 229.367 126.092 230.966 127.879C232.566 129.666 234.741 130.694 237.025 130.745H263.507C265.167 130.707 266.748 129.958 267.91 128.659C269.072 127.36 269.723 125.613 269.723 123.795C269.723 121.976 269.072 120.23 267.91 118.93C266.748 117.631 265.167 116.882 263.507 116.845H261.949C261.739 116.845 261.537 116.753 261.388 116.59C261.239 116.427 261.156 116.207 261.156 115.976C261.181 112.783 260.048 109.709 258.007 107.429C255.965 105.149 253.181 103.849 250.266 103.814C248.134 103.826 246.052 104.524 244.278 105.82C242.505 107.117 241.118 108.955 240.29 111.106C240.229 111.263 240.127 111.396 239.998 111.489C239.868 111.583 239.716 111.632 239.561 111.632H237.025Z" fill="#3F3D56"/>
<path d="M353.15 128.138H349.966C349.755 128.138 349.554 128.047 349.405 127.884C349.256 127.721 349.172 127.5 349.172 127.27C349.172 127.039 349.256 126.818 349.405 126.655C349.554 126.492 349.755 126.401 349.966 126.401H353.15C354.81 126.363 356.391 125.615 357.553 124.315C358.716 123.016 359.367 121.27 359.367 119.451C359.367 117.632 358.716 115.886 357.553 114.587C356.391 113.287 354.81 112.539 353.15 112.501H351.592C351.382 112.501 351.18 112.41 351.031 112.247C350.883 112.084 350.799 111.863 350.799 111.632C350.824 108.439 349.692 105.366 347.65 103.086C345.609 100.806 342.825 99.5054 339.909 99.4701C337.777 99.4825 335.695 100.18 333.922 101.477C332.148 102.773 330.761 104.611 329.933 106.763C329.872 106.919 329.771 107.052 329.641 107.145C329.511 107.239 329.36 107.289 329.204 107.289H326.668C324.384 107.339 322.209 108.368 320.61 110.154C319.011 111.941 318.115 114.343 318.115 116.845C318.115 119.347 319.011 121.749 320.61 123.535C322.209 125.322 324.384 126.351 326.668 126.401H329.127C329.338 126.401 329.54 126.492 329.688 126.655C329.837 126.818 329.921 127.039 329.921 127.27C329.921 127.5 329.837 127.721 329.688 127.884C329.54 128.047 329.338 128.138 329.127 128.138H326.668C323.963 128.088 321.384 126.876 319.488 124.764C317.591 122.651 316.528 119.807 316.528 116.845C316.528 113.882 317.591 111.038 319.488 108.926C321.384 106.813 323.963 105.601 326.668 105.551H328.693C329.698 103.221 331.285 101.251 333.269 99.8669C335.254 98.4833 337.556 97.7433 339.909 97.7327C343.108 97.7648 346.176 99.1298 348.489 101.55C350.802 103.971 352.187 107.265 352.362 110.764H353.15C355.231 110.801 357.216 111.733 358.675 113.358C360.135 114.983 360.953 117.172 360.953 119.451C360.953 121.731 360.135 123.919 358.675 125.544C357.216 127.169 355.231 128.101 353.15 128.138Z" fill="#3F3D56"/>
<path d="M339.778 131.889C339.567 131.889 339.366 131.797 339.217 131.634C339.068 131.471 338.984 131.25 338.984 131.02V121.03C338.984 120.799 339.068 120.578 339.217 120.415C339.366 120.252 339.567 120.161 339.778 120.161C339.988 120.161 340.19 120.252 340.339 120.415C340.487 120.578 340.571 120.799 340.571 121.03V131.02C340.571 131.25 340.487 131.471 340.339 131.634C340.19 131.797 339.988 131.889 339.778 131.889Z" fill="#3F3D56"/>
<path d="M334.225 137.101C334.014 137.101 333.813 137.01 333.664 136.847C333.515 136.684 333.431 136.463 333.431 136.232V126.242C333.431 126.012 333.515 125.791 333.664 125.628C333.813 125.465 334.014 125.373 334.225 125.373C334.435 125.373 334.637 125.465 334.786 125.628C334.934 125.791 335.018 126.012 335.018 126.242V136.232C335.018 136.463 334.934 136.684 334.786 136.847C334.637 137.01 334.435 137.101 334.225 137.101Z" fill="#3F3D56"/>
<path d="M345.331 139.707C345.121 139.707 344.919 139.616 344.77 139.453C344.621 139.29 344.538 139.069 344.538 138.839V128.848C344.538 128.618 344.621 128.397 344.77 128.234C344.919 128.071 345.121 127.979 345.331 127.979C345.541 127.979 345.743 128.071 345.892 128.234C346.041 128.397 346.124 128.618 346.124 128.848V138.839C346.124 139.069 346.041 139.29 345.892 139.453C345.743 139.616 345.541 139.707 345.331 139.707Z" fill="#3F3D56"/>
<path d="M442.793 128.138H439.609C439.399 128.138 439.197 128.047 439.048 127.884C438.899 127.721 438.816 127.5 438.816 127.27C438.816 127.039 438.899 126.818 439.048 126.655C439.197 126.492 439.399 126.401 439.609 126.401H442.793C444.454 126.363 446.035 125.615 447.197 124.315C448.359 123.016 449.01 121.27 449.01 119.451C449.01 117.632 448.359 115.886 447.197 114.587C446.035 113.287 444.454 112.539 442.793 112.501H441.236C441.025 112.501 440.823 112.41 440.675 112.247C440.526 112.084 440.442 111.863 440.442 111.632C440.467 108.439 439.335 105.366 437.294 103.086C435.252 100.806 432.468 99.5054 429.552 99.4701C427.42 99.4825 425.338 100.18 423.565 101.477C421.792 102.773 420.405 104.611 419.577 106.763C419.516 106.919 419.414 107.052 419.284 107.145C419.155 107.239 419.003 107.289 418.848 107.289H416.311C414.027 107.339 411.852 108.368 410.253 110.154C408.654 111.941 407.758 114.343 407.758 116.845C407.758 119.347 408.654 121.749 410.253 123.535C411.852 125.322 414.027 126.351 416.311 126.401H418.771C418.981 126.401 419.183 126.492 419.332 126.655C419.48 126.818 419.564 127.039 419.564 127.27C419.564 127.5 419.48 127.721 419.332 127.884C419.183 128.047 418.981 128.138 418.771 128.138H416.311C413.607 128.088 411.028 126.876 409.131 124.764C407.234 122.651 406.172 119.807 406.172 116.845C406.172 113.882 407.234 111.038 409.131 108.926C411.028 106.813 413.607 105.601 416.311 105.551H418.337C419.341 103.221 420.928 101.251 422.913 99.8669C424.898 98.4833 427.2 97.7433 429.552 97.7327C432.752 97.7648 435.82 99.1298 438.133 101.55C440.446 103.971 441.83 107.265 442.005 110.764H442.793C444.875 110.801 446.859 111.733 448.319 113.358C449.779 114.983 450.597 117.172 450.597 119.451C450.597 121.731 449.779 123.919 448.319 125.544C446.859 127.169 444.875 128.101 442.793 128.138Z" fill="#3F3D56"/>
<path d="M428.186 125.967C429.172 125.967 429.971 125.091 429.971 124.012C429.971 122.932 429.172 122.057 428.186 122.057C427.2 122.057 426.401 122.932 426.401 124.012C426.401 125.091 427.2 125.967 428.186 125.967Z" fill="#3F3D56"/>
<path d="M434.136 128.573C435.121 128.573 435.921 127.698 435.921 126.618C435.921 125.539 435.121 124.664 434.136 124.664C433.15 124.664 432.351 125.539 432.351 126.618C432.351 127.698 433.15 128.573 434.136 128.573Z" fill="#3F3D56"/>
<path d="M424.219 131.613C425.205 131.613 426.004 130.738 426.004 129.659C426.004 128.579 425.205 127.704 424.219 127.704C423.234 127.704 422.434 128.579 422.434 129.659C422.434 130.738 423.234 131.613 424.219 131.613Z" fill="#3F3D56"/>
<path d="M430.566 135.957C431.551 135.957 432.351 135.082 432.351 134.002C432.351 132.923 431.551 132.048 430.566 132.048C429.58 132.048 428.781 132.923 428.781 134.002C428.781 135.082 429.58 135.957 430.566 135.957Z" fill="#3F3D56"/>
<path d="M92.8166 61.9526H46.8049C45.1217 61.9526 43.5075 61.2203 42.3173 59.917C41.1271 58.6136 40.4585 56.8459 40.4585 55.0027C40.4585 53.1595 41.1271 51.3917 42.3173 50.0884C43.5075 48.785 45.1217 48.0528 46.8049 48.0528H92.8166C94.4997 48.0528 96.114 48.785 97.3042 50.0884C98.4943 51.3917 99.163 53.1595 99.163 55.0027C99.163 56.8459 98.4943 58.6136 97.3042 59.917C96.114 61.2203 94.4997 61.9526 92.8166 61.9526Z" fill="#00BFA6"/>
<path d="M182.46 62.1145H136.448C134.765 62.1145 133.151 61.3823 131.961 60.079C130.77 58.7756 130.102 57.0079 130.102 55.1647C130.102 53.3214 130.77 51.5537 131.961 50.2504C133.151 48.947 134.765 48.2148 136.448 48.2148H182.46C184.143 48.2148 185.757 48.947 186.947 50.2504C188.138 51.5537 188.806 53.3214 188.806 55.1647C188.806 57.0079 188.138 58.7756 186.947 60.079C185.757 61.3823 184.143 62.1145 182.46 62.1145Z" fill="#00BFA6"/>
<path d="M272.103 62.1145H226.092C224.408 62.1145 222.794 61.3823 221.604 60.079C220.414 58.7756 219.745 57.0079 219.745 55.1647C219.745 53.3214 220.414 51.5537 221.604 50.2504C222.794 48.947 224.408 48.2148 226.092 48.2148H272.103C273.786 48.2148 275.401 48.947 276.591 50.2504C277.781 51.5537 278.45 53.3214 278.45 55.1647C278.45 57.0079 277.781 58.7756 276.591 60.079C275.401 61.3823 273.786 62.1145 272.103 62.1145Z" fill="#00BFA6"/>
<path d="M361.747 62.1145H315.735C314.052 62.1145 312.438 61.3823 311.247 60.079C310.057 58.7756 309.389 57.0079 309.389 55.1647C309.389 53.3214 310.057 51.5537 311.247 50.2504C312.438 48.947 314.052 48.2148 315.735 48.2148H361.747C363.43 48.2148 365.044 48.947 366.234 50.2504C367.424 51.5537 368.093 53.3214 368.093 55.1647C368.093 57.0079 367.424 58.7756 366.234 60.079C365.044 61.3823 363.43 62.1145 361.747 62.1145Z" fill="#00BFA6"/>
<path d="M451.39 62.1145H405.378C403.695 62.1145 402.081 61.3823 400.891 60.079C399.701 58.7756 399.032 57.0079 399.032 55.1647C399.032 53.3214 399.701 51.5537 400.891 50.2504C402.081 48.947 403.695 48.2148 405.378 48.2148H451.39C453.073 48.2148 454.687 48.947 455.878 50.2504C457.068 51.5537 457.736 53.3214 457.736 55.1647C457.736 57.0079 457.068 58.7756 455.878 60.079C454.687 61.3823 453.073 62.1145 451.39 62.1145Z" fill="#00BFA6"/>
<path d="M112.649 143.776C112.439 143.776 112.237 143.684 112.088 143.521C111.939 143.358 111.856 143.137 111.856 142.907V76.883C111.856 76.6526 111.939 76.4317 112.088 76.2687C112.237 76.1058 112.439 76.0143 112.649 76.0143C112.86 76.0143 113.061 76.1058 113.21 76.2687C113.359 76.4317 113.442 76.6526 113.442 76.883V142.907C113.442 143.137 113.359 143.358 113.21 143.521C113.061 143.684 112.86 143.776 112.649 143.776Z" fill="#E6E6E6"/>
<path d="M202.293 142.907C202.082 142.907 201.88 142.815 201.732 142.652C201.583 142.49 201.499 142.269 201.499 142.038V76.0143C201.499 75.7839 201.583 75.5629 201.732 75.4C201.88 75.2371 202.082 75.1456 202.293 75.1456C202.503 75.1456 202.705 75.2371 202.854 75.4C203.002 75.5629 203.086 75.7839 203.086 76.0143V142.038C203.086 142.269 203.002 142.49 202.854 142.652C202.705 142.815 202.503 142.907 202.293 142.907Z" fill="#E6E6E6"/>
<path d="M296.696 142.907C296.485 142.907 296.283 142.815 296.135 142.652C295.986 142.49 295.902 142.269 295.902 142.038V76.0143C295.902 75.7839 295.986 75.5629 296.135 75.4C296.283 75.2371 296.485 75.1456 296.696 75.1456C296.906 75.1456 297.108 75.2371 297.257 75.4C297.405 75.5629 297.489 75.7839 297.489 76.0143V142.038C297.489 142.269 297.405 142.49 297.257 142.652C297.108 142.815 296.906 142.907 296.696 142.907Z" fill="#E6E6E6"/>
<path d="M386.339 142.907C386.129 142.907 385.927 142.815 385.778 142.652C385.629 142.49 385.546 142.269 385.546 142.038V76.0143C385.546 75.7839 385.629 75.5629 385.778 75.4C385.927 75.2371 386.129 75.1456 386.339 75.1456C386.549 75.1456 386.751 75.2371 386.9 75.4C387.049 75.5629 387.132 75.7839 387.132 76.0143V142.038C387.132 142.269 387.049 142.49 386.9 142.652C386.751 142.815 386.549 142.907 386.339 142.907Z" fill="#E6E6E6"/>
<path d="M666.427 234.321C666.877 234.321 667.321 234.223 667.736 234.034C668.152 233.845 668.529 233.568 668.846 233.219C669.164 232.869 669.416 232.455 669.588 231.998C669.76 231.542 669.848 231.053 669.848 230.559C669.848 230.065 669.76 229.575 669.588 229.119C669.416 228.663 669.164 228.248 668.846 227.898C668.529 227.549 668.152 227.272 667.736 227.083C667.321 226.894 666.877 226.797 666.427 226.797H633.928V211.749H666.427C667.335 211.749 668.205 211.352 668.846 210.647C669.488 209.941 669.848 208.984 669.848 207.987C669.848 206.989 669.488 206.032 668.846 205.326C668.205 204.621 667.335 204.224 666.427 204.224H389.329C388.422 204.224 387.552 204.621 386.91 205.326C386.269 206.032 385.908 206.989 385.908 207.987C385.908 208.984 386.269 209.941 386.91 210.647C387.552 211.352 388.422 211.749 389.329 211.749H421.828V226.797H389.329C388.422 226.797 387.552 227.193 386.91 227.898C386.269 228.604 385.908 229.561 385.908 230.559C385.908 231.556 386.269 232.513 386.91 233.219C387.552 233.924 388.422 234.321 389.329 234.321H421.828V249.369H389.329C388.422 249.369 387.552 249.765 386.91 250.471C386.269 251.176 385.908 252.133 385.908 253.131C385.908 254.129 386.269 255.085 386.91 255.791C387.552 256.496 388.422 256.893 389.329 256.893H421.828V271.941H392.75C390.937 271.944 389.199 272.738 387.918 274.148C386.637 275.559 385.918 277.471 385.918 279.465C385.918 281.459 386.637 283.371 387.918 284.782C389.199 286.192 390.937 286.986 392.75 286.989H420.432C420.23 287.592 420.124 288.228 420.118 288.87V341.538C420.118 343.035 420.659 344.47 421.621 345.529C422.583 346.587 423.888 347.182 425.249 347.182C426.61 347.182 427.915 346.587 428.878 345.529C429.84 344.47 430.381 343.035 430.381 341.538V288.87C430.375 288.228 430.269 287.592 430.067 286.989H625.69C625.488 287.592 625.382 288.228 625.376 288.87V341.538C625.376 343.035 625.916 344.47 626.879 345.529C627.841 346.587 629.146 347.182 630.507 347.182C631.868 347.182 633.173 346.587 634.136 345.529C635.098 344.47 635.639 343.035 635.639 341.538V288.87C635.633 288.228 635.526 287.592 635.325 286.989H663.006C663.906 286.99 664.796 286.797 665.628 286.419C666.459 286.042 667.214 285.488 667.85 284.789C668.487 284.09 668.992 283.26 669.336 282.347C669.68 281.433 669.858 280.454 669.858 279.465C669.858 278.476 669.68 277.497 669.336 276.583C668.992 275.67 668.487 274.84 667.85 274.141C667.214 273.442 666.459 272.888 665.628 272.511C664.796 272.133 663.906 271.94 663.006 271.941H633.928V256.893H666.427C666.877 256.894 667.323 256.797 667.739 256.609C668.154 256.42 668.532 256.143 668.851 255.793C669.169 255.444 669.422 255.029 669.594 254.572C669.766 254.115 669.855 253.625 669.855 253.131C669.855 252.636 669.766 252.146 669.594 251.689C669.422 251.233 669.169 250.817 668.851 250.468C668.532 250.119 668.154 249.842 667.739 249.653C667.323 249.464 666.877 249.368 666.427 249.369H633.928V234.321H666.427ZM428.67 211.749H627.086V226.797H428.67V211.749ZM627.086 271.941H428.67V256.893H627.086V271.941ZM627.086 249.369H428.67V234.321H627.086V249.369Z" fill="#3F3D56"/>
<path d="M541.587 185.003C551.881 185.003 560.225 175.86 560.225 164.581C560.225 153.302 551.881 144.158 541.587 144.158C531.294 144.158 522.95 153.302 522.95 164.581C522.95 175.86 531.294 185.003 541.587 185.003Z" fill="#2F2E41"/>
<path d="M495.54 339.974L487.369 339.972L483.482 305.135H495.541L495.54 339.974Z" fill="#A0616A"/>
<path d="M481.588 337.571H497.734V348.383H471.422C471.422 346.963 471.685 345.557 472.196 344.245C472.707 342.934 473.456 341.742 474.4 340.738C475.344 339.734 476.464 338.937 477.698 338.394C478.931 337.851 480.253 337.571 481.588 337.571Z" fill="#2F2E41"/>
<path d="M482.646 335.168L474.711 332.463L480.54 297.927L492.252 301.919L482.646 335.168Z" fill="#A0616A"/>
<path d="M470.228 327.99L485.211 333.172L482.251 343.568L457.834 335.124C458.619 332.367 460.366 330.066 462.69 328.728C465.015 327.39 467.726 327.125 470.228 327.99Z" fill="#2F2E41"/>
<path d="M485.844 320.752C485.489 320.752 485.136 320.682 484.804 320.544L478.834 318.078C478.164 317.799 477.608 317.264 477.266 316.57C476.924 315.876 476.82 315.071 476.972 314.299C478.475 306.856 483.597 281.514 486.402 267.922C489.728 251.799 538.252 248.803 540.316 248.683L540.486 248.673L545.945 256.229C547.917 263.213 547.292 268.66 544.086 272.42C534.733 283.389 506.806 276.582 503.476 275.721L488.633 318.64C488.417 319.262 488.034 319.796 487.536 320.173C487.038 320.55 486.448 320.752 485.844 320.752Z" fill="#2F2E41"/>
<path d="M494.615 326.759C494.26 326.759 493.907 326.687 493.574 326.547L487.605 324.04C486.935 323.756 486.378 323.212 486.036 322.507C485.695 321.802 485.59 320.983 485.743 320.198C487.246 312.631 492.368 286.867 495.172 273.048C498.499 256.656 547.023 253.61 549.087 253.489L549.257 253.479L554.715 261.16C556.688 268.26 556.062 273.798 552.857 277.621C543.504 288.773 515.577 281.853 512.247 280.977L497.404 324.612C497.187 325.243 496.805 325.787 496.307 326.17C495.809 326.554 495.219 326.759 494.615 326.759Z" fill="#2F2E41"/>
<path d="M476.298 220.573C476.519 220.908 476.716 221.262 476.887 221.631L509.709 225.552L514.434 218.207L525.142 224.843L515.862 242.667L475.609 231.029C474.593 232.152 473.3 232.898 471.902 233.167C470.503 233.436 469.066 233.216 467.78 232.536C466.495 231.856 465.422 230.749 464.706 229.362C463.989 227.974 463.661 226.372 463.767 224.768C463.873 223.164 464.407 221.635 465.298 220.384C466.189 219.132 467.395 218.218 468.755 217.763C470.115 217.308 471.566 217.333 472.913 217.835C474.26 218.337 475.441 219.292 476.298 220.573Z" fill="#A0616A"/>
<path d="M552.492 264.29C552.02 264.289 551.555 264.164 551.136 263.927C544.609 260.285 531.9 253.978 520.115 252.658C519.712 252.615 519.321 252.479 518.968 252.26C518.616 252.041 518.309 251.744 518.067 251.387C517.82 251.027 517.644 250.614 517.549 250.175C517.454 249.737 517.442 249.281 517.515 248.838C518.578 242.377 521.018 225.927 520.704 212.743C520.611 208.69 521.778 204.722 524.013 201.493C526.248 198.263 529.418 195.965 533.001 194.974C535.158 194.35 537.349 193.876 539.561 193.555C542.103 193.202 544.686 193.507 547.101 194.446C549.517 195.384 551.698 196.931 553.471 198.961C555.244 200.992 556.559 203.45 557.31 206.138C558.062 208.826 558.229 211.671 557.799 214.443C555.698 228.105 553.579 247.188 555.42 260.509C555.505 261.106 555.437 261.717 555.225 262.274C555.012 262.832 554.663 263.314 554.217 263.667C553.717 264.07 553.113 264.288 552.492 264.29Z" fill="#CCCCCC"/>
<path d="M521.549 229.452C521.132 229.451 520.72 229.36 520.338 229.184L511.63 225.181C510.889 224.839 510.305 224.198 510.008 223.4C509.71 222.601 509.723 221.71 510.043 220.922L516.774 204.408C517.181 203.411 517.768 202.508 518.503 201.752C519.238 200.995 520.106 200.4 521.058 200C522.01 199.6 523.026 199.403 524.05 199.42C525.073 199.437 526.083 199.668 527.022 200.1C527.962 200.532 528.812 201.156 529.524 201.937C530.236 202.717 530.796 203.639 531.173 204.65C531.55 205.661 531.735 206.74 531.719 207.827C531.703 208.914 531.486 209.987 531.079 210.984L524.348 227.497C524.111 228.077 523.72 228.571 523.223 228.918C522.726 229.266 522.144 229.451 521.549 229.452Z" fill="#CCCCCC"/>
<path d="M541.039 187.406C549.819 187.406 556.936 179.338 556.936 169.386C556.936 159.434 549.819 151.366 541.039 151.366C532.259 151.366 525.142 159.434 525.142 169.386C525.142 179.338 532.259 187.406 541.039 187.406Z" fill="#A0616A"/>
<path d="M524.046 160.158C531.981 165.347 540.928 168.506 550.188 169.386L547.433 165.849C549.439 166.644 551.551 167.093 553.688 167.18C554.758 167.213 555.821 166.977 556.791 166.49C557.761 166.004 558.61 165.281 559.272 164.379C559.813 163.443 560.134 162.38 560.208 161.282C560.282 160.184 560.108 159.083 559.699 158.073C558.859 156.058 557.552 154.307 555.902 152.987C552.977 150.508 549.526 148.843 545.855 148.14C542.184 147.437 538.408 147.718 534.863 148.958C532.431 149.737 530.253 151.233 528.579 153.277C526.991 155.376 523.933 157.246 524.746 159.804L524.046 160.158Z" fill="#2F2E41"/>
<path d="M541.587 150.568C545.778 146.329 550.85 143.058 556.445 140.985C559.996 139.494 563.892 139.012 567.701 139.591C571.455 140.345 575.006 142.936 576.054 146.61C576.911 149.615 576.026 152.85 574.697 155.679C573.367 158.507 571.593 161.13 570.518 164.064C569.421 167.058 569.091 170.277 569.558 173.431C570.025 176.584 571.274 179.571 573.192 182.12C575.11 184.669 577.636 186.701 580.541 188.03C583.446 189.358 586.637 189.942 589.826 189.729C586.136 190.222 582.736 191.952 579.129 192.872C575.523 193.792 571.267 193.73 568.587 191.153C565.752 188.427 565.695 183.994 565.832 180.068L566.444 162.561C566.548 159.585 566.636 156.513 565.56 153.735C564.484 150.958 561.927 148.525 558.941 148.55C556.678 148.569 554.676 149.937 552.861 151.285C551.046 152.633 549.126 154.072 546.872 154.273C544.618 154.473 542.044 152.809 542.213 150.559" fill="#2F2E41"/>
<path d="M513.868 259.485C512.778 259.484 511.701 259.222 510.716 258.718C509.731 258.214 508.862 257.481 508.172 256.572C507.481 255.662 506.987 254.599 506.723 253.459C506.46 252.319 506.434 251.129 506.648 249.977C506.863 248.825 507.311 247.738 507.962 246.795C508.613 245.852 509.45 245.077 510.412 244.525C511.374 243.972 512.438 243.657 513.527 243.601C514.616 243.546 515.703 243.751 516.71 244.203H516.71C517.013 244.341 517.306 244.501 517.588 244.683L547.56 230.178L548.402 221.416L561.321 221.043L561.236 235.631C561.22 237.32 560.699 238.96 559.75 240.305C558.802 241.651 557.476 242.63 555.97 243.099L520.92 253.854C520.851 254.103 520.771 254.349 520.679 254.589C520.117 256.037 519.17 257.274 517.959 258.145C516.747 259.016 515.324 259.482 513.868 259.485V259.485Z" fill="#A0616A"/>
<path d="M559.67 228.477C559.302 228.679 558.9 228.796 558.489 228.823L549.117 229.446C548.319 229.498 547.534 229.206 546.934 228.632C546.335 228.059 545.97 227.252 545.92 226.388L544.891 208.285C544.828 207.191 544.964 206.093 545.293 205.056C545.622 204.019 546.136 203.062 546.807 202.24C547.478 201.418 548.292 200.747 549.203 200.266C550.114 199.785 551.103 199.502 552.115 199.435C553.127 199.368 554.141 199.517 555.099 199.874C556.057 200.231 556.941 200.788 557.7 201.515C558.459 202.242 559.078 203.123 559.522 204.109C559.966 205.095 560.226 206.166 560.287 207.26L561.316 225.363C561.351 225.999 561.215 226.633 560.922 227.186C560.63 227.739 560.195 228.188 559.67 228.477H559.67Z" fill="#CCCCCC"/>
<path d="M486.898 261.888H539.267C540.548 261.888 541.587 260.812 541.587 259.485C541.587 258.158 540.548 257.083 539.267 257.083H486.898C485.617 257.083 484.578 258.158 484.578 259.485C484.578 260.812 485.617 261.888 486.898 261.888Z" fill="#3F3D56"/>
<path d="M463.748 257.102V221.023C463.749 219.755 464.206 218.538 465.018 217.641C465.83 216.744 466.931 216.239 468.079 216.238H527.389C528.537 216.239 529.638 216.744 530.45 217.641C531.262 218.538 531.719 219.755 531.72 221.023V257.102C531.719 258.371 531.262 259.587 530.45 260.484C529.638 261.382 528.537 261.886 527.389 261.888H468.079C466.931 261.886 465.83 261.382 465.018 260.484C464.206 259.587 463.749 258.371 463.748 257.102Z" fill="#3F3D56"/>
<path d="M498.282 243.868C500.401 243.868 502.119 241.717 502.119 239.063C502.119 236.409 500.401 234.257 498.282 234.257C496.163 234.257 494.445 236.409 494.445 239.063C494.445 241.717 496.163 243.868 498.282 243.868Z" fill="white"/>
<path d="M688.438 349.584H248.924C248.618 349.584 248.325 349.458 248.109 349.232C247.892 349.007 247.771 348.701 247.771 348.383C247.771 348.064 247.892 347.759 248.109 347.533C248.325 347.308 248.618 347.182 248.924 347.182H688.438C688.744 347.182 689.038 347.308 689.254 347.533C689.47 347.759 689.592 348.064 689.592 348.383C689.592 348.701 689.47 349.007 689.254 349.232C689.038 349.458 688.744 349.584 688.438 349.584Z" fill="#CACACA"/>
</svg>
